<?xml version="1.0" encoding="utf-8"?>
<!-- Generator: Adobe Illustrator 18.0.0, SVG Export Plug-In . SVG Version: 6.00 Build 0)  -->
<!DOCTYPE svg PUBLIC "-//W3C//DTD SVG 1.1//EN" "http://www.w3.org/Graphics/SVG/1.1/DTD/svg11.dtd">
<svg version="1.1" xmlns="http://www.w3.org/2000/svg" xmlns:xlink="http://www.w3.org/1999/xlink" x="0px" y="0px"
	 viewBox="0 0 1650 650" enable-background="new 0 0 1650 650" xml:space="preserve">
<g id="Block">
	<rect x="1" fill="#9BFBD2" width="1650" height="650"/>
	<rect x="25" y="424.8" fill="#FFFFFF" width="1600" height="200"/>
</g>
<g id="Hands">
	<g>
		<g>
			<path fill="#9BFBD2" d="M808.2,529.3c-0.1,0-0.3,0-0.4,0c0,0-0.1,0-0.1,0c-0.1,0-0.2,0.1-0.3,0.1c0,0,0,0.1,0.1,0.1
				c0,0.1,0.4,0.1,0.5,0.2c0.3,0.1,0.6,0.2,0.9,0.2c0.2,0,0.4-0.1,0.6,0c0.2,0.1,1.1,0,1.3-0.2c0,0,0.2-0.1,0.2-0.1
				c0.1,0,0.3-0.1,0.4-0.1c0.1,0,0.4-0.2,0.4-0.2c-0.1,0-0.1,0-0.2,0c0,0-0.1,0-0.1,0c-0.2-0.1-0.5,0-0.7,0c-0.2,0-1.1,0.1-1.1,0.2
				c-0.3,0-0.5,0-0.7-0.1C808.7,529.3,808.4,529.3,808.2,529.3z M810.9,529.4c0,0-0.1,0-0.2,0c0,0,0,0,0,0H810.9z"/>
			<path fill="#9BFBD2" d="M823.3,540.3c0,0-1-0.5-1.2-0.6c-0.7-0.2-2.5-0.4-2.6-0.4c-0.3,0-1,0.1-1.1,0.2c-0.6,0.2-1.2,0.4-1.8,0.6
				c-0.4,0.2-0.8,0.3-1.1,0.5c-0.1,0-0.4,0.2-0.5,0.3c-0.4,0.1-0.5,0.1-0.9,0.2c0,0-0.1-0.1-0.1-0.1c-0.1-0.3-0.3-0.5-0.5-0.7
				c-0.1-0.1-0.3-0.2-0.4-0.3c0,0-0.1,0-0.1-0.1c-0.1,0-0.2-0.1-0.3-0.1c0,0,0-0.1-0.1-0.1c0-0.2-0.2-0.5-0.2-0.6
				c-0.1-0.5,0-0.9-0.1-1.3c0-0.1,0-0.2,0.1-0.4c0-0.1,0.3-2.7,0.3-3.3c0-0.2,0-0.4,0-0.5c0-0.4,0-0.7,0-1.1c0-0.2,0-0.5,0-0.7
				c0-0.3,0-0.6,0-1c0-0.1,0-0.5,0-0.5c0-0.1,0-0.2,0-0.3c0-0.2,0-0.3,0-0.5c0-0.2,0-0.4,0-0.6c0-0.2,0-0.4,0-0.7c0-0.3,0-0.7,0-1
				c0-0.4,0-0.8,0.1-1.3c0.1-0.3,0-0.7,0-1c0-0.3,0-0.6,0-0.9c0-0.4,0.1-0.7,0.2-1.1c0-0.3,0-0.6,0-0.8c0.1-0.4,0.3-2.5,0.3-3.2
				c0-0.1,0-0.3,0-0.4c0-0.3,0.1-1.7,0.1-1.7c-0.1-0.2,0-0.4-0.1-0.7c0-0.1,0-0.1,0-0.2c0,0-0.7-0.6-0.8-0.6c-0.1,0-0.2-0.1-0.2-0.1
				c-0.2-0.1-0.5-0.2-0.7-0.3c-0.4-0.1-0.8-0.1-1.1,0c-0.3,0-0.6,0.1-0.8,0.1c-0.3,0-0.5,0.1-0.7,0.2c-0.1,0.1-0.2,0.1-0.4,0.2
				c-0.1,0-0.3,0.3-0.3,0.4c0,0.2,0,0.4,0,0.7c0,0.3,0,0.7,0,1c0,0.7-0.1,1.4-0.1,2.1c0,0.4,0,0.8-0.1,1.2c0,0.5-0.1,1-0.1,1.4
				c0,0.3,0,0.6,0,1c0,0,0,0.2,0,0.3c0,0.1-0.1,0.2-0.1,0.3c0,0.1-0.2,0.8-0.2,0.9c-0.1,0.1-0.1,0.5-0.1,0.5c0,0.1-0.4,1.6-0.3,2.1
				c0,0.4-0.1,0.9-0.2,1.3c0,0.1-0.1,0.3-0.1,0.4c-0.1-0.1-0.2-0.2-0.2-0.4c-0.1-0.3-0.3-0.4-0.6-0.5c-0.1,0-0.2-0.1-0.3-0.1
				c-0.1,0-0.2-0.1-0.3-0.1c-0.2,0-0.4,0-0.6,0c-0.3,0-0.8,0-1.1,0.1c-0.2,0.1-0.6,0.3-0.8,0.4c-0.3,0.2-0.5,0.4-0.7,0.7
				c-0.2,0.3-0.4,0.7-0.6,1c-0.1,0.1-0.2,0.2-0.3,0.2c-0.4,0-0.6,0.1-1,0.1c-0.3,0-0.7,0.2-0.9,0.3c-0.4,0.1-0.8,0.3-1.1,0.6
				c-0.1,0.1-0.8,1.1-1,1.6c-0.1,0-0.2,0-0.3,0.1c-0.1,0.1-0.2,0.1-0.3,0.1c-0.2,0-0.5,0-0.7,0.1c-0.1,0-0.1,0.1-0.2,0.1
				c-0.2,0.1-0.4,0.1-0.5,0.2c-0.2,0.1-0.4,0.2-0.6,0.4c-0.1,0.1-0.7,0.4-0.7,0.5c-0.2,0.3-0.4,0.6-0.6,0.9
				c-0.5,0.7-0.9,1.4-0.9,2.3c0,0.2,0,0.4,0.2,0.5c0.1,0.1,0.1,0.2,0.1,0.3c0,0.1,0,0.2,0,0.3c0,0.2-0.1,0.5-0.1,0.7
				c-0.1,0.5-0.1,1-0.1,1.5c0,0.3,0,0.5,0,0.8c-0.1,0.4-0.1,0.8,0,1.2c0,0.4,0,0.8,0,1.1c0,0.2,0,0.5,0,0.7c0,0.3,0,0.6,0,0.8
				c0,0.3,0,0.6,0.1,0.9c0,0.4,0.1,0.7,0.1,1.1c0.1,0.5,0.1,1,0.3,1.5c0.2,0.4,0.4,0.7,0.5,1.1c0.2,0.3,0.4,0.7,0.5,1
				c0.1,0.1,0.1,0.3,0.2,0.4c0.2,0.4,0.4,0.7,0.7,1.1c0.1,0.2,0.3,0.4,0.4,0.6c0.2,0.2,0.4,0.4,0.5,0.6c0.1,0.1,0.2,0.2,0.3,0.3
				c0.2,0.2,0.5,0.3,0.7,0.5c0.3,0.3,0.6,0.6,0.9,0.8c0.1,0.1,0.2,0.2,0.4,0.2c-0.1-0.1-0.1-0.2-0.2-0.3c-0.3-0.3-0.5-0.5-0.8-0.8
				c-0.1-0.2-0.3-0.3-0.4-0.5c-0.2-0.2-0.4-0.4-0.5-0.6c-0.2-0.3-0.4-0.6-0.7-0.9c-0.1-0.1-0.1-0.2-0.1-0.2
				c-0.1-0.1-0.1-0.2-0.2-0.4c0-0.1-0.1-0.1-0.2-0.1c-0.1,0-0.1,0-0.1-0.1c0-0.1,0-0.2-0.1-0.3c-0.1-0.1-0.2-0.2-0.2-0.4
				c-0.1-0.3-0.2-0.7-0.4-1c0,0,0,0,0,0c-0.1-0.2-0.1-0.3-0.2-0.5c0-0.1-0.5-1.4-0.5-1.3c-0.1-0.2-0.2-0.3-0.2-0.5c0,0,0-0.3,0-0.4
				c0-0.1,0-0.3-0.1-0.4c0-0.1-0.1-0.1-0.1-0.1c0-0.1,0-0.3,0-0.3c0-0.1,0-0.2,0-0.2c-0.1-0.1-0.1-0.2-0.1-0.3c0-0.2,0-0.4,0-0.7
				c0-0.1,0-0.3-0.1-0.4c0-0.3-0.1-0.6-0.1-0.9c0-0.3,0-0.6,0-0.8c0-0.2,0-0.4,0-0.6c0-0.5,0-1.1,0.1-1.6c0-0.2,0.1-0.5,0.1-0.7
				c0.1-0.4,0.1-0.8,0.1-1.2c0-0.2,0-0.4,0-0.5c0-0.2-0.1-0.4-0.3-0.6c-0.1-0.1-0.2-0.3-0.3-0.4c0,0,0-0.1,0-0.1
				c0.1-0.2,0.1-0.5,0.2-0.7c0-0.1,0.1-0.3,0.1-0.4c0-0.1,0-0.1,0-0.2c0-0.1,0.1-0.1,0.1-0.2c0.1-0.2,0.3-0.5,0.4-0.7
				c0.1-0.2,0.3-0.3,0.4-0.5c0.2-0.3,0.4-0.5,0.7-0.6c0.1-0.1,0.2-0.1,0.3-0.2c0.1-0.1,0.2-0.2,0.3-0.2c0.3-0.1,0.5-0.2,0.8-0.2
				c0.2,0,0.4,0,0.6,0c0.1,0,0.2,0,0.3,0c0.2-0.1,0.3-0.1,0.5,0c0.1,0,0.1,0.1,0.1,0.2c0.1,0.2,0.1,0.4,0.2,0.6
				c0.1,0.2,0.1,0.5,0.2,0.7c0,0.2,0,0.4,0.1,0.6c0.1,0.3,0.1,0.5,0.1,0.8c0,0.2,0,0.4,0,0.6c0.1,0.4,0.1,0.7,0,1.1
				c0,0.1-0.1,0.3-0.2,0.4c0,0-0.1,0.1-0.1,0.1c-0.1,0.2-0.2,0.4-0.3,0.6c0,0.1-0.1,0.2-0.1,0.2c-0.1,0-0.1-0.1-0.2-0.1
				c-0.2-0.1-0.4-0.1-0.6-0.1c-0.1,0-0.3,0.1-0.4,0.1c-0.1,0-0.3,0.1-0.4,0.2c0,0.1-0.1,0.1-0.2,0.2l0,0c0,0.1-0.1,0.1-0.1,0.2l0,0
				c0,0.1-0.1,0.3-0.1,0.4c0,0.1,0,0.2-0.1,0.3c0,0,0,0,0,0c-0.1-0.1-0.2-0.2-0.3-0.4c0,0,0-0.1,0-0.1c0-0.2,0-0.5,0.1-0.7
				c0-0.1,0.1-0.2,0.1-0.2c0.1,0,0.2,0,0.2,0.1c0,0,0,0,0,0c-0.1-0.2-0.1-0.4-0.3-0.5c-0.3-0.3-0.4-0.7-0.5-1c0,0,0-0.1,0-0.1
				c0-0.1,0-0.2-0.1-0.3c-0.1-0.3-0.2-0.7-0.3-1c0-0.1-0.1-0.3-0.2-0.4c-0.1,0-0.2,0-0.3,0.1c0,0.2,0,0.4,0,0.5c0,0,0,0.1,0,0.1
				c0.1,0.2,0.1,0.5,0.2,0.7c0,0.2,0.1,0.3,0.1,0.5c-0.1-0.1-0.2-0.1-0.3-0.2c0,0-0.1,0-0.2,0c0,0.1-0.1,0.1-0.2,0.1
				c0,0.1,0.1,0.1,0.1,0.2c0.2,0.2,0.4,0.4,0.7,0.3c0,0.1,0.1,0.3,0.1,0.4c0,0.1,0.1,0.2,0.2,0.4c-0.2,0.1-0.4,0.1-0.6,0.2
				c-0.2,0.1-0.4,0-0.7,0c0.1,0.1,0.2,0.2,0.2,0.4c0,0.1,0.1,0.1,0.2,0.1c0.1,0,0.2,0,0.3-0.1c0,0,0,0,0,0c-0.1,0.1-0.1,0.1-0.2,0.2
				c0.2,0.1,0.2,0.1,0.3,0c0.1-0.1,0.3-0.2,0.5-0.3c0,0.2,0,0.4-0.1,0.6c0,0.2,0,0.3,0.1,0.4c0,0.1,0.1,0.2,0.1,0.3
				c0,0.1,0.1,0.3,0.3,0.3c0.1,0.1,0.3,0.1,0.4,0.2c0.1,0,0.1,0.1,0.2,0.1c0.1,0,0.3,0,0.4,0.1c0,0,0.1,0,0.1,0
				c0.2-0.1,0.4-0.1,0.6-0.1c0.2,0,0.3-0.1,0.4-0.3c0.2-0.3,0.2-0.7,0.4-1c0,0,0-0.1,0.1-0.1c0.1,0.2,0.2,0.3,0.3,0.4
				c0.1,0.1,0.2,0.3,0.3,0.4c0,0.1,0.1,0.1,0.2,0.1c0,0,0.1,0,0.1,0.1c0.2,0.1,0.4,0.3,0.6,0.4c0,0,0,0,0,0c-0.2,0-0.4,0.1-0.6,0.1
				c-0.1,0-0.2,0-0.2,0c-0.1,0-0.1,0-0.2,0c0,0-0.1,0-0.1,0c-0.2,0.1-0.5,0-0.7,0c-0.2,0-0.5,0-0.7,0c-0.3,0-0.5-0.1-0.8,0
				c-0.1,0-0.4,0.1-0.4,0.1c-0.3,0-0.6-0.1-0.9,0c-0.1,0-0.1,0-0.2,0.1c0,0,0.1,0.1,0.1,0.1c0.1,0.1,0.2,0.2,0.4,0.1
				c0.2,0,0.3-0.1,0.5-0.1c0.1,0,0.2-0.1,0.4-0.1c0.3,0,0.7,0,1,0c0,0,0.1,0,0.1,0c-1.2,0.3-2.4,0.5-3.5,0.8c0,0.1,0,0.3,0,0.5
				c0.2,0.2,0.3,0.2,0.5,0.2c0.1,0,0.2,0,0.3-0.1c0,0,0.1,0,0.1,0c0.2-0.1,0.4-0.1,0.6-0.2c0.2,0,0.3,0,0.5-0.2
				c0.1-0.1,0.2-0.1,0.3-0.1c0.2,0,0.5-0.1,0.7-0.2c0.1,0,0.3,0,0.4,0c0,0,0.1-0.1,0.1-0.1c0,0,0.1,0,0.1,0c0,0.1,0.1,0,0.1,0
				c0.3-0.1,0.6,0,0.9-0.2c0,0,0,0,0.1,0c0.1,0,0.1,0,0.2,0c0.1,0,0.2,0,0.2,0c0.1,0,0.2,0.1,0.2-0.1c0.1,0,0.2-0.1,0.2-0.1
				c0.2,0,0.3,0,0.5,0c0.1,0,0.1,0,0.2,0c0.2,0,0.3-0.1,0.5-0.1c0.1,0,0.2,0,0.2-0.1c0.2,0,0.5-0.1,0.7-0.1c0.2,0,0.4-0.1,0.5-0.2
				c0.1,0,0.3-0.1,0.4-0.1c0.1-0.1,0.1,0,0.1,0.1c0.1,0,0.2-0.1,0.3-0.1c0.1-0.1,0.2-0.1,0.4-0.1c0,0,0.1,0,0.1,0
				c0.2,0,0.3-0.1,0.5-0.1c0,0,0.1,0,0.1,0c0,0,0.1,0,0.1,0c0.1,0,0.2,0,0.3,0c0.1,0,0.1-0.1,0.2,0c0,0.2-0.1,0.3-0.2,0.4
				c-0.3,0.4-0.6,0.7-0.8,1.1c0,0.1-0.1,0.1-0.1,0.1c0,0-0.1,0.1-0.1,0.1c-0.2,0.1-0.4,0.1-0.6,0.2c-0.6,0.2-1.2,0.3-1.8,0.5
				c-0.3,0.1-0.6,0.2-0.9,0.3c0,0.1-0.1,0.1-0.2,0.2c-0.2,0.1-0.4,0.2-0.7,0.3c0.1,0,0.2,0.1,0.2,0.1c0.2,0,0.4,0,0.5-0.1
				c0.2-0.1,0.4-0.2,0.6-0.3c0.5-0.2,1-0.3,1.5-0.4c0.3,0,0.5-0.1,0.8-0.1c0,0,0,0.1-0.1,0.1c-0.2,0.2-0.3,0.4-0.5,0.6
				c-0.3,0.4-0.5,0.7-0.7,1.1c0,0.1-0.1,0.2,0,0.3c0,0,0,0.1,0,0.1c-0.1,0.2-0.2,0.4-0.3,0.7c0,0.1,0,0.1,0,0.2c0,0,0.1,0.1,0.1,0.1
				c0,0,0.1-0.1,0.1-0.1c0.2-0.3,0.3-0.6,0.5-0.9c0.1-0.3,0.3-0.5,0.5-0.7c0.4-0.4,0.7-0.8,1-1.3c0-0.1,0.1-0.1,0.1-0.2
				c0-0.1,0-0.2,0.1-0.2c0.2,0,0.3,0,0.5-0.1c0.5-0.1,1-0.2,1.5-0.3c0.1,0,0.1,0,0.2,0c0.1,0,0.1,0,0.2,0c0.1,0,0.1,0,0.2,0
				c0.1,0,0.1,0,0.2-0.1c0,0,0.1,0,0.2,0c0,0,0.1,0,0.1,0c0.1,0,0.1-0.1,0.2-0.1c0.2,0,0.4-0.1,0.5-0.1c0.2,0,0.4-0.1,0.6-0.2
				c0.2,0,0.4-0.1,0.6-0.1c-0.1,0.2-0.2,0.4-0.4,0.5c-0.3,0.2-0.6,0.5-0.9,0.8c-0.5,0.5-1,1-1.4,1.6c-0.6,0.7-1.2,1.4-1.7,2.2
				c-0.1,0.1-0.1,0.2-0.2,0.3c0,0,0,0.1-0.1,0.1c-0.3,0.4-0.6,0.9-0.8,1.4c-0.1,0.1-0.1,0.3-0.1,0.4c-0.1,0.3-0.3,0.6-0.3,1
				c0,0.3-0.1,0.5-0.1,0.8c0,0.1,0,0.3,0,0.4c0,0,0,0.1,0,0.1c0,0,0,0,0,0c0.1-0.3,0.2-0.5,0.3-0.8c0.1-0.2,0.1-0.3,0.2-0.5
				c0-0.2,0.1-0.3,0.2-0.5c0.1-0.1,0.1-0.2,0.1-0.3c0-0.1,0-0.2,0.1-0.3c0.1-0.2,0.3-0.5,0.5-0.7c0.1-0.2,0.3-0.4,0.4-0.6
				c0,0,0-0.1,0-0.1c0.1-0.1,0.1-0.2,0.2-0.3c0,0,0-0.1,0.1-0.1c0.2-0.3,0.4-0.6,0.6-0.8c0.1-0.2,0.2-0.3,0.3-0.5
				c0-0.1,0.1-0.2,0.1-0.3c0,0,0,0.1,0,0.1c0.1-0.2,0.2-0.3,0.4-0.5c0,0,0-0.1,0-0.1c-0.1,0,0-0.1,0-0.1c0-0.1,0.1-0.1,0.1-0.2
				c0.1-0.2,0.3-0.3,0.4-0.5c0.1-0.1,0.1-0.2,0.2-0.2c0.1,0,0.1-0.1,0.1-0.2c0,0,0-0.1,0.1-0.1c0.1-0.1,0.2-0.2,0.2-0.3
				c0,0,0.1-0.1,0.1-0.1c0,0,0.1,0.1,0.1,0c0.2-0.2,0.4-0.4,0.6-0.5c0.1-0.1,0.2-0.2,0.4-0.4c0.1-0.1,0.2-0.2,0.3-0.3
				c0.2-0.1,0.4-0.3,0.6-0.4c0,0,0.1-0.1,0.1-0.1c0.1-0.1,0.2-0.1,0.3-0.2c0.2-0.1,0.3-0.1,0.5-0.1c0.4-0.1,0.8-0.1,1.2-0.2
				c0.2,0,0.4-0.1,0.7-0.2c-0.1-0.1-0.2-0.1-0.2-0.1c-0.1-0.1-0.2-0.1-0.3,0c0,0-0.1,0-0.1,0c-0.2,0-0.4,0-0.5,0c-0.2,0-0.6,0-0.7,0
				c-0.2,0.1-0.5,0.1-0.7,0.1c-0.1,0-0.2,0.1-0.3,0.1c-0.3,0-0.5,0.1-0.8,0.1c-0.1,0-0.2,0-0.3,0c-0.2,0-0.3,0.1-0.5,0.1
				c-0.1,0-0.1,0-0.2,0c-0.1,0-0.2,0-0.3,0c-0.3,0.1-0.6,0-0.9,0.1c0,0,0,0,0,0c0,0-0.1,0-0.1,0c-0.3,0.1-0.7,0.2-1,0.2
				c-0.1,0-0.2,0-0.3,0.1c-0.1,0.1-0.2,0.1-0.3,0.1c-0.1,0-0.2,0-0.3,0c0,0,0-0.1,0-0.1c0.1-0.2,0.3-0.4,0.4-0.6
				c0.2-0.3,0.3-0.6,0.4-0.8c0.1-0.1,0.2-0.2,0.3-0.3c0.3,0,0.6-0.1,0.8-0.1c0.3,0,0.6-0.1,0.9-0.1c0.3,0,0.5,0,0.8-0.1
				c0.2,0,0.5-0.1,0.7-0.1c0.3-0.1,0.6-0.1,0.8-0.2c0.1,0,0.2-0.1,0.3-0.1c0,0,0-0.1,0.1-0.1c-0.1,0-0.2,0-0.3,0
				c-0.6,0-1.1,0.1-1.7,0.1c-0.1,0-0.1,0-0.2,0c-0.4,0.1-0.9,0.2-1.3,0.1c-0.1,0-0.1,0-0.2,0.1c-0.1,0.1-0.3,0.1-0.5,0.1
				c0.1-0.1,0.2-0.2,0.2-0.2c-0.1-0.1-0.1-0.1-0.2-0.2c0.1,0,0.1-0.1,0.2-0.1c0.1,0,0.2-0.1,0.3-0.2c0.1-0.1,0.2-0.2,0.3-0.3
				c0.1-0.1,0.1-0.1,0.2-0.2c0.1-0.3,0.3-0.5,0.3-0.8c0,0,0-0.1,0.1-0.1c0.1-0.2,0.2-0.4,0.2-0.6c0-0.1,0-0.3,0-0.4
				c0.1-0.3,0.1-0.6,0.1-0.9c0-0.2,0-0.3,0-0.5c0-0.3,0.1-0.6,0.1-0.9c0-0.3,0.1-0.7,0.1-1c0-0.3,0.1-0.6,0.1-0.8
				c0.1-0.6,0.1-1.3,0.2-1.9c0-0.2,0-0.3,0-0.5c0-0.2-0.1-0.3-0.1-0.5c0,0,0-0.1,0-0.1c0.1-0.1,0.2-0.3,0.2-0.5
				c0-0.2,0.1-0.4,0.1-0.6c0-0.1,0.1-0.3,0.1-0.4c0-0.3,0.1-0.6,0.1-0.9c0-0.2-0.1-0.9-0.1-0.9c0.1-0.4,0.1-0.7,0.3-1.1
				c0-0.1,0.2-1.2,0.3-1.6c0.1-0.3,0.1-0.7,0.1-1c0-0.5,0.1-1,0.1-1.5c0-0.1,0-0.2,0-0.3c0-0.5,0-1,0-1.4c0-0.4,0-0.8,0-1.3
				c0-0.3,0-0.5,0-0.8c0-0.3,0-0.7,0.1-1c0-0.2-0.1-0.6,0.1-0.7c0.4-0.2,1.4-0.3,1.5-0.3c0.4,0,0.8,0,1.2,0c0.1,0,0.6,0.1,0.7,0.1
				c0.3,0.2,0.5,0.4,0.8,0.6c0.1,0.1,0.1,0.1,0.1,0.2c0,0.1,0,0.1,0,0.2c0,0.3,0,0.6,0,0.8c0,0.4-0.1,0.7-0.1,1.1
				c-0.1,0.4-0.1,0.8-0.2,1.3c0,0.5-0.1,1.1-0.2,1.6c0,0.1,0,0.6,0,0.8c-0.1,0.4-0.2,0.9-0.3,1.3c-0.1,0.4,0,0.7,0,1.1
				c0,0.2,0,1,0.1,1.1c0,0.4,0,0.7,0,1.1c0,0.2-0.3,2.6-0.3,2.6c0,0.2,0.1,0.5,0.1,0.6s0.1,1.2,0,1.6c0,0,0,0,0,0.1
				c0,0.2,0,0.4,0.1,0.7c0.1,0.3,0,0.6,0,1c0,0.3-0.1,0.6-0.1,0.9c0,0.3,0,0.6,0,0.9c0,0.5,0.1,0.9,0,1.4c0,0.2-0.1,0.4-0.1,0.6
				c-0.1,0.4-0.2,1.3-0.2,1.3c0,0.2,0.1,0.5,0,0.7c-0.1-0.1-0.3-0.2-0.3-0.3c-0.1-0.1-0.2-0.3-0.2-0.5c0-0.1-0.1-0.1-0.2-0.2
				c-0.1,0-0.1,0-0.2-0.1c0,0,0-0.1-0.1-0.1c-0.1-0.1-0.1-0.1-0.3-0.1c-0.1,0-0.1,0.1,0,0.2c0,0,0.1,0.1,0.1,0.1
				c0,0.1-0.1,0.1-0.1,0.1c0.1,0.1,0.2,0.1,0.1,0.2c0,0-0.1,0-0.1,0c0,0,0,0,0,0c0,0.2,0.1,0.3,0.2,0.3c0.2,0.1,0.4,0.2,0.5,0.4
				c0.1,0.1,0.3,0.3,0.4,0.4c0.1,0.1,0.3,0.2,0.4,0.3c0.2,0.2,0.4,0.4,0.7,0.6c0.2,0.2,0.3,0.3,0.5,0.5c0.1,0.1,0.1,0.3,0.1,0.5
				c-0.1,0-0.3,0.1-0.4,0.1c-0.1,0.1-0.7,0.1-0.7,0.2c-0.2,0-0.4-0.1-0.5,0c0,0.2,0.1,0.3,0.3,0.3c0.1,0,0.3,0,0.4,0.1
				c0.2,0.1,0.5,0.1,0.8,0.2c0,0,0.1,0,0.1,0c0.2-0.1,0.3-0.2,0.5-0.2c0.2-0.1,0.3-0.2,0.5-0.1c0,0,0.2-0.1,0.2-0.1
				c0.2-0.1,0.4-0.2,0.6-0.3c0.1-0.1,0.3-0.1,0.4-0.2c0.3-0.2,0.7-0.4,1-0.6c0.1,0,0.1,0,0.2-0.1c0.4-0.3,0.9-0.4,1.3-0.6
				c0,0,0.1,0,0.2,0c-0.2,0.3-0.3,0.6-0.5,0.9c-0.2,0.3-0.3,0.6-0.3,1c0,0.1,0,0.2,0.1,0.3c0.2,0,0.1-0.2,0.2-0.3c0,0.1,0,0.2,0,0.3
				c0,0,0.1,0,0.1,0c0,0.4-0.1,0.8-0.1,1.3c0,0,0.1,0.1,0.1,0.1c0.2-0.3,0.1-0.6,0.2-0.9c0.1,0,0.2-0.1,0.2-0.2c0-0.1,0-0.2,0-0.3
				c0-0.4,0.1-0.8,0.2-1.2c0.1-0.2,0.1-0.4,0.2-0.5c0-0.2,0.1-0.3,0.1-0.5c0.3-0.1,1.2-0.1,1.4-0.1c0.4,0,1.4,0.2,1.6,0.3
				c0.3,0.1,0.8,0.1,1.1,0.1c0.4,0.1,0.8,0.2,1.1,0.5c0.3,0.2,0.5,0.5,0.7,0.4C824.1,540.8,823.6,540.4,823.3,540.3z M795,552.2
				c0-0.1-0.1-0.1-0.1-0.2C795,552,795,552.1,795,552.2z M797.1,540c-0.1,0.2-0.2,0.4-0.2,0.5c-0.1,0-0.1,0-0.2,0
				c-0.2,0.3-0.5,0.3-0.8,0.3c0-0.2,0-0.4,0.1-0.5c0.1-0.2,0.2-0.4,0.3-0.6c0-0.1,0.1-0.1,0.1-0.1c0.1,0,0.1,0,0.2,0
				c0.2-0.1,0.3,0,0.5,0c0,0,0,0.1,0,0.1C797.2,539.7,797.1,539.9,797.1,540z M797.2,541.4c0.1-0.1,0.3-0.1,0.4-0.1c0,0,0,0,0,0.1
				C797.5,541.4,797.4,541.4,797.2,541.4z M798.3,541.8C798.3,541.8,798.3,541.7,798.3,541.8c0.1-0.1,0.2-0.1,0.3-0.1c0,0,0,0,0,0
				C798.5,541.7,798.4,541.7,798.3,541.8z M805.5,540.1C805.5,540.1,805.5,540.1,805.5,540.1l-0.2,0.1c0,0,0,0,0,0
				C805.4,540.1,805.4,540.1,805.5,540.1z M806,528.7c-0.1,0-0.1,0-0.2,0c0,0,0,0,0,0L806,528.7C806,528.7,806,528.7,806,528.7z
				 M798.6,538.9c-0.1,0.2-0.2,0.5-0.2,0.8c0,0.1,0,0.2,0.1,0.3c-0.1,0-0.1-0.1-0.1-0.1c-0.1-0.2-0.2-0.3-0.2-0.5c0,0,0-0.1,0-0.1
				c0-0.1,0-0.1,0-0.2c0,0,0-0.1,0-0.2c0.1-0.2,0.2-0.5,0.2-0.8c0.1-0.2,0.1-0.4,0.1-0.7c0-0.1,0-0.3,0-0.4c0-0.1,0-0.2,0-0.2
				c0-0.2,0-0.3,0-0.5c-0.1,0-0.1-0.1-0.1-0.2c0-0.1-0.1-0.3-0.1-0.4c0-0.2-0.1-0.4,0-0.5c0-0.1,0-0.2,0-0.2c0-0.3,0-0.7-0.1-1
				c-0.1-0.3-0.2-0.6-0.1-1c0-0.1,0-0.3,0-0.4c0,0,0,0,0,0c0,0.1,0,0.1-0.1,0.2c0,0.1,0,0.1-0.2,0.1c0,0-0.1,0-0.1,0
				c0,0.1,0,0.2,0,0.3c-0.1-0.1-0.1-0.1-0.1-0.2c0.1-0.1,0.1-0.3,0.2-0.4c0.1-0.2,0.3-0.3,0.5-0.5c0-0.1,0.1-0.1,0.1-0.2
				c0-0.1,0-0.1,0.1-0.2c0.1-0.1,0.2-0.1,0.3-0.2c0.2-0.1,0.4-0.2,0.6-0.2c0.1-0.1,0.3-0.1,0.4-0.1c0,0,0,0.1,0.1,0.1
				c-0.2,0.1-0.5,0.2-0.7,0.3c-0.2,0.1-0.3,0.1-0.5,0.2c-0.1,0-0.1,0.1-0.1,0.2c0,0.1,0,0.1,0.1,0.2c0,0,0.1,0,0.1,0
				c0.1,0,0.1-0.1,0.2-0.1c0,0,0.1,0,0.1,0c0,0,0.1-0.1,0.1-0.1c0.1-0.2,0.2-0.3,0.4-0.3c0.4-0.1,0.7-0.2,1.1-0.3
				c0.4-0.1,0.8-0.1,1.2-0.1c0-0.2-0.2-0.4-0.3-0.3c-0.1,0-0.1,0.1-0.2,0c-0.3-0.1-0.6,0-0.9,0c0.3-0.2,0.5-0.3,0.9-0.3
				c0,0,0.1,0,0.1,0c0.2,0,0.3,0,0.5,0.2c0.1,0.1,0.2,0.2,0.2,0.2c0,0,0.1,0.1,0.1,0.1c0.1,0.2,0.1,0.4,0.2,0.6
				c0.1,0.4,0.2,0.9,0.3,1.3c0.1,0.8,0.2,1.6,0.2,2.4c0,0.1,0,0.1,0,0.2c-0.1,0.2-0.1,0.3,0,0.5c0,0.1,0,0.1,0,0.2
				c0,0.1-0.1,0.2-0.1,0.3c-0.1,0.2-0.1,0.5-0.2,0.7c-0.1,0.2-0.1,0.3-0.2,0.5c-0.3,0.5-0.5,0.9-0.8,1.4c0-0.1,0-0.3-0.1-0.4
				c-0.2-0.2-0.3-0.4-0.6-0.4c-0.1,0-0.1,0-0.2,0c-0.2,0.1-0.3,0.1-0.5,0.1c-0.4,0-0.8,0.2-1.1,0.5c0,0,0,0,0,0
				C798.7,538.8,798.7,538.8,798.6,538.9z M801.8,539.2c0.3,0.3,0.7,0.5,1.1,0.7c-0.6,0.1-1.2,0.2-1.8,0.2c0-0.2,0.1-0.3,0.2-0.4
				c0,0,0.1-0.1,0.1-0.1C801.5,539.4,801.6,539.3,801.8,539.2z M799,540.3c-0.1-0.1-0.2-0.1-0.3-0.2c-0.1-0.1-0.1-0.1,0-0.2
				c0,0,0.1,0,0.1,0c0.2,0.1,0.3,0,0.3-0.2c0-0.1,0.1-0.3,0.1-0.4c0-0.2,0.2-0.4,0.4-0.5c0.2-0.2,0.4-0.2,0.7-0.2
				c0.1,0,0.2,0,0.4,0.1c0.1,0.1,0.1,0.1,0.1,0.2c0,0.2-0.1,0.3-0.1,0.5c0,0.1,0,0.3-0.1,0.4c0,0.1,0,0.2-0.1,0.2c0,0,0,0.1-0.1,0.1
				c0,0.1-0.1,0.1-0.1,0.2C799.9,540.5,799.5,540.6,799,540.3z M800.5,541.3C800.5,541.3,800.5,541.3,800.5,541.3l-0.1,0l0,0
				c0.1,0,0.2,0,0.2-0.1c0,0,0,0,0,0C800.6,541.3,800.5,541.3,800.5,541.3z M804.4,540c-0.2,0.1-0.4,0.1-0.7,0.1
				c-0.8,0.2-1.6,0.3-2.4,0.5c-0.3,0.1-0.5,0.1-0.8,0.1c0,0-0.1,0-0.1,0c0.1-0.2,0.3-0.3,0.4-0.5c0.5,0,1-0.1,1.5-0.1
				c0.3,0,0.6-0.1,0.9-0.1c0,0,0,0,0,0c0.4,0.1,0.7-0.1,1.1-0.2c0,0,0,0,0.1,0c0,0,0,0,0,0C804.6,540,804.5,540,804.4,540z
				 M804.6,539.2c0.1,0.1,0.1,0.1,0.2,0.2c0,0.1-0.1,0.2-0.2,0.1c0,0,0,0,0,0c-0.1,0.2-0.3,0.2-0.4,0.2c-0.1,0-0.2,0-0.3,0
				c-0.1,0-0.3,0.1-0.3-0.1c0,0-0.1,0-0.1,0c0,0-0.1,0-0.1,0c-0.4-0.2-0.4-0.2-0.3-0.5c0-0.1,0-0.2,0-0.2c0-0.3,0.4-0.7,0.7-0.7
				c0.4-0.1,0.7-0.1,1,0c0,0,0.1,0,0.1,0c0.2,0,0.3,0.1,0.4,0.3C805,538.7,805,539,804.6,539.2z M805.5,538.9
				C805.5,538.9,805.5,538.9,805.5,538.9C805.5,538.8,805.5,538.8,805.5,538.9C805.5,538.8,805.5,538.8,805.5,538.9
				C805.5,538.8,805.5,538.9,805.5,538.9z M806.8,530.8c0,0.5-0.1,1-0.2,1.5c-0.1,0.4-0.1,0.8-0.2,1.2c-0.1,0.4-0.1,0.8-0.2,1.2
				c-0.1,0.3-0.1,0.7-0.1,1c0,0.3,0,0.7,0,1c0,0.2,0,0.4-0.1,0.6c0,0.3-0.1,0.5-0.2,0.8c0,0.1-0.1,0.2-0.1,0.3
				c0,0.1-0.1,0.1-0.1,0.2c0-0.1,0-0.1,0-0.1c0.1-0.4-0.1-0.6-0.4-0.6c-0.3-0.1-0.6-0.2-0.9-0.2c-0.1,0-0.2,0-0.3,0
				c-0.3,0-0.6,0.1-0.9,0.1c-0.1,0-0.2,0.1-0.3,0.2c-0.1,0.2-0.3,0.4-0.4,0.6c0,0.1-0.1,0.1-0.1,0.2c0.1,0.1,0.2,0.1,0.1,0.3
				c0,0.1,0.1,0.2,0.1,0.3c-0.3-0.1-0.4-0.3-0.4-0.5c0,0,0-0.1,0-0.1c0.1-0.3,0.3-0.6,0.5-0.9c0.1-0.2,0.2-0.4,0.3-0.7
				c0.1-0.2,0.1-0.5,0.1-0.7c0-0.1,0-0.1,0-0.2c-0.1-0.2-0.1-0.3-0.1-0.5c0-0.5,0-1,0-1.5c0-0.2,0-0.3,0-0.5c0-0.1,0-0.3,0-0.4
				c0-0.3-0.1-0.5-0.1-0.8c0-0.1,0-0.3,0-0.4c0-0.1,0-0.1,0-0.2c-0.1-0.4-0.1-0.7-0.1-1.1c0-0.2,0-0.3,0-0.4c0-0.1,0-0.2-0.1-0.3
				c-0.1,0-0.2-0.1-0.3-0.1c-0.1,0-0.2,0-0.2,0.2c0,0.1-0.1,0.2-0.2,0.1c-0.1,0-0.1,0-0.2-0.1c0.1-0.2,0.2-0.4,0.3-0.6
				c0.1-0.1,0.7-1.2,1.2-1.3c0.4-0.1,0.9-0.2,1.3-0.2c0.4,0,0.7,0.1,1.1,0.1c0.1,0,0.1,0.1,0.2,0.1c0,0,0,0.1,0,0.1
				c-0.3,0-0.6-0.1-0.9-0.1c-0.3,0-0.5,0-0.8,0c-0.2,0-0.3,0.1-0.5,0.2v0.3c0,0-0.2,0.1-0.2,0.1c-0.2,0.1,0,0.1,0,0.1
				c0,0-0.2,0.3,0,0.2c0.1,0,1.1-0.2,1.4-0.2c0.3,0,0.5-0.1,0.7-0.3l0,0c0.1,0,0.3,0,0.4,0.1c0,0,0.1,0.1,0.1,0.1
				c0.1,0.3,0.3,0.6,0.5,0.8C806.8,530.1,806.8,530.4,806.8,530.8z M805.4,528.8 M804.4,528.8c-0.2,0-0.3,0.1-0.5,0.1l0,0
				C804,528.7,804.2,528.7,804.4,528.8C804.4,528.7,804.4,528.7,804.4,528.8z"/>
			<path fill="#9BFBD2" d="M824.9,541.7c0-0.1,0-0.2-0.1-0.2c-0.1,0.1-0.1,0.2-0.1,0.3c0,0.2,0,0.3-0.1,0.5
				c-0.1,0.2-0.2,0.3-0.3,0.5c-0.1,0.2-0.2,0.4-0.3,0.6c0,0.1-0.5,0.8-0.7,1c0,0.1-0.1,0.1-0.2,0.2c0,0,0,0,0,0c0,0-0.4-0.2-0.5-0.2
				c-0.2,0-0.4,0-0.6-0.1c-0.3,0-0.6-0.1-0.8-0.1c-0.4,0-0.7,0.1-1.1,0.2c-0.6,0.2-1.1,0.4-1.6,0.8c-0.1,0.1-0.1,0.1-0.2,0
				c-0.2-0.1-0.4-0.2-0.7-0.3c-0.3,0.1-0.5,0.2-0.7,0.4c-0.2,0.2-0.4,0.4-0.6,0.6c-0.1,0.1-0.1,0.1-0.2,0.2c0,0.1-0.1,0.1-0.1,0.2
				c-0.2,0.3-0.5,0.7-0.7,1c-0.3,0.4-0.5,0.8-0.8,1.2c-0.1,0.1-0.1,0.2-0.2,0.3c-0.1,0.2-0.3,0.5-0.4,0.7c-0.4,0.5-0.9,0.9-1.4,1.4
				c-0.2,0.2-0.4,0.3-0.7,0.5c-0.2,0.2-0.5,0.4-0.7,0.6c-0.5,0.3-0.9,0.6-1.4,0.9c-0.5,0.3-1.5,0.7-1.5,0.8c-0.5,0.3-1,0.6-1.6,0.8
				c0.1,0,0.3,0,0.4,0c0.4-0.1,1.2-0.4,1.2-0.4c0.1-0.1,0.2-0.2,0.2-0.2c0.1-0.1,0.2-0.1,0.3-0.1c-0.1,0.1-0.2,0.1-0.3,0.2
				c0,0-0.1,0.1-0.2,0.1c0,0,0.1,0.1,0.1,0.1c0.3,0,0.5,0,0.7-0.1c0.4-0.2,0.7-0.5,1.1-0.6c0.2-0.1,0.4-0.2,0.6-0.4
				c0.3-0.2,0.6-0.5,1-0.7c0.1-0.1,1.7-1.3,2.1-1.8c0.4-0.4,0.6-0.8,0.9-1.3c0.2-0.3,0.3-0.5,0.5-0.8c0.1-0.1,0.8-1.4,1.1-1.9
				c0.2-0.3,0.3-0.6,0.6-0.8c0.1-0.1,0.2-0.1,0.3-0.2c0.1-0.1,0.2-0.1,0.3,0c0.1,0.1,0.3,0.1,0.4,0c0.1,0,0.1,0.1,0.2,0.1
				c0.2,0.1,0.4,0,0.5-0.1c0.1-0.1,0.1-0.1,0.3-0.2c0.1,0,0.3-0.1,0.4-0.2c0.1-0.1,0.1-0.2,0.2-0.2c0.3-0.1,0.6-0.2,1-0.3
				c0.3-0.1,0.7-0.1,1-0.1c0.4,0,0.8,0,1.2,0.3c0.2,0.1,0.4,0.1,0.6,0.1c0.1,0,0.3-0.2,0.4-0.2c0.2-0.1,0.3-0.2,0.4-0.5
				c0.1-0.3,0.3-0.4,0.4-0.7c0.1-0.2,0.2-0.5,0.3-0.7c0.1-0.1,0.1-0.3,0.1-0.4C824.9,542.3,824.9,542,824.9,541.7z"/>
			<path fill="#9BFBD2" d="M811,535.1c-0.1,0.1-0.2,0.2-0.4,0.2c0.2,0.2,0.5,0.1,0.7,0.3c-0.1,0-0.2,0-0.3,0c-0.4,0-0.7-0.1-1.1-0.1
				c-0.2,0-0.5,0-0.7,0c-0.1,0-0.2,0-0.2,0.1c0,0-0.1,0-0.1,0c-0.4,0-0.8,0-1.2,0c-0.1,0-0.1,0-0.2,0c0,0-0.1,0-0.1,0
				c-0.2,0-0.3,0-0.5,0c-0.1,0-0.1,0-0.1-0.1c0,0,0-0.1,0.1-0.1c0.2-0.2,0.4-0.2,0.7-0.3c0.2,0,0.3,0,0.5,0c0.3,0,0.6-0.1,0.9-0.1
				c0.3,0,0.7,0,1,0c0.3,0,0.5,0.1,0.7,0.2c0.1,0,0.2,0,0.2,0C810.9,535.1,810.9,535.1,811,535.1z M809,535.3c-0.2,0-0.4,0-0.7,0.1
				C808.6,535.5,808.8,535.4,809,535.3z M809.9,535.3C809.9,535.3,809.9,535.3,809.9,535.3c0,0,0.1,0,0.1,0c0,0,0,0,0,0
				C810,535.3,809.9,535.3,809.9,535.3z"/>
			<path fill="#9BFBD2" d="M811.8,521.4c-0.1,0-0.2,0-0.4,0c0.1-0.1,0.2,0,0.3-0.1c0.4-0.1-0.1-0.2-0.2-0.1c-0.1,0-1.6,0.1-1.8,0.1
				c-0.6-0.1-0.1,0.1,0.1,0.1c0.1,0,0.8,0,1,0c0.1,0,0.1,0,0,0.1c-0.2,0-0.4,0-0.6,0c0,0-0.4,0-0.4,0c-0.1,0-0.2,0-0.2,0
				c-0.2,0-0.3-0.1-0.5-0.1c-0.1,0-0.2-0.1-0.3,0c0,0.1,0.1,0.1,0.1,0.1c0,0,0.1,0.1,0.1,0.1c0.1,0,0.1,0,0.2,0c0,0,0.1,0,0.1,0
				c0,0,0,0,0,0c-0.1,0-0.3,0-0.4-0.1c0,0.1,0.1,0.2,0.2,0.2c0.2,0,0.4,0.1,0.6,0.1c0.2,0,0.4,0,0.6,0c0.1,0,0.2,0,0.3,0
				c0.5,0,0.9-0.1,1.4-0.2c0.1,0,0.2-0.1,0.2-0.1C812,521.4,811.9,521.4,811.8,521.4z"/>
			<path fill="#9BFBD2" d="M794.4,535c0-0.1,0.2-0.2,0.2-0.2c0.1-0.1,0.2-0.1,0.3-0.2c0-0.1-0.1-0.1-0.1-0.2
				c0.5-0.4,1.8-0.8,2.2-0.7c0,0,0,0-0.1,0c0.1,0,0.1,0,0.1,0c0,0-0.1,0.1-0.1,0.1c0.2,0,0.1,0.2,0.2,0.3c0,0-0.1,0-0.1,0
				c-0.1,0-0.2,0-0.3,0c-0.2,0-0.3,0-0.4,0.1c-0.3,0.1-0.5,0.2-0.8,0.4c-0.2,0.1-0.5,0.2-0.7,0.3C794.6,535,794.6,535.1,794.4,535z"
				/>
			<path fill="#9BFBD2" d="M796.1,538.8c-0.1,0-0.2,0-0.2,0c0-0.2-0.2-0.2-0.3-0.2c0.1,0,0.1-0.1,0.2-0.1c0.3,0,0.6-0.1,0.9-0.2
				c0,0,0.1,0,0.1-0.1c0.1-0.1,0.2-0.1,0.3-0.1c0,0,0.1,0,0.1,0c0.1-0.1,0.3-0.1,0.5,0c0,0.1-0.1,0.1-0.2,0.2
				c-0.1,0.1-0.2,0.1-0.3,0.2c-0.1,0-0.2,0.1-0.3,0.1C796.8,538.6,796.3,538.8,796.1,538.8z"/>
			<path fill="#9BFBD2" d="M803.8,536.4c0-0.1-0.1-0.1-0.1-0.2c0.2,0,0.4-0.1,0.6-0.1c0.1,0,0.2-0.1,0.3-0.1c0.2,0,0.3-0.1,0.5-0.1
				c0.1,0,0.2,0.1,0.3,0.2c0,0.1,0.1,0.2,0.1,0.3c0.1,0,0.3-0.1,0.5-0.1c-0.1,0.2-0.2,0.3-0.4,0.4c-0.3,0.1-0.7,0.3-1.1,0.3
				c-0.2,0-0.4,0.1-0.6,0.1c-0.2,0-0.4,0-0.5,0c-0.2,0-0.3-0.2-0.3-0.4c0-0.1,0.1-0.2,0.2-0.1C803.5,536.6,803.6,536.5,803.8,536.4z
				"/>
			<path fill="#9BFBD2" d="M799.3,537.9c0,0,0-0.1,0-0.1c-0.1,0-0.3-0.1-0.4-0.1c0-0.1,0.1-0.1,0.1-0.2c0.8,0,1.5-0.1,2.2-0.3
				c0,0,0,0,0,0.1c0.2-0.1,0.4-0.1,0.5-0.3c0.1-0.1,0.1,0,0.2,0.1c0,0.1,0,0.2-0.1,0.2c-0.1,0.1-0.2,0.2-0.3,0.3
				c-0.4,0.1-0.8,0.3-1.3,0.4c-0.2,0-0.3,0.1-0.5,0.1c0,0-0.1,0-0.1,0C799.5,538,799.4,537.9,799.3,537.9z M799.4,537.8
				C799.4,537.8,799.4,537.8,799.4,537.8c0.1,0,0.2,0,0.3-0.1C799.6,537.8,799.5,537.8,799.4,537.8z"/>
			<path fill="#9BFBD2" d="M799.8,537.2c0.3-0.1,0.6-0.3,0.9-0.4c0.1,0,0.2-0.1,0.3-0.1c0,0,0,0,0,0c0.2,0,0.4-0.1,0.6-0.2
				c0.1,0,0.2,0,0.3,0c0.1,0.1,0.1,0.2,0,0.2c-0.1,0.1-0.2,0.1-0.3,0.1c-0.5,0.2-1,0.2-1.5,0.4C800.1,537.3,799.9,537.3,799.8,537.2
				z"/>
		</g>
	</g>
	<g>
		<g>
			<path fill="#9BFBD2" d="M841.8,530.7c0.1,0,0.3,0,0.4,0c0,0,0.1,0,0.1,0c0.1,0,0.2-0.1,0.3-0.1c0,0,0-0.1-0.1-0.1
				c0-0.1-0.4-0.1-0.5-0.2c-0.3-0.1-0.6-0.2-0.9-0.2c-0.2,0-0.4,0.1-0.6,0c-0.2-0.1-1.1,0-1.3,0.2c0,0-0.2,0.1-0.2,0.1
				c-0.1,0-0.3,0.1-0.4,0.1c-0.1,0-0.4,0.2-0.4,0.2c0.1,0,0.1,0,0.2,0c0,0,0.1,0,0.1,0c0.2,0.1,0.5,0,0.7,0c0.2,0,1.1-0.1,1.1-0.2
				c0.3,0,0.5,0,0.7,0.1C841.3,530.7,841.6,530.7,841.8,530.7z M839.1,530.6c0,0,0.1,0,0.2,0c0,0,0,0,0,0H839.1z"/>
			<path fill="#9BFBD2" d="M826.7,519.7c0,0,1,0.5,1.2,0.6c0.7,0.2,2.5,0.4,2.6,0.4c0.3,0,1-0.1,1.1-0.2c0.6-0.2,1.2-0.4,1.8-0.6
				c0.4-0.2,0.8-0.3,1.1-0.5c0.1,0,0.4-0.2,0.5-0.3c0.4-0.1,0.5-0.1,0.9-0.2c0,0,0.1,0.1,0.1,0.1c0.1,0.3,0.3,0.5,0.5,0.7
				c0.1,0.1,0.3,0.2,0.4,0.3c0,0,0.1,0,0.1,0.1c0.1,0,0.2,0.1,0.3,0.1c0,0,0,0.1,0.1,0.1c0,0.2,0.2,0.5,0.2,0.6
				c0.1,0.5,0,0.9,0.1,1.3c0,0.1,0,0.2-0.1,0.4c0,0.1-0.3,2.7-0.3,3.3c0,0.2,0,0.4,0,0.5c0,0.4,0,0.7,0,1.1c0,0.2,0,0.5,0,0.7
				c0,0.3,0,0.6,0,1c0,0.1,0,0.5,0,0.5c0,0.1,0,0.2,0,0.3c0,0.2,0,0.3,0,0.5c0,0.2,0,0.4,0,0.6c0,0.2,0,0.4,0,0.7c0,0.3,0,0.7,0,1
				c0,0.4,0,0.8-0.1,1.3c-0.1,0.3,0,0.7,0,1c0,0.3,0,0.6,0,0.9c0,0.4-0.1,0.7-0.2,1.1c0,0.3,0,0.6,0,0.8c-0.1,0.4-0.3,2.5-0.3,3.2
				c0,0.1,0,0.3,0,0.4c0,0.3-0.1,1.7-0.1,1.7c0.1,0.2,0,0.4,0.1,0.7c0,0.1,0,0.1,0,0.2c0,0,0.7,0.6,0.8,0.6c0.1,0,0.2,0.1,0.2,0.1
				c0.2,0.1,0.5,0.2,0.7,0.3c0.4,0.1,0.8,0.1,1.1,0c0.3,0,0.6-0.1,0.8-0.1c0.3,0,0.5-0.1,0.7-0.2c0.1-0.1,0.2-0.1,0.4-0.2
				c0.1,0,0.3-0.3,0.3-0.4c0-0.2,0-0.4,0-0.7c0-0.3,0-0.7,0-1c0-0.7,0.1-1.4,0.1-2.1c0-0.4,0-0.8,0.1-1.2c0-0.5,0.1-1,0.1-1.4
				c0-0.3,0-0.6,0-1c0,0,0-0.2,0-0.3c0-0.1,0.1-0.2,0.1-0.3c0-0.1,0.2-0.8,0.2-0.9c0.1-0.1,0.1-0.5,0.1-0.5c0-0.1,0.4-1.6,0.3-2.1
				c0-0.4,0.1-0.9,0.2-1.3c0-0.1,0.1-0.3,0.1-0.4c0.1,0.1,0.2,0.2,0.2,0.4c0.1,0.3,0.3,0.4,0.6,0.5c0.1,0,0.2,0.1,0.3,0.1
				c0.1,0,0.2,0.1,0.3,0.1c0.2,0,0.4,0,0.6,0c0.3,0,0.8,0,1.1-0.1c0.2-0.1,0.6-0.3,0.8-0.4c0.3-0.2,0.5-0.4,0.7-0.7
				c0.2-0.3,0.4-0.7,0.6-1c0.1-0.1,0.2-0.2,0.3-0.2c0.4,0,0.6-0.1,1-0.1c0.3,0,0.7-0.2,0.9-0.3c0.4-0.1,0.8-0.3,1.1-0.6
				c0.1-0.1,0.8-1.1,1-1.6c0.1,0,0.2,0,0.3-0.1c0.1-0.1,0.2-0.1,0.3-0.1c0.2,0,0.5,0,0.7-0.1c0.1,0,0.1-0.1,0.2-0.1
				c0.2-0.1,0.4-0.1,0.5-0.2c0.2-0.1,0.4-0.2,0.6-0.4c0.1-0.1,0.7-0.4,0.7-0.5c0.2-0.3,0.4-0.6,0.6-0.9c0.5-0.7,0.9-1.4,0.9-2.3
				c0-0.2,0-0.4-0.2-0.5c-0.1-0.1-0.1-0.2-0.1-0.3c0-0.1,0-0.2,0-0.3c0-0.2,0.1-0.5,0.1-0.7c0.1-0.5,0.1-1,0.1-1.5
				c0-0.3,0-0.5,0-0.8c0.1-0.4,0.1-0.8,0-1.2c0-0.4,0-0.8,0-1.1c0-0.2,0-0.5,0-0.7c0-0.3,0-0.6,0-0.8c0-0.3,0-0.6-0.1-0.9
				c0-0.4-0.1-0.7-0.1-1.1c-0.1-0.5-0.1-1-0.3-1.5c-0.2-0.4-0.4-0.7-0.5-1.1c-0.2-0.3-0.4-0.7-0.5-1c-0.1-0.1-0.1-0.3-0.2-0.4
				c-0.2-0.4-0.4-0.7-0.7-1.1c-0.1-0.2-0.3-0.4-0.4-0.6c-0.2-0.2-0.4-0.4-0.5-0.6c-0.1-0.1-0.2-0.2-0.3-0.3
				c-0.2-0.2-0.5-0.3-0.7-0.5c-0.3-0.3-0.6-0.6-0.9-0.8c-0.1-0.1-0.2-0.2-0.4-0.2c0.1,0.1,0.1,0.2,0.2,0.3c0.3,0.3,0.5,0.5,0.8,0.8
				c0.1,0.2,0.3,0.3,0.4,0.5c0.2,0.2,0.4,0.4,0.5,0.6c0.2,0.3,0.4,0.6,0.7,0.9c0.1,0.1,0.1,0.2,0.1,0.2c0.1,0.1,0.1,0.2,0.2,0.4
				c0,0.1,0.1,0.1,0.2,0.1c0.1,0,0.1,0,0.1,0.1c0,0.1,0,0.2,0.1,0.3c0.1,0.1,0.2,0.2,0.2,0.4c0.1,0.3,0.2,0.7,0.4,1c0,0,0,0,0,0
				c0.1,0.2,0.1,0.3,0.2,0.5c0,0.1,0.5,1.4,0.5,1.3c0.1,0.2,0.2,0.3,0.2,0.5c0,0,0,0.3,0,0.4c0,0.1,0,0.3,0.1,0.4
				c0,0.1,0.1,0.1,0.1,0.1c0,0.1,0,0.3,0,0.3c0,0.1,0,0.2,0,0.2c0.1,0.1,0.1,0.2,0.1,0.3c0,0.2,0,0.4,0,0.7c0,0.1,0,0.3,0.1,0.4
				c0,0.3,0.1,0.6,0.1,0.9c0,0.3,0,0.6,0,0.8c0,0.2,0,0.4,0,0.6c0,0.5,0,1.1-0.1,1.6c0,0.2-0.1,0.5-0.1,0.7
				c-0.1,0.4-0.1,0.8-0.1,1.2c0,0.2,0,0.4,0,0.5c0,0.2,0.1,0.4,0.3,0.6c0.1,0.1,0.2,0.3,0.3,0.4c0,0,0,0.1,0,0.1
				c-0.1,0.2-0.1,0.5-0.2,0.7c0,0.1-0.1,0.3-0.1,0.4c0,0.1,0,0.1,0,0.2c0,0.1-0.1,0.1-0.1,0.2c-0.1,0.2-0.3,0.5-0.4,0.7
				c-0.1,0.2-0.3,0.3-0.4,0.5c-0.2,0.3-0.4,0.5-0.7,0.6c-0.1,0.1-0.2,0.1-0.3,0.2c-0.1,0.1-0.2,0.2-0.3,0.2
				c-0.3,0.1-0.5,0.2-0.8,0.2c-0.2,0-0.4,0-0.6,0c-0.1,0-0.2,0-0.3,0c-0.2,0.1-0.3,0.1-0.5,0c-0.1,0-0.1-0.1-0.1-0.2
				c-0.1-0.2-0.1-0.4-0.2-0.6c-0.1-0.2-0.1-0.5-0.2-0.7c0-0.2,0-0.4-0.1-0.6c-0.1-0.3-0.1-0.5-0.1-0.8c0-0.2,0-0.4,0-0.6
				c-0.1-0.4-0.1-0.7,0-1.1c0-0.1,0.1-0.3,0.2-0.4c0,0,0.1-0.1,0.1-0.1c0.1-0.2,0.2-0.4,0.3-0.6c0-0.1,0.1-0.2,0.1-0.2
				c0.1,0,0.1,0.1,0.2,0.1c0.2,0.1,0.4,0.1,0.6,0.1c0.1,0,0.3-0.1,0.4-0.1c0.1,0,0.3-0.1,0.4-0.2c0-0.1,0.1-0.1,0.2-0.2l0,0
				c0-0.1,0.1-0.1,0.1-0.2l0,0c0-0.1,0.1-0.3,0.1-0.4c0-0.1,0-0.2,0.1-0.3c0,0,0,0,0,0c0.1,0.1,0.2,0.2,0.3,0.4c0,0,0,0.1,0,0.1
				c0,0.2,0,0.5-0.1,0.7c0,0.1-0.1,0.2-0.1,0.2c-0.1,0-0.2,0-0.2-0.1c0,0,0,0,0,0c0.1,0.2,0.1,0.4,0.3,0.5c0.3,0.3,0.4,0.7,0.5,1
				c0,0,0,0.1,0,0.1c0,0.1,0,0.2,0.1,0.3c0.1,0.3,0.2,0.7,0.3,1c0,0.1,0.1,0.3,0.2,0.4c0.1,0,0.2,0,0.3-0.1c0-0.2,0-0.4,0-0.5
				c0,0,0-0.1,0-0.1c-0.1-0.2-0.1-0.5-0.2-0.7c0-0.2-0.1-0.3-0.1-0.5c0.1,0.1,0.2,0.1,0.3,0.2c0,0,0.1,0,0.2,0
				c0-0.1,0.1-0.1,0.2-0.1c0-0.1-0.1-0.1-0.1-0.2c-0.2-0.2-0.4-0.4-0.7-0.3c0-0.1-0.1-0.3-0.1-0.4c0-0.1-0.1-0.2-0.2-0.4
				c0.2-0.1,0.4-0.1,0.6-0.2c0.2-0.1,0.4,0,0.7,0c-0.1-0.1-0.2-0.2-0.2-0.4c0-0.1-0.1-0.1-0.2-0.1c-0.1,0-0.2,0-0.3,0.1c0,0,0,0,0,0
				c0.1-0.1,0.1-0.1,0.2-0.2c-0.2-0.1-0.2-0.1-0.3,0c-0.1,0.1-0.3,0.2-0.5,0.3c0-0.2,0-0.4,0.1-0.6c0-0.2,0-0.3-0.1-0.4
				c0-0.1-0.1-0.2-0.1-0.3c0-0.1-0.1-0.3-0.3-0.3c-0.1-0.1-0.3-0.1-0.4-0.2c-0.1,0-0.1-0.1-0.2-0.1c-0.1,0-0.3,0-0.4-0.1
				c0,0-0.1,0-0.1,0c-0.2,0.1-0.4,0.1-0.6,0.1c-0.2,0-0.3,0.1-0.4,0.3c-0.2,0.3-0.2,0.7-0.4,1c0,0,0,0.1-0.1,0.1
				c-0.1-0.2-0.2-0.3-0.3-0.4c-0.1-0.1-0.2-0.3-0.3-0.4c0-0.1-0.1-0.1-0.2-0.1c0,0-0.1,0-0.1-0.1c-0.2-0.1-0.4-0.3-0.6-0.4
				c0,0,0,0,0,0c0.2,0,0.4-0.1,0.6-0.1c0.1,0,0.2,0,0.2,0c0.1,0,0.1,0,0.2,0c0,0,0.1,0,0.1,0c0.2-0.1,0.5,0,0.7,0c0.2,0,0.5,0,0.7,0
				c0.3,0,0.5,0.1,0.8,0c0.1,0,0.4-0.1,0.4-0.1c0.3,0,0.6,0.1,0.9,0c0.1,0,0.1,0,0.2-0.1c0,0-0.1-0.1-0.1-0.1
				c-0.1-0.1-0.2-0.2-0.4-0.1c-0.2,0-0.3,0.1-0.5,0.1c-0.1,0-0.2,0.1-0.4,0.1c-0.3,0-0.7,0-1,0c0,0-0.1,0-0.1,0
				c1.2-0.3,2.4-0.5,3.5-0.8c0-0.1,0-0.3,0-0.5c-0.2-0.2-0.3-0.2-0.5-0.2c-0.1,0-0.2,0-0.3,0.1c0,0-0.1,0-0.1,0
				c-0.2,0.1-0.4,0.1-0.6,0.2c-0.2,0-0.3,0-0.5,0.2c-0.1,0.1-0.2,0.1-0.3,0.1c-0.2,0-0.5,0.1-0.7,0.2c-0.1,0-0.3,0-0.4,0
				c0,0-0.1,0.1-0.1,0.1c0,0-0.1,0-0.1,0c0-0.1-0.1,0-0.1,0c-0.3,0.1-0.6,0-0.9,0.2c0,0,0,0-0.1,0c-0.1,0-0.1,0-0.2,0
				c-0.1,0-0.2,0-0.2,0c-0.1,0-0.2-0.1-0.2,0.1c-0.1,0-0.2,0.1-0.2,0.1c-0.2,0-0.3,0-0.5,0c-0.1,0-0.1,0-0.2,0
				c-0.2,0-0.3,0.1-0.5,0.1c-0.1,0-0.2,0-0.2,0.1c-0.2,0-0.5,0.1-0.7,0.1c-0.2,0-0.4,0.1-0.5,0.2c-0.1,0-0.3,0.1-0.4,0.1
				c-0.1,0.1-0.1,0-0.1-0.1c-0.1,0-0.2,0.1-0.3,0.1c-0.1,0.1-0.2,0.1-0.4,0.1c0,0-0.1,0-0.1,0c-0.2,0-0.3,0.1-0.5,0.1
				c0,0-0.1,0-0.1,0c0,0-0.1,0-0.1,0c-0.1,0-0.2,0-0.3,0c-0.1,0-0.1,0.1-0.2,0c0-0.2,0.1-0.3,0.2-0.4c0.3-0.4,0.6-0.7,0.8-1.1
				c0-0.1,0.1-0.1,0.1-0.1c0,0,0.1-0.1,0.1-0.1c0.2-0.1,0.4-0.1,0.6-0.2c0.6-0.2,1.2-0.3,1.8-0.5c0.3-0.1,0.6-0.2,0.9-0.3
				c0-0.1,0.1-0.1,0.2-0.2c0.2-0.1,0.4-0.2,0.7-0.3c-0.1,0-0.2-0.1-0.2-0.1c-0.2,0-0.4,0-0.5,0.1c-0.2,0.1-0.4,0.2-0.6,0.3
				c-0.5,0.2-1,0.3-1.5,0.4c-0.3,0-0.5,0.1-0.8,0.1c0,0,0-0.1,0.1-0.1c0.2-0.2,0.3-0.4,0.5-0.6c0.3-0.4,0.5-0.7,0.7-1.1
				c0-0.1,0.1-0.2,0-0.3c0,0,0-0.1,0-0.1c0.1-0.2,0.2-0.4,0.3-0.7c0-0.1,0-0.1,0-0.2c0,0-0.1-0.1-0.1-0.1c0,0-0.1,0.1-0.1,0.1
				c-0.2,0.3-0.3,0.6-0.5,0.9c-0.1,0.3-0.3,0.5-0.5,0.7c-0.4,0.4-0.7,0.8-1,1.3c0,0.1-0.1,0.1-0.1,0.2c0,0.1,0,0.2-0.1,0.2
				c-0.2,0-0.3,0-0.5,0.1c-0.5,0.1-1,0.2-1.5,0.3c-0.1,0-0.1,0-0.2,0c-0.1,0-0.1,0-0.2,0c-0.1,0-0.1,0-0.2,0c-0.1,0-0.1,0-0.2,0.1
				c0,0-0.1,0-0.2,0c0,0-0.1,0-0.1,0c-0.1,0-0.1,0.1-0.2,0.1c-0.2,0-0.4,0.1-0.5,0.1c-0.2,0-0.4,0.1-0.6,0.2c-0.2,0-0.4,0.1-0.6,0.1
				c0.1-0.2,0.2-0.4,0.4-0.5c0.3-0.2,0.6-0.5,0.9-0.8c0.5-0.5,1-1,1.4-1.6c0.6-0.7,1.2-1.4,1.7-2.2c0.1-0.1,0.1-0.2,0.2-0.3
				c0,0,0-0.1,0.1-0.1c0.3-0.4,0.6-0.9,0.8-1.4c0.1-0.1,0.1-0.3,0.1-0.4c0.1-0.3,0.3-0.6,0.3-1c0-0.3,0.1-0.5,0.1-0.8
				c0-0.1,0-0.3,0-0.4c0,0,0-0.1,0-0.1c0,0,0,0,0,0c-0.1,0.3-0.2,0.5-0.3,0.8c-0.1,0.2-0.1,0.3-0.2,0.5c0,0.2-0.1,0.3-0.2,0.5
				c-0.1,0.1-0.1,0.2-0.1,0.3c0,0.1,0,0.2-0.1,0.3c-0.1,0.2-0.3,0.5-0.5,0.7c-0.1,0.2-0.3,0.4-0.4,0.6c0,0,0,0.1,0,0.1
				c-0.1,0.1-0.1,0.2-0.2,0.3c0,0,0,0.1-0.1,0.1c-0.2,0.3-0.4,0.6-0.6,0.8c-0.1,0.2-0.2,0.3-0.3,0.5c0,0.1-0.1,0.2-0.1,0.3
				c0,0,0-0.1,0-0.1c-0.1,0.2-0.2,0.3-0.4,0.5c0,0,0,0.1,0,0.1c0.1,0,0,0.1,0,0.1c0,0.1-0.1,0.1-0.1,0.2c-0.1,0.2-0.3,0.3-0.4,0.5
				c-0.1,0.1-0.1,0.2-0.2,0.2c-0.1,0-0.1,0.1-0.1,0.2c0,0,0,0.1-0.1,0.1c-0.1,0.1-0.2,0.2-0.2,0.3c0,0-0.1,0.1-0.1,0.1
				c0,0-0.1-0.1-0.1,0c-0.2,0.2-0.4,0.4-0.6,0.5c-0.1,0.1-0.2,0.2-0.4,0.4c-0.1,0.1-0.2,0.2-0.3,0.3c-0.2,0.1-0.4,0.3-0.6,0.4
				c0,0-0.1,0.1-0.1,0.1c-0.1,0.1-0.2,0.1-0.3,0.2c-0.2,0.1-0.3,0.1-0.5,0.1c-0.4,0.1-0.8,0.1-1.2,0.2c-0.2,0-0.4,0.1-0.7,0.2
				c0.1,0.1,0.2,0.1,0.2,0.1c0.1,0.1,0.2,0.1,0.3,0c0,0,0.1,0,0.1,0c0.2,0,0.4,0,0.5,0c0.2,0,0.6,0,0.7,0c0.2-0.1,0.5-0.1,0.7-0.1
				c0.1,0,0.2-0.1,0.3-0.1c0.3,0,0.5-0.1,0.8-0.1c0.1,0,0.2,0,0.3,0c0.2,0,0.3-0.1,0.5-0.1c0.1,0,0.1,0,0.2,0c0.1,0,0.2,0,0.3,0
				c0.3-0.1,0.6,0,0.9-0.1c0,0,0,0,0,0c0,0,0.1,0,0.1,0c0.3-0.1,0.7-0.2,1-0.2c0.1,0,0.2,0,0.3-0.1c0.1-0.1,0.2-0.1,0.3-0.1
				c0.1,0,0.2,0,0.3,0c0,0,0,0.1,0,0.1c-0.1,0.2-0.3,0.4-0.4,0.6c-0.2,0.3-0.3,0.6-0.4,0.8c-0.1,0.1-0.2,0.2-0.3,0.3
				c-0.3,0-0.6,0.1-0.8,0.1c-0.3,0-0.6,0.1-0.9,0.1c-0.3,0-0.5,0-0.8,0.1c-0.2,0-0.5,0.1-0.7,0.1c-0.3,0.1-0.6,0.1-0.8,0.2
				c-0.1,0-0.2,0.1-0.3,0.1c0,0,0,0.1-0.1,0.1c0.1,0,0.2,0,0.3,0c0.6,0,1.1-0.1,1.7-0.1c0.1,0,0.1,0,0.2,0c0.4-0.1,0.9-0.2,1.3-0.1
				c0.1,0,0.1,0,0.2-0.1c0.1-0.1,0.3-0.1,0.5-0.1c-0.1,0.1-0.2,0.2-0.2,0.2c0.1,0.1,0.1,0.1,0.2,0.2c-0.1,0-0.1,0.1-0.2,0.1
				c-0.1,0-0.2,0.1-0.3,0.2c-0.1,0.1-0.2,0.2-0.3,0.3c-0.1,0.1-0.1,0.1-0.2,0.2c-0.1,0.3-0.3,0.5-0.3,0.8c0,0,0,0.1-0.1,0.1
				c-0.1,0.2-0.2,0.4-0.2,0.6c0,0.1,0,0.3,0,0.4c-0.1,0.3-0.1,0.6-0.1,0.9c0,0.2,0,0.3,0,0.5c0,0.3-0.1,0.6-0.1,0.9
				c0,0.3-0.1,0.7-0.1,1c0,0.3-0.1,0.6-0.1,0.8c-0.1,0.6-0.1,1.3-0.2,1.9c0,0.2,0,0.3,0,0.5c0,0.2,0.1,0.3,0.1,0.5c0,0,0,0.1,0,0.1
				c-0.1,0.1-0.2,0.3-0.2,0.5c0,0.2-0.1,0.4-0.1,0.6c0,0.1-0.1,0.3-0.1,0.4c0,0.3-0.1,0.6-0.1,0.9c0,0.2,0.1,0.9,0.1,0.9
				c-0.1,0.4-0.1,0.7-0.3,1.1c0,0.1-0.2,1.2-0.3,1.6c-0.1,0.3-0.1,0.7-0.1,1c0,0.5-0.1,1-0.1,1.5c0,0.1,0,0.2,0,0.3c0,0.5,0,1,0,1.4
				c0,0.4,0,0.8,0,1.3c0,0.3,0,0.5,0,0.8c0,0.3,0,0.7-0.1,1c0,0.2,0.1,0.6-0.1,0.7c-0.4,0.2-1.4,0.3-1.5,0.3c-0.4,0-0.8,0-1.2,0
				c-0.1,0-0.6-0.1-0.7-0.1c-0.3-0.2-0.5-0.4-0.8-0.6c-0.1-0.1-0.1-0.1-0.1-0.2c0-0.1,0-0.1,0-0.2c0-0.3,0-0.6,0-0.8
				c0-0.4,0.1-0.7,0.1-1.1c0.1-0.4,0.1-0.8,0.2-1.3c0-0.5,0.1-1.1,0.2-1.6c0-0.1,0-0.6,0-0.8c0.1-0.4,0.2-0.9,0.3-1.3
				c0.1-0.4,0-0.7,0-1.1c0-0.2,0-1-0.1-1.1c0-0.4,0-0.7,0-1.1c0-0.2,0.3-2.6,0.3-2.6c0-0.2-0.1-0.5-0.1-0.6s-0.1-1.2,0-1.6
				c0,0,0,0,0-0.1c0-0.2,0-0.4-0.1-0.7c-0.1-0.3,0-0.6,0-1c0-0.3,0.1-0.6,0.1-0.9c0-0.3,0-0.6,0-0.9c0-0.5-0.1-0.9,0-1.4
				c0-0.2,0.1-0.4,0.1-0.6c0.1-0.4,0.2-1.3,0.2-1.3c0-0.2-0.1-0.5,0-0.7c0.1,0.1,0.3,0.2,0.3,0.3c0.1,0.1,0.2,0.3,0.2,0.5
				c0,0.1,0.1,0.1,0.2,0.2c0.1,0,0.1,0,0.2,0.1c0,0,0,0.1,0.1,0.1c0.1,0.1,0.1,0.1,0.3,0.1c0.1,0,0.1-0.1,0-0.2c0,0-0.1-0.1-0.1-0.1
				c0-0.1,0.1-0.1,0.1-0.1c-0.1-0.1-0.2-0.1-0.1-0.2c0,0,0.1,0,0.1,0c0,0,0,0,0,0c0-0.2-0.1-0.3-0.2-0.3c-0.2-0.1-0.4-0.2-0.5-0.4
				c-0.1-0.1-0.3-0.3-0.4-0.4c-0.1-0.1-0.3-0.2-0.4-0.3c-0.2-0.2-0.4-0.4-0.7-0.6c-0.2-0.2-0.3-0.3-0.5-0.5
				c-0.1-0.1-0.1-0.3-0.1-0.5c0.1,0,0.3-0.1,0.4-0.1c0.1-0.1,0.7-0.1,0.7-0.2c0.2,0,0.4,0.1,0.5,0c0-0.2-0.1-0.3-0.3-0.3
				c-0.1,0-0.3,0-0.4-0.1c-0.2-0.1-0.5-0.1-0.8-0.2c0,0-0.1,0-0.1,0c-0.2,0.1-0.3,0.2-0.5,0.2c-0.2,0.1-0.3,0.2-0.5,0.1
				c0,0-0.2,0.1-0.2,0.1c-0.2,0.1-0.4,0.2-0.6,0.3c-0.1,0.1-0.3,0.1-0.4,0.2c-0.3,0.2-0.7,0.4-1,0.6c-0.1,0-0.1,0-0.2,0.1
				c-0.4,0.3-0.9,0.4-1.3,0.6c0,0-0.1,0-0.2,0c0.2-0.3,0.3-0.6,0.5-0.9c0.2-0.3,0.3-0.6,0.3-1c0-0.1,0-0.2-0.1-0.3
				c-0.2,0-0.1,0.2-0.2,0.3c0-0.1,0-0.2,0-0.3c0,0-0.1,0-0.1,0c0-0.4,0.1-0.8,0.1-1.3c0,0-0.1-0.1-0.1-0.1c-0.2,0.3-0.1,0.6-0.2,0.9
				c-0.1,0-0.2,0.1-0.2,0.2c0,0.1,0,0.2,0,0.3c0,0.4-0.1,0.8-0.2,1.2c-0.1,0.2-0.1,0.4-0.2,0.5c0,0.2-0.1,0.3-0.1,0.5
				c-0.3,0.1-1.2,0.1-1.4,0.1c-0.4,0-1.4-0.2-1.6-0.3c-0.3-0.1-0.8-0.1-1.1-0.1c-0.4-0.1-0.8-0.2-1.1-0.5c-0.3-0.2-0.5-0.5-0.7-0.4
				C825.9,519.2,826.4,519.6,826.7,519.7z M855,507.8c0,0.1,0.1,0.1,0.1,0.2C855,508,855,507.9,855,507.8z M852.9,520
				c0.1-0.2,0.2-0.4,0.2-0.5c0.1,0,0.1,0,0.2,0c0.2-0.3,0.5-0.3,0.8-0.3c0,0.2,0,0.4-0.1,0.5c-0.1,0.2-0.2,0.4-0.3,0.6
				c0,0.1-0.1,0.1-0.1,0.1c-0.1,0-0.1,0-0.2,0c-0.2,0.1-0.3,0-0.5,0c0,0,0-0.1,0-0.1C852.8,520.3,852.9,520.1,852.9,520z
				 M852.8,518.6c-0.1,0.1-0.3,0.1-0.4,0.1c0,0,0,0,0-0.1C852.5,518.6,852.6,518.6,852.8,518.6z M851.7,518.2
				C851.7,518.3,851.7,518.3,851.7,518.2c-0.1,0.1-0.2,0.1-0.3,0.1c0,0,0,0,0,0C851.5,518.3,851.6,518.3,851.7,518.2z M844.5,519.9
				C844.5,519.9,844.5,519.9,844.5,519.9l0.2-0.1c0,0,0,0,0,0C844.6,519.9,844.6,519.9,844.5,519.9z M844,531.3c0.1,0,0.1,0,0.2,0
				c0,0,0,0,0,0L844,531.3C844,531.3,844,531.3,844,531.3z M851.4,521.1c0.1-0.2,0.2-0.5,0.2-0.8c0-0.1,0-0.2-0.1-0.3
				c0.1,0,0.1,0.1,0.1,0.1c0.1,0.2,0.2,0.3,0.2,0.5c0,0,0,0.1,0,0.1c0,0.1,0,0.1,0,0.2c0,0,0,0.1,0,0.2c-0.1,0.2-0.2,0.5-0.2,0.8
				c-0.1,0.2-0.1,0.4-0.1,0.7c0,0.1,0,0.3,0,0.4c0,0.1,0,0.2,0,0.2c0,0.2,0,0.3,0,0.5c0.1,0,0.1,0.1,0.1,0.2c0,0.1,0.1,0.3,0.1,0.4
				c0,0.2,0.1,0.4,0,0.5c0,0.1,0,0.2,0,0.2c0,0.3,0,0.7,0.1,1c0.1,0.3,0.2,0.6,0.1,1c0,0.1,0,0.3,0,0.4c0,0,0,0,0,0
				c0-0.1,0-0.1,0.1-0.2c0-0.1,0-0.1,0.2-0.1c0,0,0.1,0,0.1,0c0-0.1,0-0.2,0-0.3c0.1,0.1,0.1,0.1,0.1,0.2c-0.1,0.1-0.1,0.3-0.2,0.4
				c-0.1,0.2-0.3,0.3-0.5,0.5c0,0.1-0.1,0.1-0.1,0.2c0,0.1,0,0.1-0.1,0.2c-0.1,0.1-0.2,0.1-0.3,0.2c-0.2,0.1-0.4,0.2-0.6,0.2
				c-0.1,0.1-0.3,0.1-0.4,0.1c0,0,0-0.1-0.1-0.1c0.2-0.1,0.5-0.2,0.7-0.3c0.2-0.1,0.3-0.1,0.5-0.2c0.1,0,0.1-0.1,0.1-0.2
				c0-0.1,0-0.1-0.1-0.2c0,0-0.1,0-0.1,0c-0.1,0-0.1,0.1-0.2,0.1c0,0-0.1,0-0.1,0c0,0-0.1,0.1-0.1,0.1c-0.1,0.2-0.2,0.3-0.4,0.3
				c-0.4,0.1-0.7,0.2-1.1,0.3c-0.4,0.1-0.8,0.1-1.2,0.1c0,0.2,0.2,0.4,0.3,0.3c0.1,0,0.1-0.1,0.2,0c0.3,0.1,0.6,0,0.9,0
				c-0.3,0.2-0.5,0.3-0.9,0.3c0,0-0.1,0-0.1,0c-0.2,0-0.3,0-0.5-0.2c-0.1-0.1-0.2-0.2-0.2-0.2c0,0-0.1-0.1-0.1-0.1
				c-0.1-0.2-0.1-0.4-0.2-0.6c-0.1-0.4-0.2-0.9-0.3-1.3c-0.1-0.8-0.2-1.6-0.2-2.4c0-0.1,0-0.1,0-0.2c0.1-0.2,0.1-0.3,0-0.5
				c0-0.1,0-0.1,0-0.2c0-0.1,0.1-0.2,0.1-0.3c0.1-0.2,0.1-0.5,0.2-0.7c0.1-0.2,0.1-0.3,0.2-0.5c0.3-0.5,0.5-0.9,0.8-1.4
				c0,0.1,0,0.3,0.1,0.4c0.2,0.2,0.3,0.4,0.6,0.4c0.1,0,0.1,0,0.2,0c0.2-0.1,0.3-0.1,0.5-0.1c0.4,0,0.8-0.2,1.1-0.5c0,0,0,0,0,0
				C851.3,521.2,851.3,521.2,851.4,521.1z M848.2,520.8c-0.3-0.3-0.7-0.5-1.1-0.7c0.6-0.1,1.2-0.2,1.8-0.2c0,0.2-0.1,0.3-0.2,0.4
				c0,0-0.1,0.1-0.1,0.1C848.5,520.6,848.4,520.7,848.2,520.8z M851,519.7c0.1,0.1,0.2,0.1,0.3,0.2c0.1,0.1,0.1,0.1,0,0.2
				c0,0-0.1,0-0.1,0c-0.2-0.1-0.3,0-0.3,0.2c0,0.1-0.1,0.3-0.1,0.4c0,0.2-0.2,0.4-0.4,0.5c-0.2,0.2-0.4,0.2-0.7,0.2
				c-0.1,0-0.2,0-0.4-0.1c-0.1-0.1-0.1-0.1-0.1-0.2c0-0.2,0.1-0.3,0.1-0.5c0-0.1,0-0.3,0.1-0.4c0-0.1,0-0.2,0.1-0.2
				c0,0,0-0.1,0.1-0.1c0-0.1,0.1-0.1,0.1-0.2C850.1,519.5,850.5,519.4,851,519.7z M849.5,518.7L849.5,518.7l0.1,0l0,0
				c-0.1,0-0.2,0-0.2,0.1c0,0,0,0,0,0C849.4,518.7,849.5,518.7,849.5,518.7z M845.6,520c0.2-0.1,0.4-0.1,0.7-0.1
				c0.8-0.2,1.6-0.3,2.4-0.5c0.3-0.1,0.5-0.1,0.8-0.1c0,0,0.1,0,0.1,0c-0.1,0.2-0.3,0.3-0.4,0.5c-0.5,0-1,0.1-1.5,0.1
				c-0.3,0-0.6,0.1-0.9,0.1c0,0,0,0,0,0c-0.4-0.1-0.7,0.1-1.1,0.2c0,0,0,0-0.1,0c0,0,0,0,0,0C845.4,520,845.5,520,845.6,520z
				 M845.4,520.8c-0.1-0.1-0.1-0.1-0.2-0.2c0-0.1,0.1-0.2,0.2-0.1c0,0,0,0,0,0c0.1-0.2,0.3-0.2,0.4-0.2c0.1,0,0.2,0,0.3,0
				c0.1,0,0.3-0.1,0.3,0.1c0,0,0.1,0,0.1,0c0,0,0.1,0,0.1,0c0.4,0.2,0.4,0.2,0.3,0.5c0,0.1,0,0.2,0,0.2c0,0.3-0.4,0.7-0.7,0.7
				c-0.4,0.1-0.7,0.1-1,0c0,0-0.1,0-0.1,0c-0.2,0-0.3-0.1-0.4-0.3C845,521.3,845,521,845.4,520.8z M844.5,521.1
				C844.5,521.1,844.5,521.1,844.5,521.1C844.5,521.2,844.5,521.2,844.5,521.1C844.5,521.2,844.5,521.2,844.5,521.1
				C844.5,521.2,844.5,521.1,844.5,521.1z M843.2,529.2c0-0.5,0.1-1,0.2-1.5c0.1-0.4,0.1-0.8,0.2-1.2c0.1-0.4,0.1-0.8,0.2-1.2
				c0.1-0.3,0.1-0.7,0.1-1c0-0.3,0-0.7,0-1c0-0.2,0-0.4,0.1-0.6c0-0.3,0.1-0.5,0.2-0.8c0-0.1,0.1-0.2,0.1-0.3c0-0.1,0.1-0.1,0.1-0.2
				c0,0.1,0,0.1,0,0.1c-0.1,0.4,0.1,0.6,0.4,0.6c0.3,0.1,0.6,0.2,0.9,0.2c0.1,0,0.2,0,0.3,0c0.3,0,0.6-0.1,0.9-0.1
				c0.1,0,0.2-0.1,0.3-0.2c0.1-0.2,0.3-0.4,0.4-0.6c0-0.1,0.1-0.1,0.1-0.2c-0.1-0.1-0.2-0.1-0.1-0.3c0-0.1-0.1-0.2-0.1-0.3
				c0.3,0.1,0.4,0.3,0.4,0.5c0,0,0,0.1,0,0.1c-0.1,0.3-0.3,0.6-0.5,0.9c-0.1,0.2-0.2,0.4-0.3,0.7c-0.1,0.2-0.1,0.5-0.1,0.7
				c0,0.1,0,0.1,0,0.2c0.1,0.2,0.1,0.3,0.1,0.5c0,0.5,0,1,0,1.5c0,0.2,0,0.3,0,0.5c0,0.1,0,0.3,0,0.4c0,0.3,0.1,0.5,0.1,0.8
				c0,0.1,0,0.3,0,0.4c0,0.1,0,0.1,0,0.2c0.1,0.4,0.1,0.7,0.1,1.1c0,0.2,0,0.3,0,0.4c0,0.1,0,0.2,0.1,0.3c0.1,0,0.2,0.1,0.3,0.1
				c0.1,0,0.2,0,0.2-0.2c0-0.1,0.1-0.2,0.2-0.1c0.1,0,0.1,0,0.2,0.1c-0.1,0.2-0.2,0.4-0.3,0.6c-0.1,0.1-0.7,1.2-1.2,1.3
				c-0.4,0.1-0.9,0.2-1.3,0.2c-0.4,0-0.7-0.1-1.1-0.1c-0.1,0-0.1-0.1-0.2-0.1c0,0,0-0.1,0-0.1c0.3,0,0.6,0.1,0.9,0.1
				c0.3,0,0.5,0,0.8,0c0.2,0,0.3-0.1,0.5-0.2v-0.3c0,0,0.2-0.1,0.2-0.1c0.2-0.1,0-0.1,0-0.1c0,0,0.2-0.3,0-0.2
				c-0.1,0-1.1,0.2-1.4,0.2c-0.3,0-0.5,0.1-0.7,0.3c0,0,0,0,0,0c-0.1,0-0.3,0-0.4-0.1c0,0-0.1-0.1-0.1-0.1c-0.1-0.3-0.3-0.6-0.5-0.8
				C843.2,529.9,843.2,529.6,843.2,529.2z M844.6,531.2 M845.6,531.2c0.2,0,0.3-0.1,0.5-0.1l0,0C846,531.3,845.8,531.3,845.6,531.2
				C845.6,531.3,845.6,531.3,845.6,531.2z"/>
			<path fill="#9BFBD2" d="M825.1,518.3c0,0.1,0,0.2,0.1,0.2c0.1-0.1,0.1-0.2,0.1-0.3c0-0.2,0-0.3,0.1-0.5c0.1-0.2,0.2-0.3,0.3-0.5
				c0.1-0.2,0.2-0.4,0.3-0.6c0-0.1,0.5-0.8,0.7-1c0-0.1,0.1-0.1,0.2-0.2c0,0,0,0,0,0c0,0,0.4,0.2,0.5,0.2c0.2,0,0.4,0,0.6,0.1
				c0.3,0,0.6,0.1,0.8,0.1c0.4,0,0.7-0.1,1.1-0.2c0.6-0.2,1.1-0.4,1.6-0.8c0.1-0.1,0.1-0.1,0.2,0c0.2,0.1,0.4,0.2,0.7,0.3
				c0.3-0.1,0.5-0.2,0.7-0.4c0.2-0.2,0.4-0.4,0.6-0.6c0.1-0.1,0.1-0.1,0.2-0.2c0-0.1,0.1-0.1,0.1-0.2c0.2-0.3,0.5-0.7,0.7-1
				c0.3-0.4,0.5-0.8,0.8-1.2c0.1-0.1,0.1-0.2,0.2-0.3c0.1-0.2,0.3-0.5,0.4-0.7c0.4-0.5,0.9-0.9,1.4-1.4c0.2-0.2,0.4-0.3,0.7-0.5
				c0.2-0.2,0.5-0.4,0.7-0.6c0.5-0.3,0.9-0.6,1.4-0.9c0.5-0.3,1.5-0.7,1.5-0.8c0.5-0.3,1-0.6,1.6-0.8c-0.1,0-0.3,0-0.4,0
				c-0.4,0.1-1.2,0.4-1.2,0.4c-0.1,0.1-0.2,0.2-0.2,0.2c-0.1,0.1-0.2,0.1-0.3,0.1c0.1-0.1,0.2-0.1,0.3-0.2c0,0,0.1-0.1,0.2-0.1
				c0,0-0.1-0.1-0.1-0.1c-0.3,0-0.5,0-0.7,0.1c-0.4,0.2-0.7,0.5-1.1,0.6c-0.2,0.1-0.4,0.2-0.6,0.4c-0.3,0.2-0.6,0.5-1,0.7
				c-0.1,0.1-1.7,1.3-2.1,1.8c-0.4,0.4-0.6,0.8-0.9,1.3c-0.2,0.3-0.3,0.5-0.5,0.8c-0.1,0.1-0.8,1.4-1.1,1.9
				c-0.2,0.3-0.3,0.6-0.6,0.8c-0.1,0.1-0.2,0.1-0.3,0.2c-0.1,0.1-0.2,0.1-0.3,0c-0.1-0.1-0.3-0.1-0.4,0c-0.1,0-0.1-0.1-0.2-0.1
				c-0.2-0.1-0.4,0-0.5,0.1c-0.1,0.1-0.1,0.1-0.3,0.2c-0.1,0-0.3,0.1-0.4,0.2c-0.1,0.1-0.1,0.2-0.2,0.2c-0.3,0.1-0.6,0.2-1,0.3
				c-0.3,0.1-0.7,0.1-1,0.1c-0.4,0-0.8,0-1.2-0.3c-0.2-0.1-0.4-0.1-0.6-0.1c-0.1,0-0.3,0.2-0.4,0.2c-0.2,0.1-0.3,0.2-0.4,0.5
				c-0.1,0.3-0.3,0.4-0.4,0.7c-0.1,0.2-0.2,0.5-0.3,0.7c-0.1,0.1-0.1,0.3-0.1,0.4C825.1,517.7,825.1,518,825.1,518.3z"/>
			<path fill="#9BFBD2" d="M839,524.9c0.1-0.1,0.2-0.2,0.4-0.2c-0.2-0.2-0.5-0.1-0.7-0.3c0.1,0,0.2,0,0.3,0c0.4,0,0.7,0.1,1.1,0.1
				c0.2,0,0.5,0,0.7,0c0.1,0,0.2,0,0.2-0.1c0,0,0.1,0,0.1,0c0.4,0,0.8,0,1.2,0c0.1,0,0.1,0,0.2,0c0,0,0.1,0,0.1,0c0.2,0,0.3,0,0.5,0
				c0.1,0,0.1,0,0.1,0.1c0,0,0,0.1-0.1,0.1c-0.2,0.2-0.4,0.2-0.7,0.3c-0.2,0-0.3,0-0.5,0c-0.3,0-0.6,0.1-0.9,0.1c-0.3,0-0.7,0-1,0
				c-0.3,0-0.5-0.1-0.7-0.2c-0.1,0-0.2,0-0.2,0C839.1,524.9,839.1,524.9,839,524.9z M841,524.7c0.2,0,0.4,0,0.7-0.1
				C841.4,524.5,841.2,524.6,841,524.7z M840.1,524.7C840.1,524.7,840.1,524.7,840.1,524.7c0,0-0.1,0-0.1,0c0,0,0,0,0,0
				C840,524.7,840.1,524.7,840.1,524.7z"/>
			<path fill="#9BFBD2" d="M838.2,538.6c0.1,0,0.2,0,0.4,0c-0.1,0.1-0.2,0-0.3,0.1c-0.4,0.1,0.1,0.2,0.2,0.1c0.1,0,1.6-0.1,1.8-0.1
				c0.6,0.1,0.1-0.1-0.1-0.1c-0.1,0-0.8,0-1,0c-0.1,0-0.1,0,0-0.1c0.2,0,0.4,0,0.6,0c0,0,0.4,0,0.4,0c0.1,0,0.2,0,0.2,0
				c0.2,0,0.3,0.1,0.5,0.1c0.1,0,0.2,0.1,0.3,0c0-0.1-0.1-0.1-0.1-0.1c0,0-0.1-0.1-0.1-0.1c-0.1,0-0.1,0-0.2,0c0,0-0.1,0-0.1,0
				c0,0,0,0,0,0c0.1,0,0.3,0,0.4,0.1c0-0.1-0.1-0.2-0.2-0.2c-0.2,0-0.4-0.1-0.6-0.1c-0.2,0-0.4,0-0.6,0c-0.1,0-0.2,0-0.3,0
				c-0.5,0-0.9,0.1-1.4,0.2c-0.1,0-0.2,0.1-0.2,0.1C838,538.6,838.1,538.6,838.2,538.6z"/>
			<path fill="#9BFBD2" d="M855.6,525c0,0.1-0.2,0.2-0.2,0.2c-0.1,0.1-0.2,0.1-0.3,0.2c0,0.1,0.1,0.1,0.1,0.2
				c-0.5,0.4-1.8,0.8-2.2,0.7c0,0,0,0,0.1,0c-0.1,0-0.1,0-0.1,0c0,0,0.1-0.1,0.1-0.1c-0.2,0-0.1-0.2-0.2-0.3c0,0,0.1,0,0.1,0
				c0.1,0,0.2,0,0.3,0c0.2,0,0.3,0,0.4-0.1c0.3-0.1,0.5-0.2,0.8-0.4c0.2-0.1,0.5-0.2,0.7-0.3C855.4,525,855.4,524.9,855.6,525z"/>
			<path fill="#9BFBD2" d="M853.9,521.2c0.1,0,0.2,0,0.2,0c0,0.2,0.2,0.2,0.3,0.2c-0.1,0-0.1,0.1-0.2,0.1c-0.3,0-0.6,0.1-0.9,0.2
				c0,0-0.1,0-0.1,0.1c-0.1,0.1-0.2,0.1-0.3,0.1c0,0-0.1,0-0.1,0c-0.1,0.1-0.3,0.1-0.5,0c0-0.1,0.1-0.1,0.2-0.2
				c0.1-0.1,0.2-0.1,0.3-0.2c0.1,0,0.2-0.1,0.3-0.1C853.2,521.4,853.7,521.2,853.9,521.2z"/>
			<path fill="#9BFBD2" d="M846.2,523.6c0,0.1,0.1,0.1,0.1,0.2c-0.2,0-0.4,0.1-0.6,0.1c-0.1,0-0.2,0.1-0.3,0.1
				c-0.2,0-0.3,0.1-0.5,0.1c-0.1,0-0.2-0.1-0.3-0.2c0-0.1-0.1-0.2-0.1-0.3c-0.1,0-0.3,0.1-0.5,0.1c0.1-0.2,0.2-0.3,0.4-0.4
				c0.3-0.1,0.7-0.3,1.1-0.3c0.2,0,0.4-0.1,0.6-0.1c0.2,0,0.4,0,0.5,0c0.2,0,0.3,0.2,0.3,0.4c0,0.1-0.1,0.2-0.2,0.1
				C846.5,523.4,846.4,523.5,846.2,523.6z"/>
			<path fill="#9BFBD2" d="M850.7,522.1c0,0,0,0.1,0,0.1c0.1,0,0.3,0.1,0.4,0.1c0,0.1-0.1,0.1-0.1,0.2c-0.8,0-1.5,0.1-2.2,0.3
				c0,0,0,0,0-0.1c-0.2,0.1-0.4,0.1-0.5,0.3c-0.1,0.1-0.1,0-0.2-0.1c0-0.1,0-0.2,0.1-0.2c0.1-0.1,0.2-0.2,0.3-0.3
				c0.4-0.1,0.8-0.3,1.3-0.4c0.2,0,0.3-0.1,0.5-0.1c0,0,0.1,0,0.1,0C850.5,522,850.6,522.1,850.7,522.1z M850.6,522.2
				C850.6,522.2,850.6,522.2,850.6,522.2c-0.1,0-0.2,0-0.3,0.1C850.4,522.2,850.5,522.2,850.6,522.2z"/>
			<path fill="#9BFBD2" d="M850.2,522.8c-0.3,0.1-0.6,0.3-0.9,0.4c-0.1,0-0.2,0.1-0.3,0.1c0,0,0,0,0,0c-0.2,0-0.4,0.1-0.6,0.2
				c-0.1,0-0.2,0-0.3,0c-0.1-0.1-0.1-0.2,0-0.2c0.1-0.1,0.2-0.1,0.3-0.1c0.5-0.2,1-0.2,1.5-0.4C849.9,522.7,850.1,522.7,850.2,522.8
				z"/>
		</g>
	</g>
</g>
<g id="Layer_6" display="none">
	<g display="inline">
		<rect x="173.9" y="-590.3" fill="none" width="824.4" height="333"/>
		<path d="M195.7-540.6h30.4V-346h71.4v34.3H195.7V-540.6z"/>
		<path d="M380.5-540.6H411V-409c0,49.7,13.9,66.2,34.6,66.2c21,0,35.7-16.5,35.7-66.2v-131.6h29.1v128.5
			c0,75.3-24.9,104.7-64.8,104.7c-39.6,0-65.1-29.4-65.1-104.7V-540.6z"/>
		<path d="M686.8-373.7h-57.7l-13.4,62h-31l55.9-228.9h35.7l55.9,228.9h-32L686.8-373.7z M680-405.5l-6-28
			c-5.5-24.2-10.5-50.4-15.5-75.6h-1.1c-4.7,25.6-9.7,51.5-15.2,75.6l-6,28H680z"/>
		<path d="M807.3-540.6h31.2l53.5,128.8l17.6,48.7h1c-1.3-23.5-3.9-52.5-3.9-78.1v-99.4h29.1v228.9h-31.2l-53.5-128.8l-17.6-48.7h-1
			c1.3,24.2,3.9,51.8,3.9,77.4v100.1h-29.1V-540.6z"/>
	</g>
	<g display="inline">
		<rect x="173.9" y="-171.2" fill="none" width="824.4" height="333"/>
		<path d="M230.4-87.3h-49.6v-34.3h129.7v34.3h-49.6v194.6h-30.4V-87.3z"/>
		<path d="M486.6,107.4l-37-89.6h-26.3v89.6h-30.4v-228.9h58c35.7,0,63,16.8,63,67.9c0,35-13.6,56-34.1,65.5l40.9,95.6H486.6z
			 M423.3-14.4h24.4c23.4,0,36.2-13.3,36.2-39.2c0-26.3-12.9-35.4-36.2-35.4h-24.4V-14.4z"/>
		<path d="M683.7,45.4h-57.7l-13.4,62h-31l55.9-228.9h35.7l55.9,228.9h-32L683.7,45.4z M676.9,13.6l-6-28
			c-5.5-24.2-10.5-50.4-15.5-75.6h-1.1c-4.7,25.6-9.7,51.5-15.2,75.6l-6,28H676.9z"/>
		<path d="M804.2-121.6h31.2L889,7.3l17.6,48.7h1c-1.3-23.5-3.9-52.5-3.9-78.1v-99.4h29.1v228.9h-31.2L848-21.5l-17.6-48.7h-1
			c1.3,24.2,3.9,51.8,3.9,77.4v100.1h-29.1V-121.6z"/>
	</g>
</g>
<g id="Luan_Tran__x28_B_x29_">
	<path fill="#66FFCC" d="M848.9-447.8"/>
	<path fill="#66FFCC" d="M812.1,550.2"/>
	<g>
		<path fill="#FFFFFF" d="M1046.4,344c-1.8,0.3-2.2-14.3-2.1-17.4c0.2-11,0-19.7,0.4-30.7c0.3-9.1,0.3-47.2,0.7-56.3
			c0.3-7,1.4-36.5,1.5-58.4c0.1-20.5-1.6-41.4-1.4-61.9c0-8.8,0.1-17.6,0.5-26.4c0.2-5.6,1.2-11.2,1.6-16.8c0.2-2.2,0.8-3.9,2.9-4.9
			c0.4-0.2,0.6-1,0.8-1.5c0.7-1.7,1.1-3.5,3.2-4.2c1.7-0.6,1.8-0.7,2.5,0.7c1-0.1,2.7-0.1,2.7,0.1c0.7,0.4,1.5,0.8,2.1,1.3
			c0.5,0.4,0.7,0.9,1.2,1.5c1.4-0.8,2.6-0.6,3.6,0.8c0.2,0.3,0.8,0.3,1.3,0.3c0.5,0.1,0.9,0,1.4,0.2c1.7,0.6,2.7,4.3,6.3,3.2
			c13.3-4.1,26.6-5,40.2-5.2c11.9-0.1,37.1,5.4,58.3,15c18.7,10.5,20.5,10.3,26.4,33.3c3.3,16.6,0.4,31.8-4.7,45.2
			c-15.7,22.8-19.8,23-30.1,30.9c-20.7,15.5-42.1,24.2-63.2,29.9c0.6,0.7,32.9,28.8,48.3,47.6c12.7,15.6,32.7,38.2,44.5,54.5
			c5,6.9,16.8,24.6,16.4,26.9c-1.1-1,2.7,8.7,1.9,9.6c-0.5,0.5-1.7-0.4-2.3-0.1c-0.4,0.3-0.2,1.9-0.6,2.2c-0.3,0.3-3-0.8-3.8-0.4
			c-0.3,0.1-0.1,2-0.2,3c-0.1,1.2-0.4,1.2-0.7,2.3c-0.3,0.5,0.9,2.4,0.6,2.4c-0.7,0-2.1-0.4-2.6-0.9c-1-1-3.1-1.5-4.1-2.5
			c-2.9-1.1,0,0-4-0.7s-3.4-1.6-5.4-2c-1.2-0.2-2.3-1-3.4-1.5c-0.6-0.3-1.2-0.7-1.9-1c-0.9-0.4-1.7-0.8-2.6-1.1
			c-0.8-0.2-1.6-0.2-2.4-0.4c-1.1-0.3-9.8-9.8-13.2-14.3c-7.4-9.9-15.8-19.7-23.1-29.7c-10.6-14.4-22.1-27.5-33-41.7
			c-8.4-10.9-31.5-36.2-32.2-36.8c-0.1,1.1-1.3,31.2-2.1,43.9c-0.9,14.1-1.2,44.7-1.3,46.7c-0.3,8.9-0.2,16.3-0.6,25.2
			c-0.1,2.2-1.4,4.5-1.9,6.6c-0.4,2-0.5,2.3-2.1,3.7c0.1,3.2-2,2.6-2.8,3.7c-1.3,1.8-1.8,4.4-2.8,7.5c-0.8-2.9-1.3-4.4-1.8-6.3
			c-1.1-3.9-1.2,0.9-1.6-0.5c-0.7-2.2-0.4-1.8-1.3-3.1c-1.6-2.2,0.4,2.6,1.3,5.1c0.7,2.2-1.3-2-3.6-2.6c-2-0.6-4.2-4.2-4.2-4.2
			s-4.5-3.5-5.2-6.6C1046.9,349.7,1046.4,345.1,1046.4,344z M1076,144c0,9.3-1.1,47.2,0.8,46.7c6.9-1.8,22.2-2.3,29.1-4.3
			c17-5,32.7-12.6,47-23c5.1-3.7,9.7-7.7,13-13c4.2-6.8,8.1-17,6.8-24.5c-2-12-5.2-12.9-14.6-20.8c-3.3-2.7-22-8.4-26.2-8.6
			c-12.8-0.7-17.2-1.1-29.9,0.8c-7.3,1.1-26.6,2.8-26.4,4.1C1076,103.3,1076.2,125.6,1076,144z"/>
	</g>
	<g>
		<path fill="#FFFFFF" d="M930.1,367.8c-3-11.9-1.7-2.7-2.7-4.6c-0.5-0.9-1.5-2.1-2.1-2.7c-0.5-0.5-1.1-1.6-1.3-1.4
			c-0.1,0.1-2.5-3-3.6-5.1c-1.8-3.1-3.8-4.6-5.2-7.9c-2.6-5.9-3-16.8-4.3-23.2c-3.2-14.9-4.1-22.8-5.1-38c-0.9-13-1.7-30.4-2.1-43.5
			c-0.4-11.4-0.4-50.5-0.4-59.9c0-20.8-2.4-42-2.3-62.7c0-2.6-0.1-5.3-0.2-7.9c-0.1-2.3-0.3-2.4-2.6-2.4c-8.9,0.1-17.8,0.5-26.6,0.2
			c-13.2-0.5-26.4-1.4-39.6-2.2c-6.2-0.4-12.2-1.8-17.9-4.2c-0.5-0.2-0.9-0.8-1.4-1.2c-0.2-0.2-0.4-0.4-0.7-0.5
			c-2.4-0.9-4.8-1.6-7.2-2.6c-1.6-0.7-3.1-1.8-4.5-2.9c-0.8-0.6-0.6-1.2,0.3-1.6c1-0.4,2-0.8,3-1.3c-0.4-0.9-0.4-0.9-1.5-2.1
			c-0.7-0.7,1.5-2.2,2.4-2.8c2.5-1.6,5.7-1.6,8.6-2c8.3-1,17.6-1.4,25.8-2.3c10.7-1.2,22.3-2.3,33-3.4c14.1-1.5,26.9-2.7,41.1-4.1
			c14.1-1.5,28.7-3,42.8-4.3c10.3-1,20.2-2.2,30.5-3c2.4-0.2,12.8-0.5,15.6,0.2c0.2,0,1.2,1,1.6,1.2c-0.7,0.5-3.8,0.3-4.7,0.9
			c2,0.7,5.6,1.3,7.4,1.8c1.2,0.3,2.3,0.5,3.1,1.7c0.2,0.3-4.1,1,1.1,0.6c5.2-0.4,3.9,0.8,5.8,1.5c1.1,0.4,1.8,1.7,3.2,1.7
			c1.5,0,3,0,4.6,0.1c1.8,0.1,3.5,0.3,5.3,0.4c0.5,0,2.8,1.2,4.6,2.6c0.2,0.2-2.6,1.2-2.6,1.5c-0.3,1.3,0.2,2.2,0.1,3.5
			c-0.1,1.4-0.1,2.7-1.9,3.1c-0.3,0.1-0.6,0.8-0.6,1c0.3,1.1-0.3,1.5-1.2,1.9c-1.7,1-3.4,2.1-5.1,3.1c-0.2,0.2-0.6,0.7-0.5,0.8
			c1.3,1.8-0.7,2.4-1.2,3.4c-0.2,0.5-0.5,0.9-0.6,1.4c-0.4,1.8-1.1,0.7-2.7,2.2c-8.1,0.8-15.8,0-23.7,0.3c-9.8,0.3-19.6,1-29.3,1.5
			c-9.5,0.6-19.1,1.2-28.6,1.8c-0.6,0-1.2,0.1-1.9,0.1c-2.4,0.1-2.5,0.3-2.1,2.7c1.3,8.9,0.8,18.4,1.6,27.3
			c1,11.6,1.7,24.1,2.1,35.7c0.7,22.6,0.7,42.4,1.3,65c0.4,13.8,1.2,34.7,1.3,48.5c0.1,16.9,0.1,28.8-0.4,45.8
			c-0.2,5.4-0.6,9.7-1.2,14.9c-0.3,2.3-1.7,4-2.4,6.3c-0.7,2.2,0.2,5.8-0.7,7.9C932.2,363.1,933.1,379.7,930.1,367.8z"/>
	</g>
	<g>
		<path fill="#FFFFFF" d="M97.6,372.1c-0.2-0.6-0.2,0.4,0.3,1.2c0.8,1.4-1.5-0.5-2-0.8c-0.9-0.6-0.9-0.2-1.5-0.6
			c-0.8-0.1-3.6-2.2-4.1-2.9c-0.4-0.5-1.5-2.2-2-2.5c-1.5-2-2.1-4.2-3.4-7.4c-1.1-2.6-2.9-3.6-4.6-6.6c-0.4-1.6-1.5-3.3-2.6-4.2
			c-2.5-2.6-1.9-2.4-1.4-2.9c0.9-0.8-3,0.2-1.3-0.7c1-0.7,0.3-0.4-1-0.6c-1.4-0.2,0.9-1.2,1.1-1.3c0.9-0.6,0.2-0.5,1.6-1.7
			c1.3-0.7,2.3-0.5,2.1-2.4c-0.5-4.2-1.1-8.5-1.4-12.7c-0.7-8.3-2.6-44.5-2.7-54.3c-0.1-9,0.1-49.5,0.2-60.8
			c0.1-13.9,1.3-74.3,1.8-90.6c0.3-10.3,1.9-41,2.4-46c0.2-1.8,0.7-3.5,1.1-5.2c0.1-0.5,0.3-1.1,0.5-1.3c1.8-1.3,2-3.9,3-5.8
			c0.4-0.8,1.3-1.3,2.1-1.7c0.2-0.1,0.7,0.8,1.2,1.3c0.2-0.1,0.5-0.4,1-0.7c0.2,0.3,0.3,0.6,0.5,1c0.2-0.3,0.3-0.6,0.4-0.7
			c0.8,1,1.6,2,2.5,3.1c0.9-0.6,1.8-0.2,2.6,1c0.7,1,3.5,0.9,4.2-0.1c0.5,0.9,1.2,1.7,1.6,2.7c1.7,3.8,2.3,8,2.8,12.3
			c2.6,20.9,3.8,41.9,4.1,63c0.4,22.9,0.8,45.8,1,68.7c0.2,17.1-0.1,34.3-0.1,51.4c0.1,19.1,1.2,59.4,1.2,60.9
			c0,1.3,1.5,2.7,2.5,2.6c7.4-0.7,13-1.3,20.4-1.9c5.6-0.4,26.7-1.5,31.6-1.4c4.2,0.1,20.4,3,24.3,4.1c1.1,0.3,11.5,4,12.5,4.5
			c3.3,2.6,2.1,2,4.7,3.2c0.6,0,2.7,1.5,3.3,1.5c2.4,0.1,2.6,3.5,3.7,3.8c0.1,0.3,0.1,0.7,0,0.9c-1.2,2.1-0.7,4.6-1.1,6.9
			c-0.2,1.1-0.4,1.9-1.2,2.3c-0.4,0.2-0.8,0.5-1.2,0.8c-1.3,0.8-2.3,1.9-3,3.7c-2.2,5.8-6.1,7.3-10.7,8.7
			c-6.2,1.9-12.2,1.2-18.5,1.4c-3.2,0.1-14.7,0.3-19.2,0.5c-4.5,0.1-13.2-0.1-17.7-0.2c-6.8-0.3-13.1,0.4-19.8-0.2
			c-3.4-0.3-8-1.2-11.4-1.8c-2.2,2.2-3,4.8-3.9,6.2c-0.7,1-1.2,2.3-1.8,3.5c-0.5,0.9,0-1.9-0.2-1.6s-0.3,2.5-1,3.2
			c-0.3,0.2-2-0.1-2.3-0.4C98.4,373.3,98,372.8,97.6,372.1z"/>
	</g>
	<g>
		<path fill="#FFFFFF" d="M221.7,72.8c0.6-0.2,1.5,4.7,2,4.5c0.2,0.3,0.4,0.5,0.8,1c0.1-0.2,0.5-4.4,0.7-7.1c0.1-0.8,1-1,1.4-0.3
			c1.5,3.2,4.1-1.4,4.8-0.6c0.8,1,4.1,3.7,5.1,2.8c0.5,1,6.4,11.1,6.4,15.7c-0.1,26.2-3.5,62-3.3,88.2c0.1,24.7,1.1,47.5,4.2,73.2
			c3.7,24,4.4,25.5,10.4,42.5c3.1,8.7,6.2,22.3,19,29.9c13,9.3,29,8.5,39.4-3.7c4.8-5.6,11.5-12.4,15.3-33.6
			c4.9-27.1,7.3-69.4,7.7-84.5c2.2-35.2,0.4-39.2,0.4-60.8c0.6-5.7-0.3-32.3-0.2-37.6c0.1-6.7-0.7-13.4-2-20
			c-0.2-1.2,0.5-6.7,0.5-8.2c0-2.5,0.6-3.3,3.3-4.2c0.4-0.1,1.4-2.3,1.5-3c0.3-1.5,1.7-1.8,3-2.2c0.2-0.1,0.7-0.1,0.7,0
			c0.9,1.3,4.4,1,4.5,1.1c1.6,2.2,4.6,2.7,6.9,3.9c1,0.5,2.1,0.9,3.2,1.1c4.5,0.5,5,0.7,8.2,3.8c1.1,1,2.1,2.1,3.4,3
			c4.2,3,2.8,43,2.6,47.8c-0.5,10.8,0.7,56.2-1,73.2c-0.6,6.2-0.5,36.4-3.4,59.7c-3,24.3-3.9,28.6-10.7,52.5
			c-4.2,14.9-13.1,29.9-20.8,39.4c-8.3,10.2-20.1,13.8-21.2,14.5c-5.2,3.5-25.5,5.9-29.3,4.7c-2.7-0.9-11.3-1.1-18.2-3.5
			c-7.9-2.7-14.3-7.5-19.8-11.2c-10.5-6.8-22.3-36.5-25.5-44.9c-7.9-20.5-8.6-35.4-12.9-56.6c-2.8-14.2-7-86-5.2-107.4
			c1-11.9,2-23.8,3.5-35.6c0.9-6.6,2.8-13,4.3-19.5c0.6-2.4,1.2-4.9,2.1-7.3c0.3-0.8,2.9-16.4,3.4-3.8c0.1,1.3,1.2-14.4,2.8-15
			C221.3,64.3,221.3,71.3,221.7,72.8z"/>
	</g>
	<g>
		<path fill="#FFFFFF" d="M574.1,368.3c-1.3,0.1-5.4-5.1-6-5.8c-1.8-2.3-4.4-16.7-5.6-19.3c-1.4-3.1-1.9-6.5-2.3-9.9
			c-1.9-16.1-1.8-32.3-1.8-48.4c-0.1-21.8,0.1-43.6,0.1-65.4c0-11.9,0.1-23.8,0-35.7c-0.1-20.2-0.1-40.4-0.3-60.7
			c-0.1-9.3-0.8-18.5-0.8-27.8c0-4.7,0.5-9.5,1.1-14.2c0.2-1.5-2-2.2-1.1-3.6c0.2-0.3,2.1-7.1,2.3-7.4c1.3-2,4.5-4.6,6.8-3.3
			c1.3,0.8,3.4-2,5.1-2.4c1.4-0.3,0,2,1.4,2.4c1.1,0.4,4.4-0.5,5,0c1.6,0,4.3,3.8,4.7,4.2c1,1,2.7,2.7,3.8,2.8c0.7,0,2.3,3.6,3,2.8
			c0,0,0.4,2,0.4,2.3c0.8,4.1,5.1,8.1,5.8,14.2c7.2,10,22.1,41.2,24.9,47.3c5,10.9,13.9,26,18.7,37c6.5,14.5,11.1,25.6,17.9,39.9
			c7.7,16.2,13.2,32.2,21.1,48.3c0.7,1.4,1.5,2.8,2.3,4.2c0.2,0.4,5,15.4,5.2,15.4c0-1.4-1.6-39.4-2.1-53.6
			c-0.4-13.8-1.2-29.3-1.5-43.1c-0.3-13.5-0.1-26.2-0.3-39.7c-0.2-10.8-0.5-27-0.3-37.8c0.2-10.8-2.5-23.2-1.9-34
			c0.1-1.5,0.4-3,0.6-4.5c0.3-1.7,1.2-3,2.8-4c0.6-0.4,1-1.1,1.4-1.7c0.4-0.6,0.7-1.3,0.9-2c0.5-1.7,2.3-2.1,3.8-2.7
			c0.2-0.1,0.7-0.1,0.8,0c1.2,1.2,2.9,0.4,4.4,0.6c0,1.1,2.5,2.5,2.9,2.9c1.3-0.7,2.3,0,3.5,0.6c1.4,0.7,2.9,1.3,4.8,0.7
			c0.8-0.2,2.3,0.4,3,1c0.9,0.8,1.4,2,1.8,3.2c0.5,1.3,5.2,8.5,5.4,9.9c1.5,11,0.7,2,2,31.2c1.4,30.4-0.8,37,0,57.5
			c0.9,23.6,1.3,19.5,1.7,34.5c0.3,10.7,0.5,21.5,0.9,32.2c0.7,15.4,1.6,30.8,2.3,46.2c0.7,17.4,2,34.8,1.7,52.2
			c0,1.5,0.1,3.1,0.3,4.6c0.4,3.1,0.6,15.3,1.2,16.6c0.7,1.5,1.1,3,0.4,4.7c-0.5,1.3-0.5,2.7-0.8,4c-0.1,0.6-0.3,1.1-1.1,0.7
			c-0.1,0-0.2-0.1-0.3-0.1c-0.6,0-4,2.7-4.2,3.2c-0.2,0.6-0.5,1.2-0.8,1.8c-0.3,0.5-0.7,0.9-0.9,1.4c-0.6,1.3-1.8,1.5-2.9,0.5
			c-0.9-0.9-1.7-1.9-2.6-2.8c-0.7-0.7-0.8-0.7-2.1-0.2c0.1,0.2,0.2,0.3,0.3,0.5c0.1,0.1,0.1,0.3,0.2,0.4c-2.4,0.6-3.3,0.3-3.1-0.8
			c-2.5-1.1-4.9-2.2-7.4-3.1c-1.7-0.6-3.5-1-5.2-1.5c-3.9-1.1-7.3-3-9.5-5.9c-2.6-3.4-5-7-7-10.6c-4-7.2-7.7-14.6-11.4-21.9
			c-10.4-20.2-14-36.8-24.2-57c-5.6-11.1-13.7-30.1-19.2-41.3c-7.9-16-14.8-25.1-21.6-41.5c-0.2-0.6-9.7-17.8-10-18.4
			c-0.1,0,0.3,14.8,0.3,15.5c0.1,8.2,0.8,15.7,0.6,24c-0.2,16.7-0.8,35.4,0.6,52c0.8,9.5,0.2,36.9,1.3,46.4
			c1.5,13.9,2.6,62.8,2.3,62.5c-1,0.3-3.5-10.8-4.3-10.5c-0.2-1.1,0.7,6.7-0.9,7c-0.8,0.1-0.8,3.8-1.7,3.5c-1.2-0.4-2.3-2.6-2.8-3.4
			c-0.5-0.8-3,2.4-4.5,2.7c-0.7,0.2-1.7,0.3-2.6,0C580.9,367.6,575.5,368.2,574.1,368.3z"/>
	</g>
	<g>
		<path fill="#FFFFFF" d="M386,362.7c-3.9,1.6-6.6-1.9-10.4,1.1c-2.2,1.7,2.8-7.8-0.7-3.9c-4.1,4.5,0.1,0.1-0.9-5.1
			c-0.9-5.2,2.1-27.6,2.7-30.5c1.6-7.1,10.9-36.4,13.6-46.2c2.2-8,11.9-44.4,14.6-55.2c2.3-9,12-45.5,14.2-55.5
			c3.9-17.9,4.6-23,9.7-40.6c1.6-5.6,11.6-45.5,15.2-50.4c1.2-1.7,2.4-3.3,3.7-5c1.1-1.4,3.1-1.7,4.3-0.6c1.2-0.4,2.3-0.7,3.3,0.7
			c0.4,0.6,1.6,0.8,2.5,1.2c1.1,0.5,2.3,1,3.5,1.3c0.7,0.2,1.5-0.2,2.1,0c0.9,0.2,1.9,0.4,2.7,0.9c3.4,2.3,10.6,23.9,13,31.1
			c2.8,8.1,6.3,22.7,9.1,32.8c4.3,13.4,4.3,16.3,8.5,31.4c3.5,15.2,8.3,31.3,11.8,46.6c2.7,11.8,6.1,23.3,8.9,35
			c4.1,17,6.5,26.9,10.8,43.9c2.1,8.3,5.9,23.7,8.3,31.9c2.9,9.6,6.1,19.2,9.4,28.8c1.6,4.5,0.5,8.8-0.6,13.2
			c-0.1,0.2-0.3,0.4-0.5,0.7c-0.3-0.4-0.6-0.6-0.9-0.9c-0.1,0-0.2,0.1-0.3,0.1c-1,0.8-1.9,1.6-2.9,2.5c-0.4,0.3-1,0.7-1,1.1
			c0.1,2-2,3-2.5,4.7c-0.3,1-2,0.6-2.7-0.4c-0.7-1-1.5-2-2.4-2.9c-0.3-0.3-1-0.4-1.5-0.6c-0.2,0.5-0.4,0.9-0.6,1.4
			c-0.1,0.1-0.1,0.2-0.2,0.4c-1-0.1-2.5-1.1-2.4-1.3c-2.3-0.9-4.5-1.9-6.8-2.8c-1.7-0.6-3.5-1.3-5.4-1.6c-2.8-0.6-5.3-13.1-6.9-17.3
			c-4.6-11.9-8.3-25.6-11.6-37.8c-2.8-10.7-3.7-18.2-6.3-29c-2.1-8.8-3.6-17.9-5.6-26.7c-0.3-1.4-10.9-0.8-12.4-0.8
			c-11-0.4-16.8-2.2-31.8-3.7c-1.8-0.5-4.4,0-8.8-1.1c-1.3,4-3.8,9.9-5.7,16.3c-2.2,7.7-2.2,6-5.9,18.6c-3.6,12.5-5.5,21.7-8.3,32
			c-2.3,8.5-5,17-7.4,25.4C403.7,349.6,392,360.2,386,362.7z M452.9,154.7c-0.1,0-5.8,14.7-3.8,8.3c-0.2,0.6-5.9,45.2-10.7,68.8
			c-0.3,1.6,11.4,1.9,14.1,1.6c6-0.6,10.8-0.5,16.8-1.2c1.9-0.2,12.2-1.4,11.9-3.1c-0.4-1.6-1.4-8.1-1.7-9.8
			c-1.2-6.1-1.9-11.3-3.1-17.4c-1.3-6.5-4.1-16.8-5.5-23.3c-1.7-8.4-3.1-11.9-3.8-14.5C467.1,164.1,453.1,155.1,452.9,154.7z"/>
	</g>
	<path fill="#FFFFFF" d="M260.2-25.3"/>
	<g>
		<path fill="#FFFFFF" d="M1429,370.1c-1.3,0.1-5.4-5-5.9-5.7c-1.8-2.3-4.4-16.6-5.5-19.2c-1.4-3.1-1.9-6.5-2.3-9.8
			c-1.9-16-1.7-32.1-1.8-48.1c-0.1-21.7,0.1-43.4,0.1-65c0-11.8,0.1-23.6,0-35.5c-0.1-20.1-0.1-40.2-0.3-60.3
			c-0.1-9.2-0.8-18.4-0.8-27.6c0-4.7,0.5-9.5,1.1-14.1c0.2-1.5-1.9-2.2-1.1-3.6c0.2-0.3,2.1-7,2.3-7.3c1.3-2,4.5-4.6,6.8-3.3
			c1.3,0.7,3.3-2,5.1-2.4c1.4-0.3,0,2,1.4,2.4c1.1,0.4,4.4-0.5,4.9,0c1.6,0,4.3,3.8,4.7,4.2c1,1,2.7,2.7,3.8,2.7
			c0.7,0,2.3,3.6,3,2.7c0,0,0.4,2,0.4,2.3c0.8,4.1,5.1,8.1,5.7,14.1c7.2,9.9,22,40.9,24.8,47c4.9,10.9,13.8,25.9,18.6,36.8
			c6.4,14.4,11,25.4,17.8,39.7c7.6,16.1,13.1,32,20.9,48c0.7,1.4,1.5,2.8,2.3,4.1c0.2,0.4,5,15.3,5.2,15.3c0-1.4-1.6-39.1-2.1-53.3
			c-0.4-13.7-1.2-29.1-1.5-42.9c-0.3-13.4-0.1-26-0.3-39.4c-0.2-10.8-0.5-26.8-0.3-37.6c0.2-10.8-2.5-23.1-1.9-33.8
			c0.1-1.5,0.4-3,0.6-4.4c0.3-1.7,1.2-3,2.8-4c0.6-0.4,1-1.1,1.4-1.7c0.4-0.6,0.7-1.3,0.9-2c0.5-1.7,2.2-2.1,3.8-2.7
			c0.2-0.1,0.7-0.1,0.8,0c1.2,1.2,2.8,0.4,4.3,0.6c0,1.1,2.5,2.4,2.9,2.9c1.3-0.6,2.3,0,3.5,0.6c1.4,0.7,2.9,1.3,4.8,0.7
			c0.8-0.2,2.3,0.4,2.9,1c0.9,0.8,1.4,2,1.8,3.1c0.5,1.3,5.2,8.4,5.4,9.8c1.5,11,0.7,2,2,31c1.4,30.2-0.8,36.8,0,57.2
			c0.9,23.5,1.2,19.4,1.6,34.3c0.3,10.7,0.5,21.3,0.9,32c0.6,15.3,1.6,30.6,2.3,45.9c0.7,17.3,2,34.6,1.6,51.9
			c0,1.5,0.1,3.1,0.3,4.6c0.4,3.1,0.6,15.2,1.2,16.5c0.7,1.5,1,3,0.4,4.7c-0.5,1.3-0.5,2.7-0.7,4c-0.1,0.6-0.3,1-1.1,0.7
			c-0.1,0-0.2-0.1-0.3-0.1c-0.6,0-4,2.7-4.1,3.1c-0.2,0.6-0.5,1.2-0.8,1.8c-0.3,0.5-0.7,0.9-0.9,1.4c-0.6,1.3-1.8,1.5-2.9,0.5
			c-0.9-0.9-1.7-1.9-2.6-2.8c-0.7-0.7-0.8-0.7-2.1-0.2c0.1,0.2,0.2,0.3,0.3,0.5c0.1,0.1,0.1,0.3,0.2,0.4c-2.3,0.6-3.3,0.3-3-0.8
			c-2.5-1-4.9-2.1-7.3-3.1c-1.7-0.6-3.5-1-5.2-1.5c-3.9-1.1-7.2-2.9-9.5-5.9c-2.6-3.4-4.9-6.9-6.9-10.6c-4-7.2-7.6-14.5-11.4-21.8
			c-10.3-20-13.9-36.5-24.1-56.6c-5.6-11-13.6-29.9-19.1-41c-7.9-15.9-14.7-25-21.5-41.3c-0.2-0.6-9.7-17.7-10-18.3
			c-0.1,0,0.3,14.7,0.3,15.4c0.1,8.2,0.7,15.6,0.6,23.8c-0.2,16.6-0.8,35.2,0.6,51.7c0.8,9.4,0.2,36.6,1.3,46.1
			c1.5,13.8,2.6,62.4,2.3,62.2c-1,0.3-3.4-10.7-4.2-10.4c-0.2-1.1,0.7,6.7-0.8,7c-0.8,0.1-0.8,3.8-1.7,3.4c-1.2-0.4-2.3-2.6-2.8-3.4
			c-0.5-0.8-3,2.3-4.4,2.7c-0.7,0.2-1.7,0.3-2.5,0C1435.7,369.4,1430.4,370,1429,370.1z"/>
	</g>
	<g>
		<path fill="#FFFFFF" d="M1242.8,363.7c-3.8,1.8-6.7-1.5-10.2,1.7c-2.1,1.9,2.4-7.9-0.9-3.8c-3.9,4.7,0.1,0.1-1.1-5
			c-1.2-5.1,0.6-27.6,1.1-30.4c1.2-7.1,8.9-36.7,11.1-46.6c1.8-8,9.4-44.8,11.6-55.6c1.8-9.1,9.5-45.8,11.2-55.9
			c2.9-18,3.4-23,7.5-40.8c1.3-5.7,9.1-45.8,12.4-50.9c1.1-1.7,2.2-3.4,3.4-5.1c1-1.5,3-1.9,4.3-0.9c1.2-0.5,2.3-0.9,3.3,0.5
			c0.4,0.6,1.6,0.7,2.5,1c1.2,0.4,2.3,0.9,3.5,1.1c0.7,0.1,1.4-0.2,2.1-0.2c0.9,0.1,1.9,0.3,2.7,0.7c3.5,2.1,11.7,23.1,14.6,30.1
			c3.2,7.9,7.4,22.2,10.8,32c4.9,13.1,5.1,16,10.1,30.6c4.3,14.9,9.9,30.6,14.1,45.6c3.3,11.5,7.3,22.7,10.7,34.2
			c4.9,16.7,7.9,26.4,13,43c2.5,8.1,7.1,23.2,10,31.2c3.4,9.4,7,18.7,10.8,28c1.8,4.4,1,8.7,0.1,13.1c0,0.2-0.2,0.4-0.4,0.7
			c-0.3-0.3-0.6-0.6-0.9-0.9c-0.1,0-0.2,0.1-0.3,0.1c-0.9,0.9-1.8,1.7-2.7,2.6c-0.4,0.3-1,0.8-0.9,1.1c0.2,2-1.8,3.1-2.2,4.8
			c-0.3,1-1.9,0.7-2.7-0.2c-0.7-1-1.6-1.9-2.5-2.7c-0.4-0.3-1-0.4-1.5-0.6c-0.2,0.5-0.4,1-0.5,1.4c0,0.1-0.1,0.2-0.2,0.4
			c-1,0-2.6-1-2.4-1.1c-2.3-0.8-4.5-1.6-6.9-2.3c-1.8-0.5-3.6-1-5.4-1.3c-2.8-0.4-6-12.7-7.8-16.7c-5.2-11.6-9.6-24.9-13.5-36.9
			c-3.4-10.5-4.7-17.8-7.8-28.4c-2.6-8.6-4.5-17.5-7-26.2c-0.4-1.4-10.9-0.1-12.3-0.1c-11,0.2-16.7-1.2-31.7-1.8
			c-1.8-0.4-4.4,0.2-8.8-0.6c-1.1,4-3.3,10.1-4.8,16.5c-1.8,7.7-1.9,6.1-4.8,18.8s-4.4,21.8-6.6,32.2c-1.8,8.5-4.1,17.2-6,25.7
			C1259.7,349.7,1248.7,360.9,1242.8,363.7z M1298.3,153.4c-0.1,0-5,15-3.3,8.4c-0.1,0.6-3.5,45.2-7,68.9
			c-0.2,1.6,11.4,1.2,14.1,0.8c5.9-1,10.7-1.2,16.6-2.2c1.9-0.3,12.1-2.1,11.6-3.7c-0.4-1.6-1.8-8-2.2-9.6c-1.5-6-2.5-11.1-4-17.1
			c-1.7-6.4-5-16.4-6.6-22.8c-2.2-8.3-3.7-11.7-4.5-14.2C1312.9,162,1298.4,153.8,1298.3,153.4z"/>
	</g>
</g>
<g id="Subtext">
	<g>
		<g>
			<path fill="#9BFBD2" d="M932.9,522.7c0,4-1.4,7-4.1,9.2c-2.7,2.1-6.6,3.2-11.6,3.2h-4.6v15.4H908v-39.3h10.2
				C928,511.2,932.9,515.1,932.9,522.7z M912.6,531.1h4.1c4,0,7-0.7,8.8-2c1.8-1.3,2.7-3.4,2.7-6.3c0-2.6-0.9-4.5-2.6-5.8
				c-1.7-1.3-4.4-1.9-7.9-1.9h-5.1V531.1z"/>
			<path fill="#9BFBD2" d="M1000.1,550.5h-4.6V532h-20.7v18.5h-4.6v-39.3h4.6V528h20.7v-16.7h4.6V550.5z"/>
			<path fill="#9BFBD2" d="M1074.1,530.8c0,6.3-1.6,11.2-4.8,14.8c-3.2,3.6-7.6,5.4-13.3,5.4c-5.8,0-10.2-1.8-13.4-5.3
				c-3.1-3.5-4.7-8.5-4.7-15c0-6.4,1.6-11.3,4.7-14.9c3.2-3.5,7.6-5.3,13.4-5.3c5.6,0,10,1.8,13.2,5.4
				C1072.5,519.6,1074.1,524.5,1074.1,530.8z M1042.8,530.8c0,5.3,1.1,9.4,3.4,12.1c2.3,2.7,5.6,4.1,9.9,4.1c4.4,0,7.6-1.4,9.9-4.1
				s3.3-6.8,3.3-12.1c0-5.3-1.1-9.3-3.3-12c-2.2-2.7-5.5-4.1-9.8-4.1c-4.4,0-7.7,1.4-9.9,4.1
				C1043.9,521.6,1042.8,525.6,1042.8,530.8z"/>
			<path fill="#9BFBD2" d="M1124,550.5h-4.6v-35.2H1107v-4.1h29.4v4.1H1124V550.5z"/>
			<path fill="#9BFBD2" d="M1205.6,530.8c0,6.3-1.6,11.2-4.8,14.8c-3.2,3.6-7.6,5.4-13.3,5.4c-5.8,0-10.2-1.8-13.4-5.3
				c-3.1-3.5-4.7-8.5-4.7-15c0-6.4,1.6-11.3,4.7-14.9c3.2-3.5,7.6-5.3,13.4-5.3c5.6,0,10,1.8,13.2,5.4
				C1204,519.6,1205.6,524.5,1205.6,530.8z M1174.3,530.8c0,5.3,1.1,9.4,3.4,12.1c2.3,2.7,5.6,4.1,9.9,4.1c4.4,0,7.6-1.4,9.9-4.1
				c2.2-2.7,3.3-6.8,3.3-12.1c0-5.3-1.1-9.3-3.3-12c-2.2-2.7-5.5-4.1-9.8-4.1c-4.4,0-7.7,1.4-9.9,4.1S1174.3,525.6,1174.3,530.8z"/>
			<path fill="#9BFBD2" d="M1260.8,529.9h13.3V549c-2.1,0.7-4.2,1.2-6.3,1.5c-2.1,0.3-4.6,0.5-7.5,0.5c-5.9,0-10.6-1.8-13.9-5.3
				c-3.3-3.5-5-8.5-5-14.9c0-4.1,0.8-7.7,2.5-10.7c1.6-3.1,4-5.4,7.1-7c3.1-1.6,6.7-2.4,10.8-2.4c4.2,0,8.1,0.8,11.7,2.3l-1.8,4
				c-3.5-1.5-7-2.3-10.2-2.3c-4.8,0-8.5,1.4-11.2,4.3s-4,6.8-4,11.8c0,5.3,1.3,9.3,3.9,12.1s6.4,4.1,11.4,4.1c2.7,0,5.4-0.3,8-0.9
				V534h-8.8V529.9z"/>
			<path fill="#9BFBD2" d="M1317.2,534.2v16.3h-4.6v-39.3h10.8c4.8,0,8.4,0.9,10.7,2.8c2.3,1.8,3.5,4.6,3.5,8.3
				c0,5.2-2.6,8.7-7.9,10.5l10.7,17.6h-5.4l-9.5-16.3H1317.2z M1317.2,530.3h6.3c3.2,0,5.6-0.6,7.1-1.9s2.3-3.2,2.3-5.8
				c0-2.6-0.8-4.5-2.3-5.6c-1.5-1.1-4-1.7-7.4-1.7h-5.9V530.3z"/>
			<path fill="#9BFBD2" d="M1400.5,550.5l-4.9-12.5h-15.7l-4.8,12.5h-4.6l15.5-39.4h3.8l15.4,39.4H1400.5z M1394.2,533.9l-4.6-12.2
				c-0.6-1.5-1.2-3.4-1.8-5.7c-0.4,1.7-1,3.6-1.7,5.7l-4.6,12.2H1394.2z"/>
			<path fill="#9BFBD2" d="M1464.6,522.7c0,4-1.4,7-4.1,9.2c-2.7,2.1-6.6,3.2-11.6,3.2h-4.6v15.4h-4.6v-39.3h10.2
				C1459.7,511.2,1464.6,515.1,1464.6,522.7z M1444.3,531.1h4.1c4,0,7-0.7,8.8-2c1.8-1.3,2.7-3.4,2.7-6.3c0-2.6-0.9-4.5-2.6-5.8
				c-1.7-1.3-4.4-1.9-7.9-1.9h-5.1V531.1z"/>
			<path fill="#9BFBD2" d="M1531.8,550.5h-4.6V532h-20.7v18.5h-4.6v-39.3h4.6V528h20.7v-16.7h4.6V550.5z"/>
			<path fill="#9BFBD2" d="M1581.7,530.9l10.5-19.6h4.9l-13.1,24v15.2h-4.6v-15l-13.1-24.3h5L1581.7,530.9z"/>
		</g>
	</g>
	<g display="none">
		<rect x="776.5" y="727" display="inline" fill="none" width="97" height="146"/>
		<path display="inline" fill="#66FFCC" d="M804.5,802c0-7.5,1.7-13.2,5.2-17.1c3.5-3.9,8.6-5.8,15.3-5.8c6.5,0,11.5,1.9,15.1,5.8
			c3.6,3.8,5.4,9.6,5.4,17.2c0,7.4-1.8,13-5.3,17c-3.6,4-8.6,6-15.2,6c-6.6,0-11.7-2-15.2-6.1S804.5,809.2,804.5,802z"/>
	</g>
	<g>
		<g>
			<path fill="#9BFBD2" d="M59,550.9v-39.3h4.6v39.3H59z"/>
			<path fill="#9BFBD2" d="M103.5,550.9v-39.3h4.6v35.1h17.3v4.1H103.5z"/>
			<path fill="#9BFBD2" d="M161.1,550.9v-39.3h4.6v35.1H183v4.1H161.1z"/>
			<path fill="#9BFBD2" d="M248.5,511.6V537c0,4.5-1.4,8-4.1,10.6c-2.7,2.6-6.4,3.8-11.1,3.8s-8.4-1.3-11-3.9
				c-2.6-2.6-3.9-6.1-3.9-10.6v-25.3h4.6v25.6c0,3.3,0.9,5.8,2.7,7.5c1.8,1.8,4.4,2.6,7.9,2.6c3.3,0,5.9-0.9,7.7-2.6
				c1.8-1.8,2.7-4.3,2.7-7.6v-25.6H248.5z"/>
			<path fill="#9BFBD2" d="M310.2,540.4c0,3.5-1.3,6.2-3.8,8.1c-2.5,1.9-5.9,2.9-10.2,2.9c-4.7,0-8.2-0.6-10.7-1.8v-4.4
				c1.6,0.7,3.4,1.2,5.3,1.6c1.9,0.4,3.8,0.6,5.6,0.6c3,0,5.3-0.6,6.9-1.7c1.5-1.2,2.3-2.8,2.3-4.8c0-1.4-0.3-2.5-0.8-3.3
				c-0.5-0.9-1.5-1.7-2.7-2.4c-1.3-0.7-3.2-1.6-5.8-2.5c-3.7-1.3-6.3-2.9-7.8-4.6c-1.6-1.8-2.4-4.1-2.4-7c0-3,1.1-5.4,3.4-7.2
				c2.3-1.8,5.3-2.7,9-2.7c3.9,0,7.5,0.7,10.8,2.1l-1.4,4c-3.2-1.4-6.4-2-9.5-2c-2.4,0-4.3,0.5-5.7,1.6c-1.4,1-2,2.5-2,4.3
				c0,1.4,0.3,2.5,0.8,3.3c0.5,0.9,1.3,1.7,2.5,2.4c1.2,0.7,3,1.5,5.5,2.4c4.1,1.5,7,3,8.5,4.7C309.4,535.5,310.2,537.7,310.2,540.4
				z"/>
			<path fill="#9BFBD2" d="M359.4,550.9h-4.6v-35.2h-12.4v-4.1h29.4v4.1h-12.4V550.9z"/>
			<path fill="#9BFBD2" d="M411.5,534.5v16.3h-4.6v-39.3h10.8c4.8,0,8.4,0.9,10.7,2.8c2.3,1.8,3.5,4.6,3.5,8.3
				c0,5.2-2.6,8.7-7.9,10.5l10.7,17.6h-5.4l-9.5-16.3H411.5z M411.5,530.6h6.3c3.2,0,5.6-0.6,7.1-1.9s2.3-3.2,2.3-5.8
				c0-2.6-0.8-4.5-2.3-5.6c-1.5-1.1-4-1.7-7.4-1.7h-5.9V530.6z"/>
			<path fill="#9BFBD2" d="M494.7,550.9l-4.9-12.5h-15.7l-4.8,12.5h-4.6l15.5-39.4h3.8l15.4,39.4H494.7z M488.4,534.3l-4.6-12.2
				c-0.6-1.5-1.2-3.4-1.8-5.7c-0.4,1.7-1,3.6-1.7,5.7l-4.6,12.2H488.4z"/>
			<path fill="#9BFBD2" d="M546,550.9h-4.6v-35.2H529v-4.1h29.4v4.1H546V550.9z"/>
			<path fill="#9BFBD2" d="M593.5,550.9v-39.3h4.6v39.3H593.5z"/>
			<path fill="#9BFBD2" d="M672.1,531.2c0,6.3-1.6,11.2-4.8,14.8c-3.2,3.6-7.6,5.4-13.3,5.4c-5.8,0-10.2-1.8-13.4-5.3
				c-3.1-3.5-4.7-8.5-4.7-15c0-6.4,1.6-11.3,4.7-14.9c3.2-3.5,7.6-5.3,13.4-5.3c5.6,0,10,1.8,13.2,5.4
				C670.5,519.9,672.1,524.9,672.1,531.2z M640.8,531.2c0,5.3,1.1,9.4,3.4,12.1c2.3,2.7,5.6,4.1,9.9,4.1c4.4,0,7.6-1.4,9.9-4.1
				c2.2-2.7,3.3-6.8,3.3-12.1c0-5.3-1.1-9.3-3.3-12c-2.2-2.7-5.5-4.1-9.8-4.1c-4.4,0-7.7,1.4-9.9,4.1
				C641.9,521.9,640.8,525.9,640.8,531.2z"/>
			<path fill="#9BFBD2" d="M740.6,550.9h-5.2l-21.5-33h-0.2c0.3,3.9,0.4,7.4,0.4,10.6v22.3H710v-39.3h5.2l21.4,32.8h0.2
				c0-0.5-0.1-2-0.2-4.7c-0.1-2.6-0.2-4.5-0.1-5.6v-22.5h4.3V550.9z"/>
		</g>
	</g>
</g>
<g id="Guide" display="none">
</g>
<g id="Layer_1">
	<g>
	</g>
	<g>
	</g>
	<g>
	</g>
	<g>
	</g>
	<g>
	</g>
	<g>
	</g>
	<g>
	</g>
	<g>
	</g>
	<g>
	</g>
	<g>
	</g>
	<g>
	</g>
	<g>
	</g>
	<g>
	</g>
	<g>
	</g>
	<g>
	</g>
</g>
</svg>
