<?xml version="1.0" encoding="utf-8"?>
<!-- Generator: Adobe Illustrator 18.0.0, SVG Export Plug-In . SVG Version: 6.00 Build 0)  -->
<!DOCTYPE svg PUBLIC "-//W3C//DTD SVG 1.1//EN" "http://www.w3.org/Graphics/SVG/1.1/DTD/svg11.dtd">
<svg version="1.1" xmlns="http://www.w3.org/2000/svg" xmlns:xlink="http://www.w3.org/1999/xlink" x="0px" y="0px"
	 viewBox="0 0 1650 650" enable-background="new 0 0 1650 650" xml:space="preserve">
<g id="Block">
	<path fill="#9BFBD2" d="M1601,650H1V50C20.5,30.5,31.4,19.5,51,0h1600v600C1631.4,619.5,1620.5,630.5,1601,650z"/>
	<path fill="#FFFFFF" d="M1585,624.8H25v-160c15.6-15.6,24.4-24.4,40-40h1560v160C1609.4,600.4,1600.6,609.1,1585,624.8z"/>
</g>
<g id="Hands">
	<g>
		<g>
			<path fill="#9BFBD2" d="M808.2,529.3c-0.1,0-0.3,0-0.4,0c0,0-0.1,0-0.1,0c-0.1,0-0.2,0.1-0.3,0.1c0,0,0,0.1,0.1,0.1
				c0,0.1,0.4,0.1,0.5,0.2c0.3,0.1,0.6,0.2,0.9,0.2c0.2,0,0.4-0.1,0.6,0c0.2,0.1,1.1,0,1.3-0.2c0,0,0.2-0.1,0.2-0.1
				c0.1,0,0.3-0.1,0.4-0.1c0.1,0,0.4-0.2,0.4-0.2c-0.1,0-0.1,0-0.2,0c0,0-0.1,0-0.1,0c-0.2-0.1-0.5,0-0.7,0c-0.2,0-1.1,0.1-1.1,0.2
				c-0.3,0-0.5,0-0.7-0.1C808.7,529.3,808.4,529.3,808.2,529.3z M810.9,529.4c0,0-0.1,0-0.2,0c0,0,0,0,0,0H810.9z"/>
			<path fill="#9BFBD2" d="M823.3,540.3c0,0-1-0.5-1.2-0.6c-0.7-0.2-2.5-0.4-2.6-0.4c-0.3,0-1,0.1-1.1,0.2c-0.6,0.2-1.2,0.4-1.8,0.6
				c-0.4,0.2-0.8,0.3-1.1,0.5c-0.1,0-0.4,0.2-0.5,0.3c-0.4,0.1-0.5,0.1-0.9,0.2c0,0-0.1-0.1-0.1-0.1c-0.1-0.3-0.3-0.5-0.5-0.7
				c-0.1-0.1-0.3-0.2-0.4-0.3c0,0-0.1,0-0.1-0.1c-0.1,0-0.2-0.1-0.3-0.1c0,0,0-0.1-0.1-0.1c0-0.2-0.2-0.5-0.2-0.6
				c-0.1-0.5,0-0.9-0.1-1.3c0-0.1,0-0.2,0.1-0.4c0-0.1,0.3-2.7,0.3-3.3c0-0.2,0-0.4,0-0.5c0-0.4,0-0.7,0-1.1c0-0.2,0-0.5,0-0.7
				c0-0.3,0-0.6,0-1c0-0.1,0-0.5,0-0.5c0-0.1,0-0.2,0-0.3c0-0.2,0-0.3,0-0.5c0-0.2,0-0.4,0-0.6c0-0.2,0-0.4,0-0.7c0-0.3,0-0.7,0-1
				c0-0.4,0-0.8,0.1-1.3c0.1-0.3,0-0.7,0-1c0-0.3,0-0.6,0-0.9c0-0.4,0.1-0.7,0.2-1.1c0-0.3,0-0.6,0-0.8c0.1-0.4,0.3-2.5,0.3-3.2
				c0-0.1,0-0.3,0-0.4c0-0.3,0.1-1.7,0.1-1.7c-0.1-0.2,0-0.4-0.1-0.7c0-0.1,0-0.1,0-0.2c0,0-0.7-0.6-0.8-0.6c-0.1,0-0.2-0.1-0.2-0.1
				c-0.2-0.1-0.5-0.2-0.7-0.3c-0.4-0.1-0.8-0.1-1.1,0c-0.3,0-0.6,0.1-0.8,0.1c-0.3,0-0.5,0.1-0.7,0.2c-0.1,0.1-0.2,0.1-0.4,0.2
				c-0.1,0-0.3,0.3-0.3,0.4c0,0.2,0,0.4,0,0.7c0,0.3,0,0.7,0,1c0,0.7-0.1,1.4-0.1,2.1c0,0.4,0,0.8-0.1,1.2c0,0.5-0.1,1-0.1,1.4
				c0,0.3,0,0.6,0,1c0,0,0,0.2,0,0.3c0,0.1-0.1,0.2-0.1,0.3c0,0.1-0.2,0.8-0.2,0.9c-0.1,0.1-0.1,0.5-0.1,0.5c0,0.1-0.4,1.6-0.3,2.1
				c0,0.4-0.1,0.9-0.2,1.3c0,0.1-0.1,0.3-0.1,0.4c-0.1-0.1-0.2-0.2-0.2-0.4c-0.1-0.3-0.3-0.4-0.6-0.5c-0.1,0-0.2-0.1-0.3-0.1
				c-0.1,0-0.2-0.1-0.3-0.1c-0.2,0-0.4,0-0.6,0c-0.3,0-0.8,0-1.1,0.1c-0.2,0.1-0.6,0.3-0.8,0.4c-0.3,0.2-0.5,0.4-0.7,0.7
				c-0.2,0.3-0.4,0.7-0.6,1c-0.1,0.1-0.2,0.2-0.3,0.2c-0.4,0-0.6,0.1-1,0.1c-0.3,0-0.7,0.2-0.9,0.3c-0.4,0.1-0.8,0.3-1.1,0.6
				c-0.1,0.1-0.8,1.1-1,1.6c-0.1,0-0.2,0-0.3,0.1c-0.1,0.1-0.2,0.1-0.3,0.1c-0.2,0-0.5,0-0.7,0.1c-0.1,0-0.1,0.1-0.2,0.1
				c-0.2,0.1-0.4,0.1-0.5,0.2c-0.2,0.1-0.4,0.2-0.6,0.4c-0.1,0.1-0.7,0.4-0.7,0.5c-0.2,0.3-0.4,0.6-0.6,0.9
				c-0.5,0.7-0.9,1.4-0.9,2.3c0,0.2,0,0.4,0.2,0.5c0.1,0.1,0.1,0.2,0.1,0.3c0,0.1,0,0.2,0,0.3c0,0.2-0.1,0.5-0.1,0.7
				c-0.1,0.5-0.1,1-0.1,1.5c0,0.3,0,0.5,0,0.8c-0.1,0.4-0.1,0.8,0,1.2c0,0.4,0,0.8,0,1.1c0,0.2,0,0.5,0,0.7c0,0.3,0,0.6,0,0.8
				c0,0.3,0,0.6,0.1,0.9c0,0.4,0.1,0.7,0.1,1.1c0.1,0.5,0.1,1,0.3,1.5c0.2,0.4,0.4,0.7,0.5,1.1c0.2,0.3,0.4,0.7,0.5,1
				c0.1,0.1,0.1,0.3,0.2,0.4c0.2,0.4,0.4,0.7,0.7,1.1c0.1,0.2,0.3,0.4,0.4,0.6c0.2,0.2,0.4,0.4,0.5,0.6c0.1,0.1,0.2,0.2,0.3,0.3
				c0.2,0.2,0.5,0.3,0.7,0.5c0.3,0.3,0.6,0.6,0.9,0.8c0.1,0.1,0.2,0.2,0.4,0.2c-0.1-0.1-0.1-0.2-0.2-0.3c-0.3-0.3-0.5-0.5-0.8-0.8
				c-0.1-0.2-0.3-0.3-0.4-0.5c-0.2-0.2-0.4-0.4-0.5-0.6c-0.2-0.3-0.4-0.6-0.7-0.9c-0.1-0.1-0.1-0.2-0.1-0.2
				c-0.1-0.1-0.1-0.2-0.2-0.4c0-0.1-0.1-0.1-0.2-0.1c-0.1,0-0.1,0-0.1-0.1c0-0.1,0-0.2-0.1-0.3c-0.1-0.1-0.2-0.2-0.2-0.4
				c-0.1-0.3-0.2-0.7-0.4-1c0,0,0,0,0,0c-0.1-0.2-0.1-0.3-0.2-0.5c0-0.1-0.5-1.4-0.5-1.3c-0.1-0.2-0.2-0.3-0.2-0.5c0,0,0-0.3,0-0.4
				c0-0.1,0-0.3-0.1-0.4c0-0.1-0.1-0.1-0.1-0.1c0-0.1,0-0.3,0-0.3c0-0.1,0-0.2,0-0.2c-0.1-0.1-0.1-0.2-0.1-0.3c0-0.2,0-0.4,0-0.7
				c0-0.1,0-0.3-0.1-0.4c0-0.3-0.1-0.6-0.1-0.9c0-0.3,0-0.6,0-0.8c0-0.2,0-0.4,0-0.6c0-0.5,0-1.1,0.1-1.6c0-0.2,0.1-0.5,0.1-0.7
				c0.1-0.4,0.1-0.8,0.1-1.2c0-0.2,0-0.4,0-0.5c0-0.2-0.1-0.4-0.3-0.6c-0.1-0.1-0.2-0.3-0.3-0.4c0,0,0-0.1,0-0.1
				c0.1-0.2,0.1-0.5,0.2-0.7c0-0.1,0.1-0.3,0.1-0.4c0-0.1,0-0.1,0-0.2c0-0.1,0.1-0.1,0.1-0.2c0.1-0.2,0.3-0.5,0.4-0.7
				c0.1-0.2,0.3-0.3,0.4-0.5c0.2-0.3,0.4-0.5,0.7-0.6c0.1-0.1,0.2-0.1,0.3-0.2c0.1-0.1,0.2-0.2,0.3-0.2c0.3-0.1,0.5-0.2,0.8-0.2
				c0.2,0,0.4,0,0.6,0c0.1,0,0.2,0,0.3,0c0.2-0.1,0.3-0.1,0.5,0c0.1,0,0.1,0.1,0.1,0.2c0.1,0.2,0.1,0.4,0.2,0.6
				c0.1,0.2,0.1,0.5,0.2,0.7c0,0.2,0,0.4,0.1,0.6c0.1,0.3,0.1,0.5,0.1,0.8c0,0.2,0,0.4,0,0.6c0.1,0.4,0.1,0.7,0,1.1
				c0,0.1-0.1,0.3-0.2,0.4c0,0-0.1,0.1-0.1,0.1c-0.1,0.2-0.2,0.4-0.3,0.6c0,0.1-0.1,0.2-0.1,0.2c-0.1,0-0.1-0.1-0.2-0.1
				c-0.2-0.1-0.4-0.1-0.6-0.1c-0.1,0-0.3,0.1-0.4,0.1c-0.1,0-0.3,0.1-0.4,0.2c0,0.1-0.1,0.1-0.2,0.2l0,0c0,0.1-0.1,0.1-0.1,0.2l0,0
				c0,0.1-0.1,0.3-0.1,0.4c0,0.1,0,0.2-0.1,0.3c0,0,0,0,0,0c-0.1-0.1-0.2-0.2-0.3-0.4c0,0,0-0.1,0-0.1c0-0.2,0-0.5,0.1-0.7
				c0-0.1,0.1-0.2,0.1-0.2c0.1,0,0.2,0,0.2,0.1c0,0,0,0,0,0c-0.1-0.2-0.1-0.4-0.3-0.5c-0.3-0.3-0.4-0.7-0.5-1c0,0,0-0.1,0-0.1
				c0-0.1,0-0.2-0.1-0.3c-0.1-0.3-0.2-0.7-0.3-1c0-0.1-0.1-0.3-0.2-0.4c-0.1,0-0.2,0-0.3,0.1c0,0.2,0,0.4,0,0.5c0,0,0,0.1,0,0.1
				c0.1,0.2,0.1,0.5,0.2,0.7c0,0.2,0.1,0.3,0.1,0.5c-0.1-0.1-0.2-0.1-0.3-0.2c0,0-0.1,0-0.2,0c0,0.1-0.1,0.1-0.2,0.1
				c0,0.1,0.1,0.1,0.1,0.2c0.2,0.2,0.4,0.4,0.7,0.3c0,0.1,0.1,0.3,0.1,0.4c0,0.1,0.1,0.2,0.2,0.4c-0.2,0.1-0.4,0.1-0.6,0.2
				c-0.2,0.1-0.4,0-0.7,0c0.1,0.1,0.2,0.2,0.2,0.4c0,0.1,0.1,0.1,0.2,0.1c0.1,0,0.2,0,0.3-0.1c0,0,0,0,0,0c-0.1,0.1-0.1,0.1-0.2,0.2
				c0.2,0.1,0.2,0.1,0.3,0c0.1-0.1,0.3-0.2,0.5-0.3c0,0.2,0,0.4-0.1,0.6c0,0.2,0,0.3,0.1,0.4c0,0.1,0.1,0.2,0.1,0.3
				c0,0.1,0.1,0.3,0.3,0.3c0.1,0.1,0.3,0.1,0.4,0.2c0.1,0,0.1,0.1,0.2,0.1c0.1,0,0.3,0,0.4,0.1c0,0,0.1,0,0.1,0
				c0.2-0.1,0.4-0.1,0.6-0.1c0.2,0,0.3-0.1,0.4-0.3c0.2-0.3,0.2-0.7,0.4-1c0,0,0-0.1,0.1-0.1c0.1,0.2,0.2,0.3,0.3,0.4
				c0.1,0.1,0.2,0.3,0.3,0.4c0,0.1,0.1,0.1,0.2,0.1c0,0,0.1,0,0.1,0.1c0.2,0.1,0.4,0.3,0.6,0.4c0,0,0,0,0,0c-0.2,0-0.4,0.1-0.6,0.1
				c-0.1,0-0.2,0-0.2,0c-0.1,0-0.1,0-0.2,0c0,0-0.1,0-0.1,0c-0.2,0.1-0.5,0-0.7,0c-0.2,0-0.5,0-0.7,0c-0.3,0-0.5-0.1-0.8,0
				c-0.1,0-0.4,0.1-0.4,0.1c-0.3,0-0.6-0.1-0.9,0c-0.1,0-0.1,0-0.2,0.1c0,0,0.1,0.1,0.1,0.1c0.1,0.1,0.2,0.2,0.4,0.1
				c0.2,0,0.3-0.1,0.5-0.1c0.1,0,0.2-0.1,0.4-0.1c0.3,0,0.7,0,1,0c0,0,0.1,0,0.1,0c-1.2,0.3-2.4,0.5-3.5,0.8c0,0.1,0,0.3,0,0.5
				c0.2,0.2,0.3,0.2,0.5,0.2c0.1,0,0.2,0,0.3-0.1c0,0,0.1,0,0.1,0c0.2-0.1,0.4-0.1,0.6-0.2c0.2,0,0.3,0,0.5-0.2
				c0.1-0.1,0.2-0.1,0.3-0.1c0.2,0,0.5-0.1,0.7-0.2c0.1,0,0.3,0,0.4,0c0,0,0.1-0.1,0.1-0.1c0,0,0.1,0,0.1,0c0,0.1,0.1,0,0.1,0
				c0.3-0.1,0.6,0,0.9-0.2c0,0,0,0,0.1,0c0.1,0,0.1,0,0.2,0c0.1,0,0.2,0,0.2,0c0.1,0,0.2,0.1,0.2-0.1c0.1,0,0.2-0.1,0.2-0.1
				c0.2,0,0.3,0,0.5,0c0.1,0,0.1,0,0.2,0c0.2,0,0.3-0.1,0.5-0.1c0.1,0,0.2,0,0.2-0.1c0.2,0,0.5-0.1,0.7-0.1c0.2,0,0.4-0.1,0.5-0.2
				c0.1,0,0.3-0.1,0.4-0.1c0.1-0.1,0.1,0,0.1,0.1c0.1,0,0.2-0.1,0.3-0.1c0.1-0.1,0.2-0.1,0.4-0.1c0,0,0.1,0,0.1,0
				c0.2,0,0.3-0.1,0.5-0.1c0,0,0.1,0,0.1,0c0,0,0.1,0,0.1,0c0.1,0,0.2,0,0.3,0c0.1,0,0.1-0.1,0.2,0c0,0.2-0.1,0.3-0.2,0.4
				c-0.3,0.4-0.6,0.7-0.8,1.1c0,0.1-0.1,0.1-0.1,0.1c0,0-0.1,0.1-0.1,0.1c-0.2,0.1-0.4,0.1-0.6,0.2c-0.6,0.2-1.2,0.3-1.8,0.5
				c-0.3,0.1-0.6,0.2-0.9,0.3c0,0.1-0.1,0.1-0.2,0.2c-0.2,0.1-0.4,0.2-0.7,0.3c0.1,0,0.2,0.1,0.2,0.1c0.2,0,0.4,0,0.5-0.1
				c0.2-0.1,0.4-0.2,0.6-0.3c0.5-0.2,1-0.3,1.5-0.4c0.3,0,0.5-0.1,0.8-0.1c0,0,0,0.1-0.1,0.1c-0.2,0.2-0.3,0.4-0.5,0.6
				c-0.3,0.4-0.5,0.7-0.7,1.1c0,0.1-0.1,0.2,0,0.3c0,0,0,0.1,0,0.1c-0.1,0.2-0.2,0.4-0.3,0.7c0,0.1,0,0.1,0,0.2c0,0,0.1,0.1,0.1,0.1
				c0,0,0.1-0.1,0.1-0.1c0.2-0.3,0.3-0.6,0.5-0.9c0.1-0.3,0.3-0.5,0.5-0.7c0.4-0.4,0.7-0.8,1-1.3c0-0.1,0.1-0.1,0.1-0.2
				c0-0.1,0-0.2,0.1-0.2c0.2,0,0.3,0,0.5-0.1c0.5-0.1,1-0.2,1.5-0.3c0.1,0,0.1,0,0.2,0c0.1,0,0.1,0,0.2,0c0.1,0,0.1,0,0.2,0
				c0.1,0,0.1,0,0.2-0.1c0,0,0.1,0,0.2,0c0,0,0.1,0,0.1,0c0.1,0,0.1-0.1,0.2-0.1c0.2,0,0.4-0.1,0.5-0.1c0.2,0,0.4-0.1,0.6-0.2
				c0.2,0,0.4-0.1,0.6-0.1c-0.1,0.2-0.2,0.4-0.4,0.5c-0.3,0.2-0.6,0.5-0.9,0.8c-0.5,0.5-1,1-1.4,1.6c-0.6,0.7-1.2,1.4-1.7,2.2
				c-0.1,0.1-0.1,0.2-0.2,0.3c0,0,0,0.1-0.1,0.1c-0.3,0.4-0.6,0.9-0.8,1.4c-0.1,0.1-0.1,0.3-0.1,0.4c-0.1,0.3-0.3,0.6-0.3,1
				c0,0.3-0.1,0.5-0.1,0.8c0,0.1,0,0.3,0,0.4c0,0,0,0.1,0,0.1c0,0,0,0,0,0c0.1-0.3,0.2-0.5,0.3-0.8c0.1-0.2,0.1-0.3,0.2-0.5
				c0-0.2,0.1-0.3,0.2-0.5c0.1-0.1,0.1-0.2,0.1-0.3c0-0.1,0-0.2,0.1-0.3c0.1-0.2,0.3-0.5,0.5-0.7c0.1-0.2,0.3-0.4,0.4-0.6
				c0,0,0-0.1,0-0.1c0.1-0.1,0.1-0.2,0.2-0.3c0,0,0-0.1,0.1-0.1c0.2-0.3,0.4-0.6,0.6-0.8c0.1-0.2,0.2-0.3,0.3-0.5
				c0-0.1,0.1-0.2,0.1-0.3c0,0,0,0.1,0,0.1c0.1-0.2,0.2-0.3,0.4-0.5c0,0,0-0.1,0-0.1c-0.1,0,0-0.1,0-0.1c0-0.1,0.1-0.1,0.1-0.2
				c0.1-0.2,0.3-0.3,0.4-0.5c0.1-0.1,0.1-0.2,0.2-0.2c0.1,0,0.1-0.1,0.1-0.2c0,0,0-0.1,0.1-0.1c0.1-0.1,0.2-0.2,0.2-0.3
				c0,0,0.1-0.1,0.1-0.1c0,0,0.1,0.1,0.1,0c0.2-0.2,0.4-0.4,0.6-0.5c0.1-0.1,0.2-0.2,0.4-0.4c0.1-0.1,0.2-0.2,0.3-0.3
				c0.2-0.1,0.4-0.3,0.6-0.4c0,0,0.1-0.1,0.1-0.1c0.1-0.1,0.2-0.1,0.3-0.2c0.2-0.1,0.3-0.1,0.5-0.1c0.4-0.1,0.8-0.1,1.2-0.2
				c0.2,0,0.4-0.1,0.7-0.2c-0.1-0.1-0.2-0.1-0.2-0.1c-0.1-0.1-0.2-0.1-0.3,0c0,0-0.1,0-0.1,0c-0.2,0-0.4,0-0.5,0c-0.2,0-0.6,0-0.7,0
				c-0.2,0.1-0.5,0.1-0.7,0.1c-0.1,0-0.2,0.1-0.3,0.1c-0.3,0-0.5,0.1-0.8,0.1c-0.1,0-0.2,0-0.3,0c-0.2,0-0.3,0.1-0.5,0.1
				c-0.1,0-0.1,0-0.2,0c-0.1,0-0.2,0-0.3,0c-0.3,0.1-0.6,0-0.9,0.1c0,0,0,0,0,0c0,0-0.1,0-0.1,0c-0.3,0.1-0.7,0.2-1,0.2
				c-0.1,0-0.2,0-0.3,0.1c-0.1,0.1-0.2,0.1-0.3,0.1c-0.1,0-0.2,0-0.3,0c0,0,0-0.1,0-0.1c0.1-0.2,0.3-0.4,0.4-0.6
				c0.2-0.3,0.3-0.6,0.4-0.8c0.1-0.1,0.2-0.2,0.3-0.3c0.3,0,0.6-0.1,0.8-0.1c0.3,0,0.6-0.1,0.9-0.1c0.3,0,0.5,0,0.8-0.1
				c0.2,0,0.5-0.1,0.7-0.1c0.3-0.1,0.6-0.1,0.8-0.2c0.1,0,0.2-0.1,0.3-0.1c0,0,0-0.1,0.1-0.1c-0.1,0-0.2,0-0.3,0
				c-0.6,0-1.1,0.1-1.7,0.1c-0.1,0-0.1,0-0.2,0c-0.4,0.1-0.9,0.2-1.3,0.1c-0.1,0-0.1,0-0.2,0.1c-0.1,0.1-0.3,0.1-0.5,0.1
				c0.1-0.1,0.2-0.2,0.2-0.2c-0.1-0.1-0.1-0.1-0.2-0.2c0.1,0,0.1-0.1,0.2-0.1c0.1,0,0.2-0.1,0.3-0.2c0.1-0.1,0.2-0.2,0.3-0.3
				c0.1-0.1,0.1-0.1,0.2-0.2c0.1-0.3,0.3-0.5,0.3-0.8c0,0,0-0.1,0.1-0.1c0.1-0.2,0.2-0.4,0.2-0.6c0-0.1,0-0.3,0-0.4
				c0.1-0.3,0.1-0.6,0.1-0.9c0-0.2,0-0.3,0-0.5c0-0.3,0.1-0.6,0.1-0.9c0-0.3,0.1-0.7,0.1-1c0-0.3,0.1-0.6,0.1-0.8
				c0.1-0.6,0.1-1.3,0.2-1.9c0-0.2,0-0.3,0-0.5c0-0.2-0.1-0.3-0.1-0.5c0,0,0-0.1,0-0.1c0.1-0.1,0.2-0.3,0.2-0.5
				c0-0.2,0.1-0.4,0.1-0.6c0-0.1,0.1-0.3,0.1-0.4c0-0.3,0.1-0.6,0.1-0.9c0-0.2-0.1-0.9-0.1-0.9c0.1-0.4,0.1-0.7,0.3-1.1
				c0-0.1,0.2-1.2,0.3-1.6c0.1-0.3,0.1-0.7,0.1-1c0-0.5,0.1-1,0.1-1.5c0-0.1,0-0.2,0-0.3c0-0.5,0-1,0-1.4c0-0.4,0-0.8,0-1.3
				c0-0.3,0-0.5,0-0.8c0-0.3,0-0.7,0.1-1c0-0.2-0.1-0.6,0.1-0.7c0.4-0.2,1.4-0.3,1.5-0.3c0.4,0,0.8,0,1.2,0c0.1,0,0.6,0.1,0.7,0.1
				c0.3,0.2,0.5,0.4,0.8,0.6c0.1,0.1,0.1,0.1,0.1,0.2c0,0.1,0,0.1,0,0.2c0,0.3,0,0.6,0,0.8c0,0.4-0.1,0.7-0.1,1.1
				c-0.1,0.4-0.1,0.8-0.2,1.3c0,0.5-0.1,1.1-0.2,1.6c0,0.1,0,0.6,0,0.8c-0.1,0.4-0.2,0.9-0.3,1.3c-0.1,0.4,0,0.7,0,1.1
				c0,0.2,0,1,0.1,1.1c0,0.4,0,0.7,0,1.1c0,0.2-0.3,2.6-0.3,2.6c0,0.2,0.1,0.5,0.1,0.6s0.1,1.2,0,1.6c0,0,0,0,0,0.1
				c0,0.2,0,0.4,0.1,0.7c0.1,0.3,0,0.6,0,1c0,0.3-0.1,0.6-0.1,0.9c0,0.3,0,0.6,0,0.9c0,0.5,0.1,0.9,0,1.4c0,0.2-0.1,0.4-0.1,0.6
				c-0.1,0.4-0.2,1.3-0.2,1.3c0,0.2,0.1,0.5,0,0.7c-0.1-0.1-0.3-0.2-0.3-0.3c-0.1-0.1-0.2-0.3-0.2-0.5c0-0.1-0.1-0.1-0.2-0.2
				c-0.1,0-0.1,0-0.2-0.1c0,0,0-0.1-0.1-0.1c-0.1-0.1-0.1-0.1-0.3-0.1c-0.1,0-0.1,0.1,0,0.2c0,0,0.1,0.1,0.1,0.1
				c0,0.1-0.1,0.1-0.1,0.1c0.1,0.1,0.2,0.1,0.1,0.2c0,0-0.1,0-0.1,0c0,0,0,0,0,0c0,0.2,0.1,0.3,0.2,0.3c0.2,0.1,0.4,0.2,0.5,0.4
				c0.1,0.1,0.3,0.3,0.4,0.4c0.1,0.1,0.3,0.2,0.4,0.3c0.2,0.2,0.4,0.4,0.7,0.6c0.2,0.2,0.3,0.3,0.5,0.5c0.1,0.1,0.1,0.3,0.1,0.5
				c-0.1,0-0.3,0.1-0.4,0.1c-0.1,0.1-0.7,0.1-0.7,0.2c-0.2,0-0.4-0.1-0.5,0c0,0.2,0.1,0.3,0.3,0.3c0.1,0,0.3,0,0.4,0.1
				c0.2,0.1,0.5,0.1,0.8,0.2c0,0,0.1,0,0.1,0c0.2-0.1,0.3-0.2,0.5-0.2c0.2-0.1,0.3-0.2,0.5-0.1c0,0,0.2-0.1,0.2-0.1
				c0.2-0.1,0.4-0.2,0.6-0.3c0.1-0.1,0.3-0.1,0.4-0.2c0.3-0.2,0.7-0.4,1-0.6c0.1,0,0.1,0,0.2-0.1c0.4-0.3,0.9-0.4,1.3-0.6
				c0,0,0.1,0,0.2,0c-0.2,0.3-0.3,0.6-0.5,0.9c-0.2,0.3-0.3,0.6-0.3,1c0,0.1,0,0.2,0.1,0.3c0.2,0,0.1-0.2,0.2-0.3c0,0.1,0,0.2,0,0.3
				c0,0,0.1,0,0.1,0c0,0.4-0.1,0.8-0.1,1.3c0,0,0.1,0.1,0.1,0.1c0.2-0.3,0.1-0.6,0.2-0.9c0.1,0,0.2-0.1,0.2-0.2c0-0.1,0-0.2,0-0.3
				c0-0.4,0.1-0.8,0.2-1.2c0.1-0.2,0.1-0.4,0.2-0.5c0-0.2,0.1-0.3,0.1-0.5c0.3-0.1,1.2-0.1,1.4-0.1c0.4,0,1.4,0.2,1.6,0.3
				c0.3,0.1,0.8,0.1,1.1,0.1c0.4,0.1,0.8,0.2,1.1,0.5c0.3,0.2,0.5,0.5,0.7,0.4C824.1,540.8,823.6,540.4,823.3,540.3z M795,552.2
				c0-0.1-0.1-0.1-0.1-0.2C795,552,795,552.1,795,552.2z M797.1,540c-0.1,0.2-0.2,0.4-0.2,0.5c-0.1,0-0.1,0-0.2,0
				c-0.2,0.3-0.5,0.3-0.8,0.3c0-0.2,0-0.4,0.1-0.5c0.1-0.2,0.2-0.4,0.3-0.6c0-0.1,0.1-0.1,0.1-0.1c0.1,0,0.1,0,0.2,0
				c0.2-0.1,0.3,0,0.5,0c0,0,0,0.1,0,0.1C797.2,539.7,797.1,539.9,797.1,540z M797.2,541.4c0.1-0.1,0.3-0.1,0.4-0.1c0,0,0,0,0,0.1
				C797.5,541.4,797.4,541.4,797.2,541.4z M798.3,541.8C798.3,541.8,798.3,541.7,798.3,541.8c0.1-0.1,0.2-0.1,0.3-0.1c0,0,0,0,0,0
				C798.5,541.7,798.4,541.7,798.3,541.8z M805.5,540.1C805.5,540.1,805.5,540.1,805.5,540.1l-0.2,0.1c0,0,0,0,0,0
				C805.4,540.1,805.4,540.1,805.5,540.1z M806,528.7c-0.1,0-0.1,0-0.2,0c0,0,0,0,0,0L806,528.7C806,528.7,806,528.7,806,528.7z
				 M798.6,538.9c-0.1,0.2-0.2,0.5-0.2,0.8c0,0.1,0,0.2,0.1,0.3c-0.1,0-0.1-0.1-0.1-0.1c-0.1-0.2-0.2-0.3-0.2-0.5c0,0,0-0.1,0-0.1
				c0-0.1,0-0.1,0-0.2c0,0,0-0.1,0-0.2c0.1-0.2,0.2-0.5,0.2-0.8c0.1-0.2,0.1-0.4,0.1-0.7c0-0.1,0-0.3,0-0.4c0-0.1,0-0.2,0-0.2
				c0-0.2,0-0.3,0-0.5c-0.1,0-0.1-0.1-0.1-0.2c0-0.1-0.1-0.3-0.1-0.4c0-0.2-0.1-0.4,0-0.5c0-0.1,0-0.2,0-0.2c0-0.3,0-0.7-0.1-1
				c-0.1-0.3-0.2-0.6-0.1-1c0-0.1,0-0.3,0-0.4c0,0,0,0,0,0c0,0.1,0,0.1-0.1,0.2c0,0.1,0,0.1-0.2,0.1c0,0-0.1,0-0.1,0
				c0,0.1,0,0.2,0,0.3c-0.1-0.1-0.1-0.1-0.1-0.2c0.1-0.1,0.1-0.3,0.2-0.4c0.1-0.2,0.3-0.3,0.5-0.5c0-0.1,0.1-0.1,0.1-0.2
				c0-0.1,0-0.1,0.1-0.2c0.1-0.1,0.2-0.1,0.3-0.2c0.2-0.1,0.4-0.2,0.6-0.2c0.1-0.1,0.3-0.1,0.4-0.1c0,0,0,0.1,0.1,0.1
				c-0.2,0.1-0.5,0.2-0.7,0.3c-0.2,0.1-0.3,0.1-0.5,0.2c-0.1,0-0.1,0.1-0.1,0.2c0,0.1,0,0.1,0.1,0.2c0,0,0.1,0,0.1,0
				c0.1,0,0.1-0.1,0.2-0.1c0,0,0.1,0,0.1,0c0,0,0.1-0.1,0.1-0.1c0.1-0.2,0.2-0.3,0.4-0.3c0.4-0.1,0.7-0.2,1.1-0.3
				c0.4-0.1,0.8-0.1,1.2-0.1c0-0.2-0.2-0.4-0.3-0.3c-0.1,0-0.1,0.1-0.2,0c-0.3-0.1-0.6,0-0.9,0c0.3-0.2,0.5-0.3,0.9-0.3
				c0,0,0.1,0,0.1,0c0.2,0,0.3,0,0.5,0.2c0.1,0.1,0.2,0.2,0.2,0.2c0,0,0.1,0.1,0.1,0.1c0.1,0.2,0.1,0.4,0.2,0.6
				c0.1,0.4,0.2,0.9,0.3,1.3c0.1,0.8,0.2,1.6,0.2,2.4c0,0.1,0,0.1,0,0.2c-0.1,0.2-0.1,0.3,0,0.5c0,0.1,0,0.1,0,0.2
				c0,0.1-0.1,0.2-0.1,0.3c-0.1,0.2-0.1,0.5-0.2,0.7c-0.1,0.2-0.1,0.3-0.2,0.5c-0.3,0.5-0.5,0.9-0.8,1.4c0-0.1,0-0.3-0.1-0.4
				c-0.2-0.2-0.3-0.4-0.6-0.4c-0.1,0-0.1,0-0.2,0c-0.2,0.1-0.3,0.1-0.5,0.1c-0.4,0-0.8,0.2-1.1,0.5c0,0,0,0,0,0
				C798.7,538.8,798.7,538.8,798.6,538.9z M801.8,539.2c0.3,0.3,0.7,0.5,1.1,0.7c-0.6,0.1-1.2,0.2-1.8,0.2c0-0.2,0.1-0.3,0.2-0.4
				c0,0,0.1-0.1,0.1-0.1C801.5,539.4,801.6,539.3,801.8,539.2z M799,540.3c-0.1-0.1-0.2-0.1-0.3-0.2c-0.1-0.1-0.1-0.1,0-0.2
				c0,0,0.1,0,0.1,0c0.2,0.1,0.3,0,0.3-0.2c0-0.1,0.1-0.3,0.1-0.4c0-0.2,0.2-0.4,0.4-0.5c0.2-0.2,0.4-0.2,0.7-0.2
				c0.1,0,0.2,0,0.4,0.1c0.1,0.1,0.1,0.1,0.1,0.2c0,0.2-0.1,0.3-0.1,0.5c0,0.1,0,0.3-0.1,0.4c0,0.1,0,0.2-0.1,0.2c0,0,0,0.1-0.1,0.1
				c0,0.1-0.1,0.1-0.1,0.2C799.9,540.5,799.5,540.6,799,540.3z M800.5,541.3C800.5,541.3,800.5,541.3,800.5,541.3l-0.1,0l0,0
				c0.1,0,0.2,0,0.2-0.1c0,0,0,0,0,0C800.6,541.3,800.5,541.3,800.5,541.3z M804.4,540c-0.2,0.1-0.4,0.1-0.7,0.1
				c-0.8,0.2-1.6,0.3-2.4,0.5c-0.3,0.1-0.5,0.1-0.8,0.1c0,0-0.1,0-0.1,0c0.1-0.2,0.3-0.3,0.4-0.5c0.5,0,1-0.1,1.5-0.1
				c0.3,0,0.6-0.1,0.9-0.1c0,0,0,0,0,0c0.4,0.1,0.7-0.1,1.1-0.2c0,0,0,0,0.1,0c0,0,0,0,0,0C804.6,540,804.5,540,804.4,540z
				 M804.6,539.2c0.1,0.1,0.1,0.1,0.2,0.2c0,0.1-0.1,0.2-0.2,0.1c0,0,0,0,0,0c-0.1,0.2-0.3,0.2-0.4,0.2c-0.1,0-0.2,0-0.3,0
				c-0.1,0-0.3,0.1-0.3-0.1c0,0-0.1,0-0.1,0c0,0-0.1,0-0.1,0c-0.4-0.2-0.4-0.2-0.3-0.5c0-0.1,0-0.2,0-0.2c0-0.3,0.4-0.7,0.7-0.7
				c0.4-0.1,0.7-0.1,1,0c0,0,0.1,0,0.1,0c0.2,0,0.3,0.1,0.4,0.3C805,538.7,805,539,804.6,539.2z M805.5,538.9
				C805.5,538.9,805.5,538.9,805.5,538.9C805.5,538.8,805.5,538.8,805.5,538.9C805.5,538.8,805.5,538.8,805.5,538.9
				C805.5,538.8,805.5,538.9,805.5,538.9z M806.8,530.8c0,0.5-0.1,1-0.2,1.5c-0.1,0.4-0.1,0.8-0.2,1.2c-0.1,0.4-0.1,0.8-0.2,1.2
				c-0.1,0.3-0.1,0.7-0.1,1c0,0.3,0,0.7,0,1c0,0.2,0,0.4-0.1,0.6c0,0.3-0.1,0.5-0.2,0.8c0,0.1-0.1,0.2-0.1,0.3
				c0,0.1-0.1,0.1-0.1,0.2c0-0.1,0-0.1,0-0.1c0.1-0.4-0.1-0.6-0.4-0.6c-0.3-0.1-0.6-0.2-0.9-0.2c-0.1,0-0.2,0-0.3,0
				c-0.3,0-0.6,0.1-0.9,0.1c-0.1,0-0.2,0.1-0.3,0.2c-0.1,0.2-0.3,0.4-0.4,0.6c0,0.1-0.1,0.1-0.1,0.2c0.1,0.1,0.2,0.1,0.1,0.3
				c0,0.1,0.1,0.2,0.1,0.3c-0.3-0.1-0.4-0.3-0.4-0.5c0,0,0-0.1,0-0.1c0.1-0.3,0.3-0.6,0.5-0.9c0.1-0.2,0.2-0.4,0.3-0.7
				c0.1-0.2,0.1-0.5,0.1-0.7c0-0.1,0-0.1,0-0.2c-0.1-0.2-0.1-0.3-0.1-0.5c0-0.5,0-1,0-1.5c0-0.2,0-0.3,0-0.5c0-0.1,0-0.3,0-0.4
				c0-0.3-0.1-0.5-0.1-0.8c0-0.1,0-0.3,0-0.4c0-0.1,0-0.1,0-0.2c-0.1-0.4-0.1-0.7-0.1-1.1c0-0.2,0-0.3,0-0.4c0-0.1,0-0.2-0.1-0.3
				c-0.1,0-0.2-0.1-0.3-0.1c-0.1,0-0.2,0-0.2,0.2c0,0.1-0.1,0.2-0.2,0.1c-0.1,0-0.1,0-0.2-0.1c0.1-0.2,0.2-0.4,0.3-0.6
				c0.1-0.1,0.7-1.2,1.2-1.3c0.4-0.1,0.9-0.2,1.3-0.2c0.4,0,0.7,0.1,1.1,0.1c0.1,0,0.1,0.1,0.2,0.1c0,0,0,0.1,0,0.1
				c-0.3,0-0.6-0.1-0.9-0.1c-0.3,0-0.5,0-0.8,0c-0.2,0-0.3,0.1-0.5,0.2v0.3c0,0-0.2,0.1-0.2,0.1c-0.2,0.1,0,0.1,0,0.1
				c0,0-0.2,0.3,0,0.2c0.1,0,1.1-0.2,1.4-0.2c0.3,0,0.5-0.1,0.7-0.3l0,0c0.1,0,0.3,0,0.4,0.1c0,0,0.1,0.1,0.1,0.1
				c0.1,0.3,0.3,0.6,0.5,0.8C806.8,530.1,806.8,530.4,806.8,530.8z M805.4,528.8 M804.4,528.8c-0.2,0-0.3,0.1-0.5,0.1l0,0
				C804,528.7,804.2,528.7,804.4,528.8C804.4,528.7,804.4,528.7,804.4,528.8z"/>
			<path fill="#9BFBD2" d="M824.9,541.7c0-0.1,0-0.2-0.1-0.2c-0.1,0.1-0.1,0.2-0.1,0.3c0,0.2,0,0.3-0.1,0.5
				c-0.1,0.2-0.2,0.3-0.3,0.5c-0.1,0.2-0.2,0.4-0.3,0.6c0,0.1-0.5,0.8-0.7,1c0,0.1-0.1,0.1-0.2,0.2c0,0,0,0,0,0c0,0-0.4-0.2-0.5-0.2
				c-0.2,0-0.4,0-0.6-0.1c-0.3,0-0.6-0.1-0.8-0.1c-0.4,0-0.7,0.1-1.1,0.2c-0.6,0.2-1.1,0.4-1.6,0.8c-0.1,0.1-0.1,0.1-0.2,0
				c-0.2-0.1-0.4-0.2-0.7-0.3c-0.3,0.1-0.5,0.2-0.7,0.4c-0.2,0.2-0.4,0.4-0.6,0.6c-0.1,0.1-0.1,0.1-0.2,0.2c0,0.1-0.1,0.1-0.1,0.2
				c-0.2,0.3-0.5,0.7-0.7,1c-0.3,0.4-0.5,0.8-0.8,1.2c-0.1,0.1-0.1,0.2-0.2,0.3c-0.1,0.2-0.3,0.5-0.4,0.7c-0.4,0.5-0.9,0.9-1.4,1.4
				c-0.2,0.2-0.4,0.3-0.7,0.5c-0.2,0.2-0.5,0.4-0.7,0.6c-0.5,0.3-0.9,0.6-1.4,0.9c-0.5,0.3-1.5,0.7-1.5,0.8c-0.5,0.3-1,0.6-1.6,0.8
				c0.1,0,0.3,0,0.4,0c0.4-0.1,1.2-0.4,1.2-0.4c0.1-0.1,0.2-0.2,0.2-0.2c0.1-0.1,0.2-0.1,0.3-0.1c-0.1,0.1-0.2,0.1-0.3,0.2
				c0,0-0.1,0.1-0.2,0.1c0,0,0.1,0.1,0.1,0.1c0.3,0,0.5,0,0.7-0.1c0.4-0.2,0.7-0.5,1.1-0.6c0.2-0.1,0.4-0.2,0.6-0.4
				c0.3-0.2,0.6-0.5,1-0.7c0.1-0.1,1.7-1.3,2.1-1.8c0.4-0.4,0.6-0.8,0.9-1.3c0.2-0.3,0.3-0.5,0.5-0.8c0.1-0.1,0.8-1.4,1.1-1.9
				c0.2-0.3,0.3-0.6,0.6-0.8c0.1-0.1,0.2-0.1,0.3-0.2c0.1-0.1,0.2-0.1,0.3,0c0.1,0.1,0.3,0.1,0.4,0c0.1,0,0.1,0.1,0.2,0.1
				c0.2,0.1,0.4,0,0.5-0.1c0.1-0.1,0.1-0.1,0.3-0.2c0.1,0,0.3-0.1,0.4-0.2c0.1-0.1,0.1-0.2,0.2-0.2c0.3-0.1,0.6-0.2,1-0.3
				c0.3-0.1,0.7-0.1,1-0.1c0.4,0,0.8,0,1.2,0.3c0.2,0.1,0.4,0.1,0.6,0.1c0.1,0,0.3-0.2,0.4-0.2c0.2-0.1,0.3-0.2,0.4-0.5
				c0.1-0.3,0.3-0.4,0.4-0.7c0.1-0.2,0.2-0.5,0.3-0.7c0.1-0.1,0.1-0.3,0.1-0.4C824.9,542.3,824.9,542,824.9,541.7z"/>
			<path fill="#9BFBD2" d="M811,535.1c-0.1,0.1-0.2,0.2-0.4,0.2c0.2,0.2,0.5,0.1,0.7,0.3c-0.1,0-0.2,0-0.3,0c-0.4,0-0.7-0.1-1.1-0.1
				c-0.2,0-0.5,0-0.7,0c-0.1,0-0.2,0-0.2,0.1c0,0-0.1,0-0.1,0c-0.4,0-0.8,0-1.2,0c-0.1,0-0.1,0-0.2,0c0,0-0.1,0-0.1,0
				c-0.2,0-0.3,0-0.5,0c-0.1,0-0.1,0-0.1-0.1c0,0,0-0.1,0.1-0.1c0.2-0.2,0.4-0.2,0.7-0.3c0.2,0,0.3,0,0.5,0c0.3,0,0.6-0.1,0.9-0.1
				c0.3,0,0.7,0,1,0c0.3,0,0.5,0.1,0.7,0.2c0.1,0,0.2,0,0.2,0C810.9,535.1,810.9,535.1,811,535.1z M809,535.3c-0.2,0-0.4,0-0.7,0.1
				C808.6,535.5,808.8,535.4,809,535.3z M809.9,535.3C809.9,535.3,809.9,535.3,809.9,535.3c0,0,0.1,0,0.1,0c0,0,0,0,0,0
				C810,535.3,809.9,535.3,809.9,535.3z"/>
			<path fill="#9BFBD2" d="M811.8,521.4c-0.1,0-0.2,0-0.4,0c0.1-0.1,0.2,0,0.3-0.1c0.4-0.1-0.1-0.2-0.2-0.1c-0.1,0-1.6,0.1-1.8,0.1
				c-0.6-0.1-0.1,0.1,0.1,0.1c0.1,0,0.8,0,1,0c0.1,0,0.1,0,0,0.1c-0.2,0-0.4,0-0.6,0c0,0-0.4,0-0.4,0c-0.1,0-0.2,0-0.2,0
				c-0.2,0-0.3-0.1-0.5-0.1c-0.1,0-0.2-0.1-0.3,0c0,0.1,0.1,0.1,0.1,0.1c0,0,0.1,0.1,0.1,0.1c0.1,0,0.1,0,0.2,0c0,0,0.1,0,0.1,0
				c0,0,0,0,0,0c-0.1,0-0.3,0-0.4-0.1c0,0.1,0.1,0.2,0.2,0.2c0.2,0,0.4,0.1,0.6,0.1c0.2,0,0.4,0,0.6,0c0.1,0,0.2,0,0.3,0
				c0.5,0,0.9-0.1,1.4-0.2c0.1,0,0.2-0.1,0.2-0.1C812,521.4,811.9,521.4,811.8,521.4z"/>
			<path fill="#9BFBD2" d="M794.4,535c0-0.1,0.2-0.2,0.2-0.2c0.1-0.1,0.2-0.1,0.3-0.2c0-0.1-0.1-0.1-0.1-0.2
				c0.5-0.4,1.8-0.8,2.2-0.7c0,0,0,0-0.1,0c0.1,0,0.1,0,0.1,0c0,0-0.1,0.1-0.1,0.1c0.2,0,0.1,0.2,0.2,0.3c0,0-0.1,0-0.1,0
				c-0.1,0-0.2,0-0.3,0c-0.2,0-0.3,0-0.4,0.1c-0.3,0.1-0.5,0.2-0.8,0.4c-0.2,0.1-0.5,0.2-0.7,0.3C794.6,535,794.6,535.1,794.4,535z"
				/>
			<path fill="#9BFBD2" d="M796.1,538.8c-0.1,0-0.2,0-0.2,0c0-0.2-0.2-0.2-0.3-0.2c0.1,0,0.1-0.1,0.2-0.1c0.3,0,0.6-0.1,0.9-0.2
				c0,0,0.1,0,0.1-0.1c0.1-0.1,0.2-0.1,0.3-0.1c0,0,0.1,0,0.1,0c0.1-0.1,0.3-0.1,0.5,0c0,0.1-0.1,0.1-0.2,0.2
				c-0.1,0.1-0.2,0.1-0.3,0.2c-0.1,0-0.2,0.1-0.3,0.1C796.8,538.6,796.3,538.8,796.1,538.8z"/>
			<path fill="#9BFBD2" d="M803.8,536.4c0-0.1-0.1-0.1-0.1-0.2c0.2,0,0.4-0.1,0.6-0.1c0.1,0,0.2-0.1,0.3-0.1c0.2,0,0.3-0.1,0.5-0.1
				c0.1,0,0.2,0.1,0.3,0.2c0,0.1,0.1,0.2,0.1,0.3c0.1,0,0.3-0.1,0.5-0.1c-0.1,0.2-0.2,0.3-0.4,0.4c-0.3,0.1-0.7,0.3-1.1,0.3
				c-0.2,0-0.4,0.1-0.6,0.1c-0.2,0-0.4,0-0.5,0c-0.2,0-0.3-0.2-0.3-0.4c0-0.1,0.1-0.2,0.2-0.1C803.5,536.6,803.6,536.5,803.8,536.4z
				"/>
			<path fill="#9BFBD2" d="M799.3,537.9c0,0,0-0.1,0-0.1c-0.1,0-0.3-0.1-0.4-0.1c0-0.1,0.1-0.1,0.1-0.2c0.8,0,1.5-0.1,2.2-0.3
				c0,0,0,0,0,0.1c0.2-0.1,0.4-0.1,0.5-0.3c0.1-0.1,0.1,0,0.2,0.1c0,0.1,0,0.2-0.1,0.2c-0.1,0.1-0.2,0.2-0.3,0.3
				c-0.4,0.1-0.8,0.3-1.3,0.4c-0.2,0-0.3,0.1-0.5,0.1c0,0-0.1,0-0.1,0C799.5,538,799.4,537.9,799.3,537.9z M799.4,537.8
				C799.4,537.8,799.4,537.8,799.4,537.8c0.1,0,0.2,0,0.3-0.1C799.6,537.8,799.5,537.8,799.4,537.8z"/>
			<path fill="#9BFBD2" d="M799.8,537.2c0.3-0.1,0.6-0.3,0.9-0.4c0.1,0,0.2-0.1,0.3-0.1c0,0,0,0,0,0c0.2,0,0.4-0.1,0.6-0.2
				c0.1,0,0.2,0,0.3,0c0.1,0.1,0.1,0.2,0,0.2c-0.1,0.1-0.2,0.1-0.3,0.1c-0.5,0.2-1,0.2-1.5,0.4C800.1,537.3,799.9,537.3,799.8,537.2
				z"/>
		</g>
	</g>
	<g>
		<g>
			<path fill="#9BFBD2" d="M841.8,530.7c0.1,0,0.3,0,0.4,0c0,0,0.1,0,0.1,0c0.1,0,0.2-0.1,0.3-0.1c0,0,0-0.1-0.1-0.1
				c0-0.1-0.4-0.1-0.5-0.2c-0.3-0.1-0.6-0.2-0.9-0.2c-0.2,0-0.4,0.1-0.6,0c-0.2-0.1-1.1,0-1.3,0.2c0,0-0.2,0.1-0.2,0.1
				c-0.1,0-0.3,0.1-0.4,0.1c-0.1,0-0.4,0.2-0.4,0.2c0.1,0,0.1,0,0.2,0c0,0,0.1,0,0.1,0c0.2,0.1,0.5,0,0.7,0c0.2,0,1.1-0.1,1.1-0.2
				c0.3,0,0.5,0,0.7,0.1C841.3,530.7,841.6,530.7,841.8,530.7z M839.1,530.6c0,0,0.1,0,0.2,0c0,0,0,0,0,0H839.1z"/>
			<path fill="#9BFBD2" d="M826.7,519.7c0,0,1,0.5,1.2,0.6c0.7,0.2,2.5,0.4,2.6,0.4c0.3,0,1-0.1,1.1-0.2c0.6-0.2,1.2-0.4,1.8-0.6
				c0.4-0.2,0.8-0.3,1.1-0.5c0.1,0,0.4-0.2,0.5-0.3c0.4-0.1,0.5-0.1,0.9-0.2c0,0,0.1,0.1,0.1,0.1c0.1,0.3,0.3,0.5,0.5,0.7
				c0.1,0.1,0.3,0.2,0.4,0.3c0,0,0.1,0,0.1,0.1c0.1,0,0.2,0.1,0.3,0.1c0,0,0,0.1,0.1,0.1c0,0.2,0.2,0.5,0.2,0.6
				c0.1,0.5,0,0.9,0.1,1.3c0,0.1,0,0.2-0.1,0.4c0,0.1-0.3,2.7-0.3,3.3c0,0.2,0,0.4,0,0.5c0,0.4,0,0.7,0,1.1c0,0.2,0,0.5,0,0.7
				c0,0.3,0,0.6,0,1c0,0.1,0,0.5,0,0.5c0,0.1,0,0.2,0,0.3c0,0.2,0,0.3,0,0.5c0,0.2,0,0.4,0,0.6c0,0.2,0,0.4,0,0.7c0,0.3,0,0.7,0,1
				c0,0.4,0,0.8-0.1,1.3c-0.1,0.3,0,0.7,0,1c0,0.3,0,0.6,0,0.9c0,0.4-0.1,0.7-0.2,1.1c0,0.3,0,0.6,0,0.8c-0.1,0.4-0.3,2.5-0.3,3.2
				c0,0.1,0,0.3,0,0.4c0,0.3-0.1,1.7-0.1,1.7c0.1,0.2,0,0.4,0.1,0.7c0,0.1,0,0.1,0,0.2c0,0,0.7,0.6,0.8,0.6c0.1,0,0.2,0.1,0.2,0.1
				c0.2,0.1,0.5,0.2,0.7,0.3c0.4,0.1,0.8,0.1,1.1,0c0.3,0,0.6-0.1,0.8-0.1c0.3,0,0.5-0.1,0.7-0.2c0.1-0.1,0.2-0.1,0.4-0.2
				c0.1,0,0.3-0.3,0.3-0.4c0-0.2,0-0.4,0-0.7c0-0.3,0-0.7,0-1c0-0.7,0.1-1.4,0.1-2.1c0-0.4,0-0.8,0.1-1.2c0-0.5,0.1-1,0.1-1.4
				c0-0.3,0-0.6,0-1c0,0,0-0.2,0-0.3c0-0.1,0.1-0.2,0.1-0.3c0-0.1,0.2-0.8,0.2-0.9c0.1-0.1,0.1-0.5,0.1-0.5c0-0.1,0.4-1.6,0.3-2.1
				c0-0.4,0.1-0.9,0.2-1.3c0-0.1,0.1-0.3,0.1-0.4c0.1,0.1,0.2,0.2,0.2,0.4c0.1,0.3,0.3,0.4,0.6,0.5c0.1,0,0.2,0.1,0.3,0.1
				c0.1,0,0.2,0.1,0.3,0.1c0.2,0,0.4,0,0.6,0c0.3,0,0.8,0,1.1-0.1c0.2-0.1,0.6-0.3,0.8-0.4c0.3-0.2,0.5-0.4,0.7-0.7
				c0.2-0.3,0.4-0.7,0.6-1c0.1-0.1,0.2-0.2,0.3-0.2c0.4,0,0.6-0.1,1-0.1c0.3,0,0.7-0.2,0.9-0.3c0.4-0.1,0.8-0.3,1.1-0.6
				c0.1-0.1,0.8-1.1,1-1.6c0.1,0,0.2,0,0.3-0.1c0.1-0.1,0.2-0.1,0.3-0.1c0.2,0,0.5,0,0.7-0.1c0.1,0,0.1-0.1,0.2-0.1
				c0.2-0.1,0.4-0.1,0.5-0.2c0.2-0.1,0.4-0.2,0.6-0.4c0.1-0.1,0.7-0.4,0.7-0.5c0.2-0.3,0.4-0.6,0.6-0.9c0.5-0.7,0.9-1.4,0.9-2.3
				c0-0.2,0-0.4-0.2-0.5c-0.1-0.1-0.1-0.2-0.1-0.3c0-0.1,0-0.2,0-0.3c0-0.2,0.1-0.5,0.1-0.7c0.1-0.5,0.1-1,0.1-1.5
				c0-0.3,0-0.5,0-0.8c0.1-0.4,0.1-0.8,0-1.2c0-0.4,0-0.8,0-1.1c0-0.2,0-0.5,0-0.7c0-0.3,0-0.6,0-0.8c0-0.3,0-0.6-0.1-0.9
				c0-0.4-0.1-0.7-0.1-1.1c-0.1-0.5-0.1-1-0.3-1.5c-0.2-0.4-0.4-0.7-0.5-1.1c-0.2-0.3-0.4-0.7-0.5-1c-0.1-0.1-0.1-0.3-0.2-0.4
				c-0.2-0.4-0.4-0.7-0.7-1.1c-0.1-0.2-0.3-0.4-0.4-0.6c-0.2-0.2-0.4-0.4-0.5-0.6c-0.1-0.1-0.2-0.2-0.3-0.3
				c-0.2-0.2-0.5-0.3-0.7-0.5c-0.3-0.3-0.6-0.6-0.9-0.8c-0.1-0.1-0.2-0.2-0.4-0.2c0.1,0.1,0.1,0.2,0.2,0.3c0.3,0.3,0.5,0.5,0.8,0.8
				c0.1,0.2,0.3,0.3,0.4,0.5c0.2,0.2,0.4,0.4,0.5,0.6c0.2,0.3,0.4,0.6,0.7,0.9c0.1,0.1,0.1,0.2,0.1,0.2c0.1,0.1,0.1,0.2,0.2,0.4
				c0,0.1,0.1,0.1,0.2,0.1c0.1,0,0.1,0,0.1,0.1c0,0.1,0,0.2,0.1,0.3c0.1,0.1,0.2,0.2,0.2,0.4c0.1,0.3,0.2,0.7,0.4,1c0,0,0,0,0,0
				c0.1,0.2,0.1,0.3,0.2,0.5c0,0.1,0.5,1.4,0.5,1.3c0.1,0.2,0.2,0.3,0.2,0.5c0,0,0,0.3,0,0.4c0,0.1,0,0.3,0.1,0.4
				c0,0.1,0.1,0.1,0.1,0.1c0,0.1,0,0.3,0,0.3c0,0.1,0,0.2,0,0.2c0.1,0.1,0.1,0.2,0.1,0.3c0,0.2,0,0.4,0,0.7c0,0.1,0,0.3,0.1,0.4
				c0,0.3,0.1,0.6,0.1,0.9c0,0.3,0,0.6,0,0.8c0,0.2,0,0.4,0,0.6c0,0.5,0,1.1-0.1,1.6c0,0.2-0.1,0.5-0.1,0.7
				c-0.1,0.4-0.1,0.8-0.1,1.2c0,0.2,0,0.4,0,0.5c0,0.2,0.1,0.4,0.3,0.6c0.1,0.1,0.2,0.3,0.3,0.4c0,0,0,0.1,0,0.1
				c-0.1,0.2-0.1,0.5-0.2,0.7c0,0.1-0.1,0.3-0.1,0.4c0,0.1,0,0.1,0,0.2c0,0.1-0.1,0.1-0.1,0.2c-0.1,0.2-0.3,0.5-0.4,0.7
				c-0.1,0.2-0.3,0.3-0.4,0.5c-0.2,0.3-0.4,0.5-0.7,0.6c-0.1,0.1-0.2,0.1-0.3,0.2c-0.1,0.1-0.2,0.2-0.3,0.2
				c-0.3,0.1-0.5,0.2-0.8,0.2c-0.2,0-0.4,0-0.6,0c-0.1,0-0.2,0-0.3,0c-0.2,0.1-0.3,0.1-0.5,0c-0.1,0-0.1-0.1-0.1-0.2
				c-0.1-0.2-0.1-0.4-0.2-0.6c-0.1-0.2-0.1-0.5-0.2-0.7c0-0.2,0-0.4-0.1-0.6c-0.1-0.3-0.1-0.5-0.1-0.8c0-0.2,0-0.4,0-0.6
				c-0.1-0.4-0.1-0.7,0-1.1c0-0.1,0.1-0.3,0.2-0.4c0,0,0.1-0.1,0.1-0.1c0.1-0.2,0.2-0.4,0.3-0.6c0-0.1,0.1-0.2,0.1-0.2
				c0.1,0,0.1,0.1,0.2,0.1c0.2,0.1,0.4,0.1,0.6,0.1c0.1,0,0.3-0.1,0.4-0.1c0.1,0,0.3-0.1,0.4-0.2c0-0.1,0.1-0.1,0.2-0.2l0,0
				c0-0.1,0.1-0.1,0.1-0.2l0,0c0-0.1,0.1-0.3,0.1-0.4c0-0.1,0-0.2,0.1-0.3c0,0,0,0,0,0c0.1,0.1,0.2,0.2,0.3,0.4c0,0,0,0.1,0,0.1
				c0,0.2,0,0.5-0.1,0.7c0,0.1-0.1,0.2-0.1,0.2c-0.1,0-0.2,0-0.2-0.1c0,0,0,0,0,0c0.1,0.2,0.1,0.4,0.3,0.5c0.3,0.3,0.4,0.7,0.5,1
				c0,0,0,0.1,0,0.1c0,0.1,0,0.2,0.1,0.3c0.1,0.3,0.2,0.7,0.3,1c0,0.1,0.1,0.3,0.2,0.4c0.1,0,0.2,0,0.3-0.1c0-0.2,0-0.4,0-0.5
				c0,0,0-0.1,0-0.1c-0.1-0.2-0.1-0.5-0.2-0.7c0-0.2-0.1-0.3-0.1-0.5c0.1,0.1,0.2,0.1,0.3,0.2c0,0,0.1,0,0.2,0
				c0-0.1,0.1-0.1,0.2-0.1c0-0.1-0.1-0.1-0.1-0.2c-0.2-0.2-0.4-0.4-0.7-0.3c0-0.1-0.1-0.3-0.1-0.4c0-0.1-0.1-0.2-0.2-0.4
				c0.2-0.1,0.4-0.1,0.6-0.2c0.2-0.1,0.4,0,0.7,0c-0.1-0.1-0.2-0.2-0.2-0.4c0-0.1-0.1-0.1-0.2-0.1c-0.1,0-0.2,0-0.3,0.1c0,0,0,0,0,0
				c0.1-0.1,0.1-0.1,0.2-0.2c-0.2-0.1-0.2-0.1-0.3,0c-0.1,0.1-0.3,0.2-0.5,0.3c0-0.2,0-0.4,0.1-0.6c0-0.2,0-0.3-0.1-0.4
				c0-0.1-0.1-0.2-0.1-0.3c0-0.1-0.1-0.3-0.3-0.3c-0.1-0.1-0.3-0.1-0.4-0.2c-0.1,0-0.1-0.1-0.2-0.1c-0.1,0-0.3,0-0.4-0.1
				c0,0-0.1,0-0.1,0c-0.2,0.1-0.4,0.1-0.6,0.1c-0.2,0-0.3,0.1-0.4,0.3c-0.2,0.3-0.2,0.7-0.4,1c0,0,0,0.1-0.1,0.1
				c-0.1-0.2-0.2-0.3-0.3-0.4c-0.1-0.1-0.2-0.3-0.3-0.4c0-0.1-0.1-0.1-0.2-0.1c0,0-0.1,0-0.1-0.1c-0.2-0.1-0.4-0.3-0.6-0.4
				c0,0,0,0,0,0c0.2,0,0.4-0.1,0.6-0.1c0.1,0,0.2,0,0.2,0c0.1,0,0.1,0,0.2,0c0,0,0.1,0,0.1,0c0.2-0.1,0.5,0,0.7,0c0.2,0,0.5,0,0.7,0
				c0.3,0,0.5,0.1,0.8,0c0.1,0,0.4-0.1,0.4-0.1c0.3,0,0.6,0.1,0.9,0c0.1,0,0.1,0,0.2-0.1c0,0-0.1-0.1-0.1-0.1
				c-0.1-0.1-0.2-0.2-0.4-0.1c-0.2,0-0.3,0.1-0.5,0.1c-0.1,0-0.2,0.1-0.4,0.1c-0.3,0-0.7,0-1,0c0,0-0.1,0-0.1,0
				c1.2-0.3,2.4-0.5,3.5-0.8c0-0.1,0-0.3,0-0.5c-0.2-0.2-0.3-0.2-0.5-0.2c-0.1,0-0.2,0-0.3,0.1c0,0-0.1,0-0.1,0
				c-0.2,0.1-0.4,0.1-0.6,0.2c-0.2,0-0.3,0-0.5,0.2c-0.1,0.1-0.2,0.1-0.3,0.1c-0.2,0-0.5,0.1-0.7,0.2c-0.1,0-0.3,0-0.4,0
				c0,0-0.1,0.1-0.1,0.1c0,0-0.1,0-0.1,0c0-0.1-0.1,0-0.1,0c-0.3,0.1-0.6,0-0.9,0.2c0,0,0,0-0.1,0c-0.1,0-0.1,0-0.2,0
				c-0.1,0-0.2,0-0.2,0c-0.1,0-0.2-0.1-0.2,0.1c-0.1,0-0.2,0.1-0.2,0.1c-0.2,0-0.3,0-0.5,0c-0.1,0-0.1,0-0.2,0
				c-0.2,0-0.3,0.1-0.5,0.1c-0.1,0-0.2,0-0.2,0.1c-0.2,0-0.5,0.1-0.7,0.1c-0.2,0-0.4,0.1-0.5,0.2c-0.1,0-0.3,0.1-0.4,0.1
				c-0.1,0.1-0.1,0-0.1-0.1c-0.1,0-0.2,0.1-0.3,0.1c-0.1,0.1-0.2,0.1-0.4,0.1c0,0-0.1,0-0.1,0c-0.2,0-0.3,0.1-0.5,0.1
				c0,0-0.1,0-0.1,0c0,0-0.1,0-0.1,0c-0.1,0-0.2,0-0.3,0c-0.1,0-0.1,0.1-0.2,0c0-0.2,0.1-0.3,0.2-0.4c0.3-0.4,0.6-0.7,0.8-1.1
				c0-0.1,0.1-0.1,0.1-0.1c0,0,0.1-0.1,0.1-0.1c0.2-0.1,0.4-0.1,0.6-0.2c0.6-0.2,1.2-0.3,1.8-0.5c0.3-0.1,0.6-0.2,0.9-0.3
				c0-0.1,0.1-0.1,0.2-0.2c0.2-0.1,0.4-0.2,0.7-0.3c-0.1,0-0.2-0.1-0.2-0.1c-0.2,0-0.4,0-0.5,0.1c-0.2,0.1-0.4,0.2-0.6,0.3
				c-0.5,0.2-1,0.3-1.5,0.4c-0.3,0-0.5,0.1-0.8,0.1c0,0,0-0.1,0.1-0.1c0.2-0.2,0.3-0.4,0.5-0.6c0.3-0.4,0.5-0.7,0.7-1.1
				c0-0.1,0.1-0.2,0-0.3c0,0,0-0.1,0-0.1c0.1-0.2,0.2-0.4,0.3-0.7c0-0.1,0-0.1,0-0.2c0,0-0.1-0.1-0.1-0.1c0,0-0.1,0.1-0.1,0.1
				c-0.2,0.3-0.3,0.6-0.5,0.9c-0.1,0.3-0.3,0.5-0.5,0.7c-0.4,0.4-0.7,0.8-1,1.3c0,0.1-0.1,0.1-0.1,0.2c0,0.1,0,0.2-0.1,0.2
				c-0.2,0-0.3,0-0.5,0.1c-0.5,0.1-1,0.2-1.5,0.3c-0.1,0-0.1,0-0.2,0c-0.1,0-0.1,0-0.2,0c-0.1,0-0.1,0-0.2,0c-0.1,0-0.1,0-0.2,0.1
				c0,0-0.1,0-0.2,0c0,0-0.1,0-0.1,0c-0.1,0-0.1,0.1-0.2,0.1c-0.2,0-0.4,0.1-0.5,0.1c-0.2,0-0.4,0.1-0.6,0.2c-0.2,0-0.4,0.1-0.6,0.1
				c0.1-0.2,0.2-0.4,0.4-0.5c0.3-0.2,0.6-0.5,0.9-0.8c0.5-0.5,1-1,1.4-1.6c0.6-0.7,1.2-1.4,1.7-2.2c0.1-0.1,0.1-0.2,0.2-0.3
				c0,0,0-0.1,0.1-0.1c0.3-0.4,0.6-0.9,0.8-1.4c0.1-0.1,0.1-0.3,0.1-0.4c0.1-0.3,0.3-0.6,0.3-1c0-0.3,0.1-0.5,0.1-0.8
				c0-0.1,0-0.3,0-0.4c0,0,0-0.1,0-0.1c0,0,0,0,0,0c-0.1,0.3-0.2,0.5-0.3,0.8c-0.1,0.2-0.1,0.3-0.2,0.5c0,0.2-0.1,0.3-0.2,0.5
				c-0.1,0.1-0.1,0.2-0.1,0.3c0,0.1,0,0.2-0.1,0.3c-0.1,0.2-0.3,0.5-0.5,0.7c-0.1,0.2-0.3,0.4-0.4,0.6c0,0,0,0.1,0,0.1
				c-0.1,0.1-0.1,0.2-0.2,0.3c0,0,0,0.1-0.1,0.1c-0.2,0.3-0.4,0.6-0.6,0.8c-0.1,0.2-0.2,0.3-0.3,0.5c0,0.1-0.1,0.2-0.1,0.3
				c0,0,0-0.1,0-0.1c-0.1,0.2-0.2,0.3-0.4,0.5c0,0,0,0.1,0,0.1c0.1,0,0,0.1,0,0.1c0,0.1-0.1,0.1-0.1,0.2c-0.1,0.2-0.3,0.3-0.4,0.5
				c-0.1,0.1-0.1,0.2-0.2,0.2c-0.1,0-0.1,0.1-0.1,0.2c0,0,0,0.1-0.1,0.1c-0.1,0.1-0.2,0.2-0.2,0.3c0,0-0.1,0.1-0.1,0.1
				c0,0-0.1-0.1-0.1,0c-0.2,0.2-0.4,0.4-0.6,0.5c-0.1,0.1-0.2,0.2-0.4,0.4c-0.1,0.1-0.2,0.2-0.3,0.3c-0.2,0.1-0.4,0.3-0.6,0.4
				c0,0-0.1,0.1-0.1,0.1c-0.1,0.1-0.2,0.1-0.3,0.2c-0.2,0.1-0.3,0.1-0.5,0.1c-0.4,0.1-0.8,0.1-1.2,0.2c-0.2,0-0.4,0.1-0.7,0.2
				c0.1,0.1,0.2,0.1,0.2,0.1c0.1,0.1,0.2,0.1,0.3,0c0,0,0.1,0,0.1,0c0.2,0,0.4,0,0.5,0c0.2,0,0.6,0,0.7,0c0.2-0.1,0.5-0.1,0.7-0.1
				c0.1,0,0.2-0.1,0.3-0.1c0.3,0,0.5-0.1,0.8-0.1c0.1,0,0.2,0,0.3,0c0.2,0,0.3-0.1,0.5-0.1c0.1,0,0.1,0,0.2,0c0.1,0,0.2,0,0.3,0
				c0.3-0.1,0.6,0,0.9-0.1c0,0,0,0,0,0c0,0,0.1,0,0.1,0c0.3-0.1,0.7-0.2,1-0.2c0.1,0,0.2,0,0.3-0.1c0.1-0.1,0.2-0.1,0.3-0.1
				c0.1,0,0.2,0,0.3,0c0,0,0,0.1,0,0.1c-0.1,0.2-0.3,0.4-0.4,0.6c-0.2,0.3-0.3,0.6-0.4,0.8c-0.1,0.1-0.2,0.2-0.3,0.3
				c-0.3,0-0.6,0.1-0.8,0.1c-0.3,0-0.6,0.1-0.9,0.1c-0.3,0-0.5,0-0.8,0.1c-0.2,0-0.5,0.1-0.7,0.1c-0.3,0.1-0.6,0.1-0.8,0.2
				c-0.1,0-0.2,0.1-0.3,0.1c0,0,0,0.1-0.1,0.1c0.1,0,0.2,0,0.3,0c0.6,0,1.1-0.1,1.7-0.1c0.1,0,0.1,0,0.2,0c0.4-0.1,0.9-0.2,1.3-0.1
				c0.1,0,0.1,0,0.2-0.1c0.1-0.1,0.3-0.1,0.5-0.1c-0.1,0.1-0.2,0.2-0.2,0.2c0.1,0.1,0.1,0.1,0.2,0.2c-0.1,0-0.1,0.1-0.2,0.1
				c-0.1,0-0.2,0.1-0.3,0.2c-0.1,0.1-0.2,0.2-0.3,0.3c-0.1,0.1-0.1,0.1-0.2,0.2c-0.1,0.3-0.3,0.5-0.3,0.8c0,0,0,0.1-0.1,0.1
				c-0.1,0.2-0.2,0.4-0.2,0.6c0,0.1,0,0.3,0,0.4c-0.1,0.3-0.1,0.6-0.1,0.9c0,0.2,0,0.3,0,0.5c0,0.3-0.1,0.6-0.1,0.9
				c0,0.3-0.1,0.7-0.1,1c0,0.3-0.1,0.6-0.1,0.8c-0.1,0.6-0.1,1.3-0.2,1.9c0,0.2,0,0.3,0,0.5c0,0.2,0.1,0.3,0.1,0.5c0,0,0,0.1,0,0.1
				c-0.1,0.1-0.2,0.3-0.2,0.5c0,0.2-0.1,0.4-0.1,0.6c0,0.1-0.1,0.3-0.1,0.4c0,0.3-0.1,0.6-0.1,0.9c0,0.2,0.1,0.9,0.1,0.9
				c-0.1,0.4-0.1,0.7-0.3,1.1c0,0.1-0.2,1.2-0.3,1.6c-0.1,0.3-0.1,0.7-0.1,1c0,0.5-0.1,1-0.1,1.5c0,0.1,0,0.2,0,0.3c0,0.5,0,1,0,1.4
				c0,0.4,0,0.8,0,1.3c0,0.3,0,0.5,0,0.8c0,0.3,0,0.7-0.1,1c0,0.2,0.1,0.6-0.1,0.7c-0.4,0.2-1.4,0.3-1.5,0.3c-0.4,0-0.8,0-1.2,0
				c-0.1,0-0.6-0.1-0.7-0.1c-0.3-0.2-0.5-0.4-0.8-0.6c-0.1-0.1-0.1-0.1-0.1-0.2c0-0.1,0-0.1,0-0.2c0-0.3,0-0.6,0-0.8
				c0-0.4,0.1-0.7,0.1-1.1c0.1-0.4,0.1-0.8,0.2-1.3c0-0.5,0.1-1.1,0.2-1.6c0-0.1,0-0.6,0-0.8c0.1-0.4,0.2-0.9,0.3-1.3
				c0.1-0.4,0-0.7,0-1.1c0-0.2,0-1-0.1-1.1c0-0.4,0-0.7,0-1.1c0-0.2,0.3-2.6,0.3-2.6c0-0.2-0.1-0.5-0.1-0.6s-0.1-1.2,0-1.6
				c0,0,0,0,0-0.1c0-0.2,0-0.4-0.1-0.7c-0.1-0.3,0-0.6,0-1c0-0.3,0.1-0.6,0.1-0.9c0-0.3,0-0.6,0-0.9c0-0.5-0.1-0.9,0-1.4
				c0-0.2,0.1-0.4,0.1-0.6c0.1-0.4,0.2-1.3,0.2-1.3c0-0.2-0.1-0.5,0-0.7c0.1,0.1,0.3,0.2,0.3,0.3c0.1,0.1,0.2,0.3,0.2,0.5
				c0,0.1,0.1,0.1,0.2,0.2c0.1,0,0.1,0,0.2,0.1c0,0,0,0.1,0.1,0.1c0.1,0.1,0.1,0.1,0.3,0.1c0.1,0,0.1-0.1,0-0.2c0,0-0.1-0.1-0.1-0.1
				c0-0.1,0.1-0.1,0.1-0.1c-0.1-0.1-0.2-0.1-0.1-0.2c0,0,0.1,0,0.1,0c0,0,0,0,0,0c0-0.2-0.1-0.3-0.2-0.3c-0.2-0.1-0.4-0.2-0.5-0.4
				c-0.1-0.1-0.3-0.3-0.4-0.4c-0.1-0.1-0.3-0.2-0.4-0.3c-0.2-0.2-0.4-0.4-0.7-0.6c-0.2-0.2-0.3-0.3-0.5-0.5
				c-0.1-0.1-0.1-0.3-0.1-0.5c0.1,0,0.3-0.1,0.4-0.1c0.1-0.1,0.7-0.1,0.7-0.2c0.2,0,0.4,0.1,0.5,0c0-0.2-0.1-0.3-0.3-0.3
				c-0.1,0-0.3,0-0.4-0.1c-0.2-0.1-0.5-0.1-0.8-0.2c0,0-0.1,0-0.1,0c-0.2,0.1-0.3,0.2-0.5,0.2c-0.2,0.1-0.3,0.2-0.5,0.1
				c0,0-0.2,0.1-0.2,0.1c-0.2,0.1-0.4,0.2-0.6,0.3c-0.1,0.1-0.3,0.1-0.4,0.2c-0.3,0.2-0.7,0.4-1,0.6c-0.1,0-0.1,0-0.2,0.1
				c-0.4,0.3-0.9,0.4-1.3,0.6c0,0-0.1,0-0.2,0c0.2-0.3,0.3-0.6,0.5-0.9c0.2-0.3,0.3-0.6,0.3-1c0-0.1,0-0.2-0.1-0.3
				c-0.2,0-0.1,0.2-0.2,0.3c0-0.1,0-0.2,0-0.3c0,0-0.1,0-0.1,0c0-0.4,0.1-0.8,0.1-1.3c0,0-0.1-0.1-0.1-0.1c-0.2,0.3-0.1,0.6-0.2,0.9
				c-0.1,0-0.2,0.1-0.2,0.2c0,0.1,0,0.2,0,0.3c0,0.4-0.1,0.8-0.2,1.2c-0.1,0.2-0.1,0.4-0.2,0.5c0,0.2-0.1,0.3-0.1,0.5
				c-0.3,0.1-1.2,0.1-1.4,0.1c-0.4,0-1.4-0.2-1.6-0.3c-0.3-0.1-0.8-0.1-1.1-0.1c-0.4-0.1-0.8-0.2-1.1-0.5c-0.3-0.2-0.5-0.5-0.7-0.4
				C825.9,519.2,826.4,519.6,826.7,519.7z M855,507.8c0,0.1,0.1,0.1,0.1,0.2C855,508,855,507.9,855,507.8z M852.9,520
				c0.1-0.2,0.2-0.4,0.2-0.5c0.1,0,0.1,0,0.2,0c0.2-0.3,0.5-0.3,0.8-0.3c0,0.2,0,0.4-0.1,0.5c-0.1,0.2-0.2,0.4-0.3,0.6
				c0,0.1-0.1,0.1-0.1,0.1c-0.1,0-0.1,0-0.2,0c-0.2,0.1-0.3,0-0.5,0c0,0,0-0.1,0-0.1C852.8,520.3,852.9,520.1,852.9,520z
				 M852.8,518.6c-0.1,0.1-0.3,0.1-0.4,0.1c0,0,0,0,0-0.1C852.5,518.6,852.6,518.6,852.8,518.6z M851.7,518.2
				C851.7,518.3,851.7,518.3,851.7,518.2c-0.1,0.1-0.2,0.1-0.3,0.1c0,0,0,0,0,0C851.5,518.3,851.6,518.3,851.7,518.2z M844.5,519.9
				C844.5,519.9,844.5,519.9,844.5,519.9l0.2-0.1c0,0,0,0,0,0C844.6,519.9,844.6,519.9,844.5,519.9z M844,531.3c0.1,0,0.1,0,0.2,0
				c0,0,0,0,0,0L844,531.3C844,531.3,844,531.3,844,531.3z M851.4,521.1c0.1-0.2,0.2-0.5,0.2-0.8c0-0.1,0-0.2-0.1-0.3
				c0.1,0,0.1,0.1,0.1,0.1c0.1,0.2,0.2,0.3,0.2,0.5c0,0,0,0.1,0,0.1c0,0.1,0,0.1,0,0.2c0,0,0,0.1,0,0.2c-0.1,0.2-0.2,0.5-0.2,0.8
				c-0.1,0.2-0.1,0.4-0.1,0.7c0,0.1,0,0.3,0,0.4c0,0.1,0,0.2,0,0.2c0,0.2,0,0.3,0,0.5c0.1,0,0.1,0.1,0.1,0.2c0,0.1,0.1,0.3,0.1,0.4
				c0,0.2,0.1,0.4,0,0.5c0,0.1,0,0.2,0,0.2c0,0.3,0,0.7,0.1,1c0.1,0.3,0.2,0.6,0.1,1c0,0.1,0,0.3,0,0.4c0,0,0,0,0,0
				c0-0.1,0-0.1,0.1-0.2c0-0.1,0-0.1,0.2-0.1c0,0,0.1,0,0.1,0c0-0.1,0-0.2,0-0.3c0.1,0.1,0.1,0.1,0.1,0.2c-0.1,0.1-0.1,0.3-0.2,0.4
				c-0.1,0.2-0.3,0.3-0.5,0.5c0,0.1-0.1,0.1-0.1,0.2c0,0.1,0,0.1-0.1,0.2c-0.1,0.1-0.2,0.1-0.3,0.2c-0.2,0.1-0.4,0.2-0.6,0.2
				c-0.1,0.1-0.3,0.1-0.4,0.1c0,0,0-0.1-0.1-0.1c0.2-0.1,0.5-0.2,0.7-0.3c0.2-0.1,0.3-0.1,0.5-0.2c0.1,0,0.1-0.1,0.1-0.2
				c0-0.1,0-0.1-0.1-0.2c0,0-0.1,0-0.1,0c-0.1,0-0.1,0.1-0.2,0.1c0,0-0.1,0-0.1,0c0,0-0.1,0.1-0.1,0.1c-0.1,0.2-0.2,0.3-0.4,0.3
				c-0.4,0.1-0.7,0.2-1.1,0.3c-0.4,0.1-0.8,0.1-1.2,0.1c0,0.2,0.2,0.4,0.3,0.3c0.1,0,0.1-0.1,0.2,0c0.3,0.1,0.6,0,0.9,0
				c-0.3,0.2-0.5,0.3-0.9,0.3c0,0-0.1,0-0.1,0c-0.2,0-0.3,0-0.5-0.2c-0.1-0.1-0.2-0.2-0.2-0.2c0,0-0.1-0.1-0.1-0.1
				c-0.1-0.2-0.1-0.4-0.2-0.6c-0.1-0.4-0.2-0.9-0.3-1.3c-0.1-0.8-0.2-1.6-0.2-2.4c0-0.1,0-0.1,0-0.2c0.1-0.2,0.1-0.3,0-0.5
				c0-0.1,0-0.1,0-0.2c0-0.1,0.1-0.2,0.1-0.3c0.1-0.2,0.1-0.5,0.2-0.7c0.1-0.2,0.1-0.3,0.2-0.5c0.3-0.5,0.5-0.9,0.8-1.4
				c0,0.1,0,0.3,0.1,0.4c0.2,0.2,0.3,0.4,0.6,0.4c0.1,0,0.1,0,0.2,0c0.2-0.1,0.3-0.1,0.5-0.1c0.4,0,0.8-0.2,1.1-0.5c0,0,0,0,0,0
				C851.3,521.2,851.3,521.2,851.4,521.1z M848.2,520.8c-0.3-0.3-0.7-0.5-1.1-0.7c0.6-0.1,1.2-0.2,1.8-0.2c0,0.2-0.1,0.3-0.2,0.4
				c0,0-0.1,0.1-0.1,0.1C848.5,520.6,848.4,520.7,848.2,520.8z M851,519.7c0.1,0.1,0.2,0.1,0.3,0.2c0.1,0.1,0.1,0.1,0,0.2
				c0,0-0.1,0-0.1,0c-0.2-0.1-0.3,0-0.3,0.2c0,0.1-0.1,0.3-0.1,0.4c0,0.2-0.2,0.4-0.4,0.5c-0.2,0.2-0.4,0.2-0.7,0.2
				c-0.1,0-0.2,0-0.4-0.1c-0.1-0.1-0.1-0.1-0.1-0.2c0-0.2,0.1-0.3,0.1-0.5c0-0.1,0-0.3,0.1-0.4c0-0.1,0-0.2,0.1-0.2
				c0,0,0-0.1,0.1-0.1c0-0.1,0.1-0.1,0.1-0.2C850.1,519.5,850.5,519.4,851,519.7z M849.5,518.7L849.5,518.7l0.1,0l0,0
				c-0.1,0-0.2,0-0.2,0.1c0,0,0,0,0,0C849.4,518.7,849.5,518.7,849.5,518.7z M845.6,520c0.2-0.1,0.4-0.1,0.7-0.1
				c0.8-0.2,1.6-0.3,2.4-0.5c0.3-0.1,0.5-0.1,0.8-0.1c0,0,0.1,0,0.1,0c-0.1,0.2-0.3,0.3-0.4,0.5c-0.5,0-1,0.1-1.5,0.1
				c-0.3,0-0.6,0.1-0.9,0.1c0,0,0,0,0,0c-0.4-0.1-0.7,0.1-1.1,0.2c0,0,0,0-0.1,0c0,0,0,0,0,0C845.4,520,845.5,520,845.6,520z
				 M845.4,520.8c-0.1-0.1-0.1-0.1-0.2-0.2c0-0.1,0.1-0.2,0.2-0.1c0,0,0,0,0,0c0.1-0.2,0.3-0.2,0.4-0.2c0.1,0,0.2,0,0.3,0
				c0.1,0,0.3-0.1,0.3,0.1c0,0,0.1,0,0.1,0c0,0,0.1,0,0.1,0c0.4,0.2,0.4,0.2,0.3,0.5c0,0.1,0,0.2,0,0.2c0,0.3-0.4,0.7-0.7,0.7
				c-0.4,0.1-0.7,0.1-1,0c0,0-0.1,0-0.1,0c-0.2,0-0.3-0.1-0.4-0.3C845,521.3,845,521,845.4,520.8z M844.5,521.1
				C844.5,521.1,844.5,521.1,844.5,521.1C844.5,521.2,844.5,521.2,844.5,521.1C844.5,521.2,844.5,521.2,844.5,521.1
				C844.5,521.2,844.5,521.1,844.5,521.1z M843.2,529.2c0-0.5,0.1-1,0.2-1.5c0.1-0.4,0.1-0.8,0.2-1.2c0.1-0.4,0.1-0.8,0.2-1.2
				c0.1-0.3,0.1-0.7,0.1-1c0-0.3,0-0.7,0-1c0-0.2,0-0.4,0.1-0.6c0-0.3,0.1-0.5,0.2-0.8c0-0.1,0.1-0.2,0.1-0.3c0-0.1,0.1-0.1,0.1-0.2
				c0,0.1,0,0.1,0,0.1c-0.1,0.4,0.1,0.6,0.4,0.6c0.3,0.1,0.6,0.2,0.9,0.2c0.1,0,0.2,0,0.3,0c0.3,0,0.6-0.1,0.9-0.1
				c0.1,0,0.2-0.1,0.3-0.2c0.1-0.2,0.3-0.4,0.4-0.6c0-0.1,0.1-0.1,0.1-0.2c-0.1-0.1-0.2-0.1-0.1-0.3c0-0.1-0.1-0.2-0.1-0.3
				c0.3,0.1,0.4,0.3,0.4,0.5c0,0,0,0.1,0,0.1c-0.1,0.3-0.3,0.6-0.5,0.9c-0.1,0.2-0.2,0.4-0.3,0.7c-0.1,0.2-0.1,0.5-0.1,0.7
				c0,0.1,0,0.1,0,0.2c0.1,0.2,0.1,0.3,0.1,0.5c0,0.5,0,1,0,1.5c0,0.2,0,0.3,0,0.5c0,0.1,0,0.3,0,0.4c0,0.3,0.1,0.5,0.1,0.8
				c0,0.1,0,0.3,0,0.4c0,0.1,0,0.1,0,0.2c0.1,0.4,0.1,0.7,0.1,1.1c0,0.2,0,0.3,0,0.4c0,0.1,0,0.2,0.1,0.3c0.1,0,0.2,0.1,0.3,0.1
				c0.1,0,0.2,0,0.2-0.2c0-0.1,0.1-0.2,0.2-0.1c0.1,0,0.1,0,0.2,0.1c-0.1,0.2-0.2,0.4-0.3,0.6c-0.1,0.1-0.7,1.2-1.2,1.3
				c-0.4,0.1-0.9,0.2-1.3,0.2c-0.4,0-0.7-0.1-1.1-0.1c-0.1,0-0.1-0.1-0.2-0.1c0,0,0-0.1,0-0.1c0.3,0,0.6,0.1,0.9,0.1
				c0.3,0,0.5,0,0.8,0c0.2,0,0.3-0.1,0.5-0.2v-0.3c0,0,0.2-0.1,0.2-0.1c0.2-0.1,0-0.1,0-0.1c0,0,0.2-0.3,0-0.2
				c-0.1,0-1.1,0.2-1.4,0.2c-0.3,0-0.5,0.1-0.7,0.3c0,0,0,0,0,0c-0.1,0-0.3,0-0.4-0.1c0,0-0.1-0.1-0.1-0.1c-0.1-0.3-0.3-0.6-0.5-0.8
				C843.2,529.9,843.2,529.6,843.2,529.2z M844.6,531.2 M845.6,531.2c0.2,0,0.3-0.1,0.5-0.1l0,0C846,531.3,845.8,531.3,845.6,531.2
				C845.6,531.3,845.6,531.3,845.6,531.2z"/>
			<path fill="#9BFBD2" d="M825.1,518.3c0,0.1,0,0.2,0.1,0.2c0.1-0.1,0.1-0.2,0.1-0.3c0-0.2,0-0.3,0.1-0.5c0.1-0.2,0.2-0.3,0.3-0.5
				c0.1-0.2,0.2-0.4,0.3-0.6c0-0.1,0.5-0.8,0.7-1c0-0.1,0.1-0.1,0.2-0.2c0,0,0,0,0,0c0,0,0.4,0.2,0.5,0.2c0.2,0,0.4,0,0.6,0.1
				c0.3,0,0.6,0.1,0.8,0.1c0.4,0,0.7-0.1,1.1-0.2c0.6-0.2,1.1-0.4,1.6-0.8c0.1-0.1,0.1-0.1,0.2,0c0.2,0.1,0.4,0.2,0.7,0.3
				c0.3-0.1,0.5-0.2,0.7-0.4c0.2-0.2,0.4-0.4,0.6-0.6c0.1-0.1,0.1-0.1,0.2-0.2c0-0.1,0.1-0.1,0.1-0.2c0.2-0.3,0.5-0.7,0.7-1
				c0.3-0.4,0.5-0.8,0.8-1.2c0.1-0.1,0.1-0.2,0.2-0.3c0.1-0.2,0.3-0.5,0.4-0.7c0.4-0.5,0.9-0.9,1.4-1.4c0.2-0.2,0.4-0.3,0.7-0.5
				c0.2-0.2,0.5-0.4,0.7-0.6c0.5-0.3,0.9-0.6,1.4-0.9c0.5-0.3,1.5-0.7,1.5-0.8c0.5-0.3,1-0.6,1.6-0.8c-0.1,0-0.3,0-0.4,0
				c-0.4,0.1-1.2,0.4-1.2,0.4c-0.1,0.1-0.2,0.2-0.2,0.2c-0.1,0.1-0.2,0.1-0.3,0.1c0.1-0.1,0.2-0.1,0.3-0.2c0,0,0.1-0.1,0.2-0.1
				c0,0-0.1-0.1-0.1-0.1c-0.3,0-0.5,0-0.7,0.1c-0.4,0.2-0.7,0.5-1.1,0.6c-0.2,0.1-0.4,0.2-0.6,0.4c-0.3,0.2-0.6,0.5-1,0.7
				c-0.1,0.1-1.7,1.3-2.1,1.8c-0.4,0.4-0.6,0.8-0.9,1.3c-0.2,0.3-0.3,0.5-0.5,0.8c-0.1,0.1-0.8,1.4-1.1,1.9
				c-0.2,0.3-0.3,0.6-0.6,0.8c-0.1,0.1-0.2,0.1-0.3,0.2c-0.1,0.1-0.2,0.1-0.3,0c-0.1-0.1-0.3-0.1-0.4,0c-0.1,0-0.1-0.1-0.2-0.1
				c-0.2-0.1-0.4,0-0.5,0.1c-0.1,0.1-0.1,0.1-0.3,0.2c-0.1,0-0.3,0.1-0.4,0.2c-0.1,0.1-0.1,0.2-0.2,0.2c-0.3,0.1-0.6,0.2-1,0.3
				c-0.3,0.1-0.7,0.1-1,0.1c-0.4,0-0.8,0-1.2-0.3c-0.2-0.1-0.4-0.1-0.6-0.1c-0.1,0-0.3,0.2-0.4,0.2c-0.2,0.1-0.3,0.2-0.4,0.5
				c-0.1,0.3-0.3,0.4-0.4,0.7c-0.1,0.2-0.2,0.5-0.3,0.7c-0.1,0.1-0.1,0.3-0.1,0.4C825.1,517.7,825.1,518,825.1,518.3z"/>
			<path fill="#9BFBD2" d="M839,524.9c0.1-0.1,0.2-0.2,0.4-0.2c-0.2-0.2-0.5-0.1-0.7-0.3c0.1,0,0.2,0,0.3,0c0.4,0,0.7,0.1,1.1,0.1
				c0.2,0,0.5,0,0.7,0c0.1,0,0.2,0,0.2-0.1c0,0,0.1,0,0.1,0c0.4,0,0.8,0,1.2,0c0.1,0,0.1,0,0.2,0c0,0,0.1,0,0.1,0c0.2,0,0.3,0,0.5,0
				c0.1,0,0.1,0,0.1,0.1c0,0,0,0.1-0.1,0.1c-0.2,0.2-0.4,0.2-0.7,0.3c-0.2,0-0.3,0-0.5,0c-0.3,0-0.6,0.1-0.9,0.1c-0.3,0-0.7,0-1,0
				c-0.3,0-0.5-0.1-0.7-0.2c-0.1,0-0.2,0-0.2,0C839.1,524.9,839.1,524.9,839,524.9z M841,524.7c0.2,0,0.4,0,0.7-0.1
				C841.4,524.5,841.2,524.6,841,524.7z M840.1,524.7C840.1,524.7,840.1,524.7,840.1,524.7c0,0-0.1,0-0.1,0c0,0,0,0,0,0
				C840,524.7,840.1,524.7,840.1,524.7z"/>
			<path fill="#9BFBD2" d="M838.2,538.6c0.1,0,0.2,0,0.4,0c-0.1,0.1-0.2,0-0.3,0.1c-0.4,0.1,0.1,0.2,0.2,0.1c0.1,0,1.6-0.1,1.8-0.1
				c0.6,0.1,0.1-0.1-0.1-0.1c-0.1,0-0.8,0-1,0c-0.1,0-0.1,0,0-0.1c0.2,0,0.4,0,0.6,0c0,0,0.4,0,0.4,0c0.1,0,0.2,0,0.2,0
				c0.2,0,0.3,0.1,0.5,0.1c0.1,0,0.2,0.1,0.3,0c0-0.1-0.1-0.1-0.1-0.1c0,0-0.1-0.1-0.1-0.1c-0.1,0-0.1,0-0.2,0c0,0-0.1,0-0.1,0
				c0,0,0,0,0,0c0.1,0,0.3,0,0.4,0.1c0-0.1-0.1-0.2-0.2-0.2c-0.2,0-0.4-0.1-0.6-0.1c-0.2,0-0.4,0-0.6,0c-0.1,0-0.2,0-0.3,0
				c-0.5,0-0.9,0.1-1.4,0.2c-0.1,0-0.2,0.1-0.2,0.1C838,538.6,838.1,538.6,838.2,538.6z"/>
			<path fill="#9BFBD2" d="M855.6,525c0,0.1-0.2,0.2-0.2,0.2c-0.1,0.1-0.2,0.1-0.3,0.2c0,0.1,0.1,0.1,0.1,0.2
				c-0.5,0.4-1.8,0.8-2.2,0.7c0,0,0,0,0.1,0c-0.1,0-0.1,0-0.1,0c0,0,0.1-0.1,0.1-0.1c-0.2,0-0.1-0.2-0.2-0.3c0,0,0.1,0,0.1,0
				c0.1,0,0.2,0,0.3,0c0.2,0,0.3,0,0.4-0.1c0.3-0.1,0.5-0.2,0.8-0.4c0.2-0.1,0.5-0.2,0.7-0.3C855.4,525,855.4,524.9,855.6,525z"/>
			<path fill="#9BFBD2" d="M853.9,521.2c0.1,0,0.2,0,0.2,0c0,0.2,0.2,0.2,0.3,0.2c-0.1,0-0.1,0.1-0.2,0.1c-0.3,0-0.6,0.1-0.9,0.2
				c0,0-0.1,0-0.1,0.1c-0.1,0.1-0.2,0.1-0.3,0.1c0,0-0.1,0-0.1,0c-0.1,0.1-0.3,0.1-0.5,0c0-0.1,0.1-0.1,0.2-0.2
				c0.1-0.1,0.2-0.1,0.3-0.2c0.1,0,0.2-0.1,0.3-0.1C853.2,521.4,853.7,521.2,853.9,521.2z"/>
			<path fill="#9BFBD2" d="M846.2,523.6c0,0.1,0.1,0.1,0.1,0.2c-0.2,0-0.4,0.1-0.6,0.1c-0.1,0-0.2,0.1-0.3,0.1
				c-0.2,0-0.3,0.1-0.5,0.1c-0.1,0-0.2-0.1-0.3-0.2c0-0.1-0.1-0.2-0.1-0.3c-0.1,0-0.3,0.1-0.5,0.1c0.1-0.2,0.2-0.3,0.4-0.4
				c0.3-0.1,0.7-0.3,1.1-0.3c0.2,0,0.4-0.1,0.6-0.1c0.2,0,0.4,0,0.5,0c0.2,0,0.3,0.2,0.3,0.4c0,0.1-0.1,0.2-0.2,0.1
				C846.5,523.4,846.4,523.5,846.2,523.6z"/>
			<path fill="#9BFBD2" d="M850.7,522.1c0,0,0,0.1,0,0.1c0.1,0,0.3,0.1,0.4,0.1c0,0.1-0.1,0.1-0.1,0.2c-0.8,0-1.5,0.1-2.2,0.3
				c0,0,0,0,0-0.1c-0.2,0.1-0.4,0.1-0.5,0.3c-0.1,0.1-0.1,0-0.2-0.1c0-0.1,0-0.2,0.1-0.2c0.1-0.1,0.2-0.2,0.3-0.3
				c0.4-0.1,0.8-0.3,1.3-0.4c0.2,0,0.3-0.1,0.5-0.1c0,0,0.1,0,0.1,0C850.5,522,850.6,522.1,850.7,522.1z M850.6,522.2
				C850.6,522.2,850.6,522.2,850.6,522.2c-0.1,0-0.2,0-0.3,0.1C850.4,522.2,850.5,522.2,850.6,522.2z"/>
			<path fill="#9BFBD2" d="M850.2,522.8c-0.3,0.1-0.6,0.3-0.9,0.4c-0.1,0-0.2,0.1-0.3,0.1c0,0,0,0,0,0c-0.2,0-0.4,0.1-0.6,0.2
				c-0.1,0-0.2,0-0.3,0c-0.1-0.1-0.1-0.2,0-0.2c0.1-0.1,0.2-0.1,0.3-0.1c0.5-0.2,1-0.2,1.5-0.4C849.9,522.7,850.1,522.7,850.2,522.8
				z"/>
		</g>
	</g>
</g>
<g id="Layer_6" display="none">
	<g display="inline">
		<rect x="173.9" y="-590.3" fill="none" width="824.4" height="333"/>
		<path d="M195.7-540.6h30.4V-346h71.4v34.3H195.7V-540.6z"/>
		<path d="M380.5-540.6H411V-409c0,49.7,13.9,66.2,34.6,66.2c21,0,35.7-16.5,35.7-66.2v-131.6h29.1v128.5
			c0,75.3-24.9,104.7-64.8,104.7c-39.6,0-65.1-29.4-65.1-104.7V-540.6z"/>
		<path d="M686.8-373.7h-57.7l-13.4,62h-31l55.9-228.9h35.7l55.9,228.9h-32L686.8-373.7z M680-405.5l-6-28
			c-5.5-24.2-10.5-50.4-15.5-75.6h-1.1c-4.7,25.6-9.7,51.5-15.2,75.6l-6,28H680z"/>
		<path d="M807.3-540.6h31.2l53.5,128.8l17.6,48.7h1c-1.3-23.5-3.9-52.5-3.9-78.1v-99.4h29.1v228.9h-31.2l-53.5-128.8l-17.6-48.7h-1
			c1.3,24.2,3.9,51.8,3.9,77.4v100.1h-29.1V-540.6z"/>
	</g>
	<g display="inline">
		<rect x="173.9" y="-171.2" fill="none" width="824.4" height="333"/>
		<path d="M230.4-87.3h-49.6v-34.3h129.7v34.3h-49.6v194.6h-30.4V-87.3z"/>
		<path d="M486.6,107.4l-37-89.6h-26.3v89.6h-30.4v-228.9h58c35.7,0,63,16.8,63,67.9c0,35-13.6,56-34.1,65.5l40.9,95.6H486.6z
			 M423.3-14.4h24.4c23.4,0,36.2-13.3,36.2-39.2c0-26.3-12.9-35.4-36.2-35.4h-24.4V-14.4z"/>
		<path d="M683.7,45.4h-57.7l-13.4,62h-31l55.9-228.9h35.7l55.9,228.9h-32L683.7,45.4z M676.9,13.6l-6-28
			c-5.5-24.2-10.5-50.4-15.5-75.6h-1.1c-4.7,25.6-9.7,51.5-15.2,75.6l-6,28H676.9z"/>
		<path d="M804.2-121.6h31.2L889,7.3l17.6,48.7h1c-1.3-23.5-3.9-52.5-3.9-78.1v-99.4h29.1v228.9h-31.2L848-21.5l-17.6-48.7h-1
			c1.3,24.2,3.9,51.8,3.9,77.4v100.1h-29.1V-121.6z"/>
	</g>
</g>
<g id="Luan_Tran__x28_B_x29_">
	<g>
		<path fill="#FFFFFF" d="M1046.9,338.8c-1.8,0.3-2.2-12.2-2.1-14.8c0.2-9.4,0-16.8,0.4-26.1c0.3-7.8,0.3-40.2,0.7-48
			c0.3-6,1.4-31.1,1.5-49.7c0.1-17.5-1.6-35.3-1.4-52.7c0-7.5,0.1-15,0.5-22.5c0.2-4.8,1.2-9.5,1.6-14.3c0.2-1.9,0.8-3.3,2.9-4.2
			c0.4-0.2,0.6-0.8,0.8-1.3c0.7-1.4,1.1-2.9,3.2-3.6c1.7-0.5,1.8-0.6,2.5,0.6c1-0.1,2.7-0.1,2.7,0.1c0.7,0.4,1.5,0.6,2.1,1.1
			c0.5,0.3,0.7,0.8,1.2,1.3c1.4-0.6,2.6-0.5,3.6,0.7c0.2,0.2,0.8,0.2,1.3,0.3c0.5,0.1,0.9,0,1.4,0.1c1.7,0.5,2.7,3.7,6.3,2.7
			c13.3-3.5,26.6-4.3,40.2-4.4c11.9-0.1,37.1,4.6,58.3,12.8c18.7,9,20.5,8.8,26.4,28.4c3.3,14.1,0.4,27.1-4.7,38.5
			c-15.7,19.4-19.8,19.6-30.1,26.3c-20.7,13.2-42.1,20.6-63.2,25.5c0.6,0.6,32.9,24.5,48.3,40.5c12.7,13.3,32.7,32.5,44.5,46.4
			c5,5.9,16.8,21,16.4,22.9c-1.1-0.8,2.7,7.4,1.9,8.2c-0.5,0.4-1.7-0.4-2.3,0c-0.4,0.2-0.2,1.6-0.6,1.8c-0.3,0.2-3-0.7-3.8-0.4
			c-0.3,0.1-0.1,1.7-0.2,2.5c-0.1,1-0.4,1-0.7,2c-0.3,0.4,0.9,2.1,0.6,2.1c-0.7,0-2.1-0.3-2.6-0.8c-1-0.8-3.1-1.3-4.1-2.2
			c-2.9-0.9,0,0-4-0.6s-3.4-1.4-5.4-1.7c-1.2-0.2-2.3-0.9-3.4-1.3c-0.6-0.3-1.2-0.6-1.9-0.9c-0.9-0.3-1.7-0.7-2.6-1
			c-0.8-0.2-1.6-0.2-2.4-0.4c-1.1-0.2-9.8-8.3-13.2-12.2c-7.4-8.5-15.8-16.8-23.1-25.3c-10.6-12.3-22.1-23.5-33-35.5
			c-8.4-9.2-31.5-30.8-32.2-31.3c-0.1,0.9-1.3,26.6-2.1,37.4c-0.9,12-1.2,38-1.3,39.7c-0.3,7.6-0.2,13.9-0.6,21.4
			c-0.1,1.9-1.4,3.8-1.9,5.6c-0.4,1.7-0.5,2-2.1,3.1c0.1,2.7-2,2.2-2.8,3.1c-1.3,1.6-1.8,3.7-2.8,6.4c-0.8-2.4-1.3-3.8-1.8-5.3
			c-1.1-3.3-1.2,0.8-1.6-0.4c-0.7-1.8-0.4-1.6-1.3-2.7c-1.6-1.9,0.4,2.2,1.3,4.3c0.7,1.9-1.3-1.7-3.6-2.2c-2-0.5-4.2-3.6-4.2-3.6
			s-4.5-2.9-5.2-5.7C1047.4,343.7,1046.9,339.8,1046.9,338.8z M1076.5,168.6c0,8-1.1,40.2,0.8,39.7c6.9-1.5,22.2-2,29.1-3.7
			c17-4.3,32.7-10.8,47-19.6c5.1-3.1,9.7-6.6,13-11.1c4.2-5.8,8.1-14.5,6.8-20.8c-2-10.2-5.2-11-14.6-17.7c-3.3-2.3-22-7.1-26.2-7.3
			c-12.8-0.6-17.2-0.9-29.9,0.7c-7.3,0.9-26.6,2.4-26.4,3.5C1076.5,133.9,1076.7,152.9,1076.5,168.6z"/>
	</g>
	<g>
		<path fill="#FFFFFF" d="M944.5,360.1c-2.5-10.2-1.4-2.3-2.3-3.9c-0.4-0.8-1.3-1.8-1.7-2.3c-0.4-0.4-1-1.4-1.1-1.2
			c-0.1,0.1-2.1-2.6-3.1-4.3c-1.5-2.7-3.2-4-4.4-6.8c-2.2-5-2.5-14.4-3.6-19.8c-2.7-12.7-3.4-19.5-4.3-32.4
			c-0.7-11.1-1.4-26-1.8-37.1c-0.3-9.7-0.4-43-0.4-51.1c0-17.7-2-35.8-2-53.5c0-2.3-0.1-4.5-0.2-6.8c-0.1-2-0.2-2-2.2-2
			c-7.5,0.1-15,0.4-22.5,0.2c-11.1-0.4-22.2-1.2-33.4-1.9c-5.2-0.3-10.3-1.6-15.1-3.5c-0.5-0.2-0.8-0.7-1.2-1
			c-0.2-0.1-0.4-0.3-0.6-0.4c-2-0.7-4.1-1.3-6-2.2c-1.4-0.6-2.6-1.6-3.8-2.5c-0.7-0.5-0.5-1.1,0.2-1.4c0.8-0.4,1.7-0.7,2.6-1.1
			c-0.3-0.8-0.3-0.8-1.2-1.8c-0.6-0.6,1.3-1.9,2-2.4c2.1-1.4,4.8-1.4,7.2-1.7c7-0.8,14.8-1.2,21.8-2c9.1-1,18.8-1.9,27.9-2.9
			c11.9-1.3,22.7-2.3,34.6-3.5c11.9-1.2,24.2-2.6,36.1-3.7c8.7-0.8,17-1.9,25.7-2.5c2.1-0.2,10.8-0.4,13.1,0.1c0.1,0,1,0.8,1.3,1
			c-0.6,0.5-3.2,0.2-3.9,0.8c1.7,0.6,4.7,1.1,6.3,1.5c1,0.3,2,0.4,2.6,1.4c0.2,0.3-3.5,0.8,0.9,0.5c4.4-0.3,3.3,0.7,4.9,1.3
			c0.9,0.3,1.5,1.5,2.7,1.5c1.3,0,2.6,0,3.9,0.1c1.5,0.1,3,0.2,4.5,0.3c0.4,0,2.4,1,3.9,2.2c0.2,0.1-2.2,1-2.2,1.3
			c-0.2,1.1,0.2,1.9,0.1,3c-0.1,1.2-0.1,2.3-1.6,2.7c-0.2,0.1-0.5,0.6-0.5,0.9c0.3,1-0.3,1.3-1,1.7c-1.5,0.8-2.9,1.8-4.3,2.7
			c-0.2,0.1-0.5,0.6-0.4,0.7c1.1,1.5-0.6,2-1,2.9c-0.2,0.4-0.5,0.8-0.5,1.2c-0.3,1.6-1,0.6-2.2,1.9c-6.8,0.7-13.4,0-20,0.2
			c-8.3,0.3-16.5,0.8-24.7,1.3c-8,0.5-16.1,1-24.1,1.6c-0.5,0-1,0.1-1.6,0.1c-2,0.1-2.1,0.2-1.8,2.3c1.1,7.6,0.7,15.7,1.3,23.3
			c0.8,9.9,1.5,20.5,1.8,30.4c0.6,19.3,0.6,36.1,1.1,55.4c0.3,11.8,1,29.6,1.1,41.4c0.1,14.4,0.1,24.6-0.4,39
			c-0.2,4.6-0.5,8.3-1,12.7c-0.2,2-1.4,3.4-2.1,5.4c-0.6,1.9,0.2,4.9-0.6,6.8C946.2,356.1,947,370.3,944.5,360.1z"/>
	</g>
	<g>
		<path fill="#FFFFFF" d="M104.1,362.8c-0.2-0.5-0.2,0.3,0.3,1c0.8,1.2-1.5-0.4-2-0.6c-0.9-0.5-0.9-0.2-1.5-0.5
			c-0.8-0.1-3.6-1.8-4.1-2.4c-0.4-0.4-1.5-1.8-2-2.1c-1.5-1.7-2.1-3.5-3.4-6.2c-1.1-2.2-2.9-3-4.6-5.5c-0.4-1.3-1.5-2.7-2.6-3.5
			c-2.5-2.1-1.9-2-1.4-2.4c0.9-0.7-3,0.2-1.3-0.6c1-0.6,0.3-0.3-1-0.5c-1.4-0.2,0.9-1,1.1-1.1c0.9-0.5,0.2-0.4,1.6-1.4
			c1.3-0.6,2.3-0.4,2.1-2c-0.5-3.5-1.1-7.1-1.4-10.6c-0.7-6.9-2.6-37.2-2.7-45.3c-0.1-7.5,0.1-41.4,0.2-50.8
			c0.1-11.6,1.3-62.1,1.8-75.7c0.3-8.6,1.9-34.3,2.4-38.5c0.2-1.5,0.7-2.9,1.1-4.3c0.1-0.4,0.3-0.9,0.5-1.1c1.8-1.1,2-3.3,3-4.9
			c0.4-0.7,1.3-1.1,2.1-1.4c0.2-0.1,0.7,0.6,1.2,1.1c0.2-0.1,0.5-0.3,1-0.6c0.2,0.3,0.3,0.5,0.5,0.8c0.2-0.3,0.3-0.5,0.4-0.6
			c0.8,0.8,1.6,1.6,2.5,2.6c0.9-0.5,1.8-0.2,2.6,0.8c0.7,0.8,3.5,0.7,4.2-0.1c0.5,0.8,1.2,1.4,1.6,2.2c1.7,3.2,2.3,6.7,2.8,10.3
			c2.6,17.4,3.8,35,4.1,52.6c0.4,19.1,0.8,38.3,1,57.4c0.2,14.3-0.1,28.6-0.1,43c0.1,16,1.2,49.6,1.2,50.8c0,1,1.5,2.2,2.5,2.1
			c7.4-0.6,13-1.1,20.4-1.5c5.6-0.4,26.7-1.2,31.6-1.2c4.2,0.1,20.4,2.5,24.3,3.4c1.1,0.3,11.5,3.3,12.5,3.7
			c3.3,2.2,2.1,1.7,4.7,2.7c0.6,0,2.7,1.2,3.3,1.2c2.4,0.1,2.6,2.9,3.7,3.1c0.1,0.2,0.1,0.5,0,0.7c-1.2,1.8-0.7,3.9-1.1,5.8
			c-0.2,0.9-0.4,1.6-1.2,1.9c-0.4,0.2-0.8,0.4-1.2,0.6c-1.3,0.6-2.3,1.6-3,3.1c-2.2,4.9-6.1,6.1-10.7,7.3c-6.2,1.6-12.2,1-18.5,1.2
			c-3.2,0.1-14.7,0.3-19.2,0.4c-4.5,0.1-13.2,0-17.7-0.2c-6.8-0.2-13.1,0.3-19.8-0.2c-3.4-0.3-8-1-11.4-1.5c-2.2,1.8-3,4-3.9,5.2
			c-0.7,0.9-1.2,1.9-1.8,2.9c-0.5,0.7,0-1.6-0.2-1.4s-0.3,2.1-1,2.7c-0.3,0.2-2-0.1-2.3-0.4C104.9,363.8,104.5,363.4,104.1,362.8z"
			/>
	</g>
	<g>
		<path fill="#FFFFFF" d="M228.2,104.2c0.6-0.2,1.5,4.1,2,3.9c0.2,0.2,0.4,0.5,0.8,0.9c0.1-0.1,0.5-3.8,0.7-6.1
			c0.1-0.7,1-0.9,1.4-0.3c1.5,2.8,4.1-1.2,4.8-0.5c0.8,0.8,4.1,3.2,5.1,2.4c0.5,0.9,6.4,9.6,6.4,13.5c-0.1,22.6-3.5,53.6-3.3,76.2
			c0.1,21.3,1.1,41.1,4.2,63.3c3.7,20.8,4.4,22,10.4,36.8c3.1,7.6,6.2,19.2,19,25.8c13,8.1,29,7.4,39.4-3.2
			c4.8-4.9,11.5-10.7,15.3-29.1c4.9-23.4,7.3-60,7.7-73c2.2-30.4,0.4-33.9,0.4-52.5c0.6-4.9-0.3-27.9-0.2-32.5
			c0.1-5.8-0.7-11.5-2-17.3c-0.2-1,0.5-5.8,0.5-7.1c0-2.1,0.6-2.9,3.3-3.7c0.4-0.1,1.4-2,1.5-2.6c0.3-1.3,1.7-1.5,3-1.9
			c0.2-0.1,0.7-0.1,0.7,0c0.9,1.1,4.4,0.8,4.5,1c1.6,1.9,4.6,2.3,6.9,3.4c1,0.5,2.1,0.8,3.2,0.9c4.5,0.5,5,0.6,8.2,3.3
			c1.1,0.9,2.1,1.8,3.4,2.6c4.2,2.6,2.8,37.1,2.6,41.3c-0.5,9.3,0.7,48.6-1,63.3c-0.6,5.3-0.5,31.5-3.4,51.6
			c-3,21-3.9,24.8-10.7,45.4c-4.2,12.9-13.1,25.9-20.8,34c-8.3,8.8-20.1,11.9-21.2,12.6c-5.2,3-25.5,5.1-29.3,4
			c-2.7-0.7-11.3-1-18.2-3c-7.9-2.3-14.3-6.5-19.8-9.6c-10.5-5.9-22.3-31.6-25.5-38.8c-7.9-17.7-8.6-30.6-12.9-48.9
			c-2.8-12.3-7-74.3-5.2-92.9c1-10.3,2-20.6,3.5-30.8c0.9-5.7,2.8-11.2,4.3-16.9c0.6-2.1,1.2-4.2,2.1-6.3c0.3-0.7,2.9-14.2,3.4-3.3
			c0.1,1.1,1.2-12.5,2.8-13C227.8,96.8,227.8,102.9,228.2,104.2z"/>
	</g>
	<g>
		<path fill="#FFFFFF" d="M580.6,359.6c-1.3,0.1-5.4-4.4-6-5c-1.8-2-4.4-14.5-5.6-16.7c-1.4-2.7-1.9-5.6-2.3-8.5
			c-1.9-13.9-1.8-27.9-1.8-41.9c-0.1-18.9,0.1-37.7,0.1-56.6c0-10.3,0.1-20.6,0-30.8c-0.1-17.5-0.1-35-0.3-52.4
			c-0.1-8-0.8-16-0.8-24c0-4.1,0.5-8.2,1.1-12.3c0.2-1.3-2-1.9-1.1-3.1c0.2-0.3,2.1-6.1,2.3-6.4c1.3-1.8,4.5-4,6.8-2.9
			c1.3,0.7,3.4-1.8,5.1-2.1c1.4-0.3,0,1.7,1.4,2.1c1.1,0.3,4.4-0.4,5,0c1.6,0,4.3,3.3,4.7,3.7c1,0.9,2.7,2.3,3.8,2.4
			c0.7,0,2.3,3.1,3,2.4c0,0,0.4,1.7,0.4,2c0.8,3.6,5.1,7,5.8,12.2c7.2,8.6,22.1,35.6,24.9,40.9c5,9.5,13.9,22.5,18.7,32
			c6.5,12.5,11.1,22.1,17.9,34.5c7.7,14,13.2,27.8,21.1,41.7c0.7,1.2,1.5,2.4,2.3,3.6c0.2,0.3,5,13.3,5.2,13.3
			c0-1.2-1.6-34-2.1-46.4c-0.4-11.9-1.2-25.3-1.5-37.3c-0.3-11.7-0.1-22.6-0.3-34.3c-0.2-9.4-0.5-23.3-0.3-32.7
			c0.2-9.4-2.5-20.1-1.9-29.4c0.1-1.3,0.4-2.6,0.6-3.9c0.3-1.4,1.2-2.6,2.8-3.5c0.6-0.3,1-0.9,1.4-1.5c0.4-0.5,0.7-1.1,0.9-1.8
			c0.5-1.5,2.3-1.8,3.8-2.3c0.2-0.1,0.7-0.1,0.8,0c1.2,1.1,2.9,0.4,4.4,0.6c0,0.9,2.5,2.1,2.9,2.5c1.3-0.6,2.3,0,3.5,0.5
			c1.4,0.6,2.9,1.1,4.8,0.6c0.8-0.2,2.3,0.3,3,0.9c0.9,0.7,1.4,1.8,1.8,2.7c0.5,1.2,5.2,7.3,5.4,8.5c1.5,9.5,0.7,1.7,2,26.9
			c1.4,26.3-0.8,32,0,49.7c0.9,20.4,1.3,16.8,1.7,29.8c0.3,9.3,0.5,18.5,0.9,27.8c0.7,13.3,1.6,26.6,2.3,39.9
			c0.7,15,2,30.1,1.7,45.2c0,1.3,0.1,2.7,0.3,4c0.4,2.7,0.6,13.2,1.2,14.3c0.7,1.3,1.1,2.6,0.4,4.1c-0.5,1.1-0.5,2.3-0.8,3.5
			c-0.1,0.5-0.3,0.9-1.1,0.6c-0.1,0-0.2-0.1-0.3-0.1c-0.6,0-4,2.3-4.2,2.7c-0.2,0.5-0.5,1.1-0.8,1.6c-0.3,0.4-0.7,0.8-0.9,1.2
			c-0.6,1.1-1.8,1.3-2.9,0.4c-0.9-0.8-1.7-1.6-2.6-2.4c-0.7-0.6-0.8-0.6-2.1-0.2c0.1,0.2,0.2,0.3,0.3,0.4c0.1,0.1,0.1,0.2,0.2,0.4
			c-2.4,0.5-3.3,0.3-3.1-0.7c-2.5-0.9-4.9-1.9-7.4-2.7c-1.7-0.5-3.5-0.9-5.2-1.3c-3.9-0.9-7.3-2.6-9.5-5.1c-2.6-2.9-5-6-7-9.2
			c-4-6.3-7.7-12.6-11.4-19c-10.4-17.4-14-31.8-24.2-49.2c-5.6-9.6-13.7-26-19.2-35.7c-7.9-13.9-14.8-21.7-21.6-35.9
			c-0.2-0.5-9.7-15.4-10-15.9c-0.1,0,0.3,12.8,0.3,13.4c0.1,7.1,0.8,13.6,0.6,20.7c-0.2,14.4-0.8,30.6,0.6,45
			c0.8,8.2,0.2,31.9,1.3,40.1c1.5,12,2.6,54.3,2.3,54.1c-1,0.3-3.5-9.3-4.3-9.1c-0.2-1,0.7,5.8-0.9,6.1c-0.8,0.1-0.8,3.3-1.7,3
			c-1.2-0.4-2.3-2.3-2.8-2.9c-0.5-0.7-3,2-4.5,2.3c-0.7,0.1-1.7,0.3-2.6,0C587.4,359,582,359.5,580.6,359.6z"/>
	</g>
	<g>
		<path fill="#FFFFFF" d="M392.5,354.8c-3.9,1.4-6.6-1.6-10.4,1c-2.2,1.5,2.8-6.7-0.7-3.4c-4.1,3.9,0.1,0.1-0.9-4.4
			c-0.9-4.5,2.1-23.9,2.7-26.4c1.6-6.1,10.9-31.5,13.6-39.9c2.2-6.9,11.9-38.4,14.6-47.7c2.3-7.8,12-39.3,14.2-48
			c3.9-15.5,4.6-19.8,9.7-35.1c1.6-4.9,11.6-39.3,15.2-43.5c1.2-1.4,2.4-2.9,3.7-4.3c1.1-1.2,3.1-1.5,4.3-0.5
			c1.2-0.3,2.3-0.6,3.3,0.6c0.4,0.5,1.6,0.7,2.5,1c1.1,0.4,2.3,0.9,3.5,1.1c0.7,0.2,1.5-0.1,2.1,0c0.9,0.1,1.9,0.3,2.7,0.7
			c3.4,2,10.6,20.6,13,26.9c2.8,7,6.3,19.6,9.1,28.3c4.3,11.6,4.3,14.1,8.5,27.1c3.5,13.2,8.3,27.1,11.8,40.3
			c2.7,10.2,6.1,20.1,8.9,30.3c4.1,14.7,6.5,23.3,10.8,38c2.1,7.2,5.9,20.5,8.3,27.6c2.9,8.3,6.1,16.6,9.4,24.9
			c1.6,3.9,0.5,7.6-0.6,11.4c-0.1,0.2-0.3,0.3-0.5,0.6c-0.3-0.3-0.6-0.5-0.9-0.8c-0.1,0-0.2,0-0.3,0.1c-1,0.7-1.9,1.4-2.9,2.1
			c-0.4,0.3-1,0.6-1,0.9c0.1,1.7-2,2.6-2.5,4.1c-0.3,0.9-2,0.6-2.7-0.3c-0.7-0.9-1.5-1.7-2.4-2.5c-0.3-0.3-1-0.4-1.5-0.6
			c-0.2,0.4-0.4,0.8-0.6,1.2c-0.1,0.1-0.1,0.2-0.2,0.4c-1-0.1-2.5-1-2.4-1.1c-2.3-0.8-4.5-1.6-6.8-2.4c-1.7-0.6-3.5-1.1-5.4-1.4
			c-2.8-0.5-5.3-11.3-6.9-14.9c-4.6-10.3-8.3-22.1-11.6-32.7c-2.8-9.3-3.7-15.7-6.3-25c-2.1-7.6-3.6-15.5-5.6-23.1
			c-0.3-1.2-10.9-0.7-12.4-0.7c-11-0.4-16.8-1.9-31.8-3.2c-1.8-0.5-4.4,0-8.8-0.9c-1.3,3.4-3.8,8.6-5.7,14.1
			c-2.2,6.6-2.2,5.2-5.9,16.1c-3.6,10.8-5.5,18.7-8.3,27.6c-2.3,7.3-5,14.7-7.4,22C410.2,343.4,398.5,352.6,392.5,354.8z
			 M459.4,174.9c-0.1,0-5.8,12.7-3.8,7.1c-0.2,0.5-5.9,39.1-10.7,59.5c-0.3,1.4,11.4,1.6,14.1,1.4c6-0.6,10.8-0.5,16.8-1
			c1.9-0.2,12.2-1.2,11.9-2.7c-0.4-1.4-1.4-7-1.7-8.4c-1.2-5.3-1.9-9.8-3.1-15.1c-1.3-5.6-4.1-14.5-5.5-20.1
			c-1.7-7.3-3.1-10.3-3.8-12.5C473.6,183.1,459.6,175.3,459.4,174.9z"/>
	</g>
	<g>
		<path fill="#FFFFFF" d="M1429,361.1c-1.3,0.1-5.4-4.3-5.9-4.9c-1.8-2-4.4-14.2-5.5-16.3c-1.4-2.6-1.9-5.5-2.3-8.3
			c-1.9-13.6-1.7-27.3-1.8-41c-0.1-18.5,0.1-36.9,0.1-55.4c0-10.1,0.1-20.1,0-30.2c-0.1-17.1-0.1-34.2-0.3-51.3
			c-0.1-7.8-0.8-15.7-0.8-23.5c0-4,0.5-8,1.1-12c0.2-1.3-1.9-1.9-1.1-3.1c0.2-0.3,2.1-6,2.3-6.2c1.3-1.7,4.5-3.9,6.8-2.8
			c1.3,0.6,3.3-1.7,5.1-2.1c1.4-0.3,0,1.7,1.4,2.1c1.1,0.3,4.4-0.4,4.9,0c1.6,0,4.3,3.2,4.7,3.6c1,0.9,2.7,2.3,3.8,2.3
			c0.7,0,2.3,3,3,2.3c0,0,0.4,1.7,0.4,1.9c0.8,3.5,5.1,6.9,5.7,12c7.2,8.4,22,34.8,24.8,40c4.9,9.3,13.8,22,18.6,31.3
			c6.4,12.3,11,21.6,17.8,33.8c7.6,13.7,13.1,27.2,20.9,40.9c0.7,1.2,1.5,2.4,2.3,3.5c0.2,0.3,5,13,5.2,13c0-1.2-1.6-33.3-2.1-45.4
			c-0.4-11.7-1.2-24.8-1.5-36.5c-0.3-11.4-0.1-22.1-0.3-33.6c-0.2-9.2-0.5-22.9-0.3-32c0.2-9.2-2.5-19.6-1.9-28.8
			c0.1-1.3,0.4-2.5,0.6-3.8c0.3-1.4,1.2-2.5,2.8-3.4c0.6-0.3,1-0.9,1.4-1.4c0.4-0.5,0.7-1.1,0.9-1.7c0.5-1.5,2.2-1.8,3.8-2.3
			c0.2-0.1,0.7-0.1,0.8,0c1.2,1,2.8,0.3,4.3,0.5c0,0.9,2.5,2.1,2.9,2.4c1.3-0.6,2.3,0,3.5,0.5c1.4,0.6,2.9,1.1,4.8,0.6
			c0.8-0.2,2.3,0.3,2.9,0.9c0.9,0.7,1.4,1.7,1.8,2.7c0.5,1.1,5.2,7.2,5.4,8.4c1.5,9.3,0.7,1.7,2,26.4c1.4,25.7-0.8,31.4,0,48.7
			c0.9,20,1.2,16.5,1.6,29.2c0.3,9.1,0.5,18.2,0.9,27.2c0.6,13,1.6,26,2.3,39.1c0.7,14.7,2,29.5,1.6,44.2c0,1.3,0.1,2.6,0.3,3.9
			c0.4,2.6,0.6,12.9,1.2,14c0.7,1.3,1,2.6,0.4,4c-0.5,1.1-0.5,2.3-0.7,3.4c-0.1,0.5-0.3,0.9-1.1,0.6c-0.1,0-0.2-0.1-0.3-0.1
			c-0.6,0-4,2.3-4.1,2.7c-0.2,0.5-0.5,1-0.8,1.5c-0.3,0.4-0.7,0.8-0.9,1.2c-0.6,1.1-1.8,1.3-2.9,0.4c-0.9-0.8-1.7-1.6-2.6-2.3
			c-0.7-0.6-0.8-0.6-2.1-0.2c0.1,0.2,0.2,0.3,0.3,0.4c0.1,0.1,0.1,0.2,0.2,0.4c-2.3,0.5-3.3,0.3-3-0.7c-2.5-0.9-4.9-1.8-7.3-2.6
			c-1.7-0.5-3.5-0.9-5.2-1.3c-3.9-0.9-7.2-2.5-9.5-5c-2.6-2.9-4.9-5.9-6.9-9c-4-6.1-7.6-12.4-11.4-18.6
			c-10.3-17.1-13.9-31.1-24.1-48.2c-5.6-9.4-13.6-25.5-19.1-34.9c-7.9-13.6-14.7-21.3-21.5-35.2c-0.2-0.5-9.7-15.1-10-15.5
			c-0.1,0,0.3,12.6,0.3,13.1c0.1,7,0.7,13.3,0.6,20.3c-0.2,14.1-0.8,30,0.6,44c0.8,8,0.2,31.2,1.3,39.2c1.5,11.7,2.6,53.1,2.3,52.9
			c-1,0.3-3.4-9.1-4.2-8.9c-0.2-1,0.7,5.7-0.8,6c-0.8,0.1-0.8,3.2-1.7,2.9c-1.2-0.4-2.3-2.2-2.8-2.9c-0.5-0.7-3,2-4.4,2.3
			c-0.7,0.1-1.7,0.3-2.5,0C1435.7,360.5,1430.4,361,1429,361.1z"/>
	</g>
	<g>
		<path fill="#FFFFFF" d="M1242.8,355.7c-3.8,1.5-6.7-1.3-10.2,1.4c-2.1,1.6,2.4-6.7-0.9-3.3c-3.9,4,0.1,0.1-1.1-4.3
			s0.6-23.5,1.1-25.9c1.2-6.1,8.9-31.3,11.1-39.7c1.8-6.9,9.4-38.1,11.6-47.4c1.8-7.7,9.5-39,11.2-47.6c2.9-15.3,3.4-19.6,7.5-34.8
			c1.3-4.9,9.1-39,12.4-43.3c1.1-1.5,2.2-2.9,3.4-4.4c1-1.3,3-1.6,4.3-0.7c1.2-0.4,2.3-0.7,3.3,0.4c0.4,0.5,1.6,0.6,2.5,0.9
			c1.2,0.3,2.3,0.7,3.5,0.9c0.7,0.1,1.4-0.2,2.1-0.1c0.9,0.1,1.9,0.2,2.7,0.6c3.5,1.8,11.7,19.7,14.6,25.6
			c3.2,6.7,7.4,18.9,10.8,27.2c4.9,11.1,5.1,13.6,10.1,26.1c4.3,12.7,9.9,26.1,14.1,38.8c3.3,9.8,7.3,19.4,10.7,29.1
			c4.9,14.2,7.9,22.4,13,36.6c2.5,6.9,7.1,19.7,10,26.5c3.4,8,7,15.9,10.8,23.8c1.8,3.8,1,7.4,0.1,11.2c0,0.2-0.2,0.3-0.4,0.6
			c-0.3-0.3-0.6-0.5-0.9-0.7c-0.1,0-0.2,0.1-0.3,0.1c-0.9,0.7-1.8,1.5-2.7,2.2c-0.4,0.3-1,0.7-0.9,1c0.2,1.7-1.8,2.6-2.2,4.1
			c-0.3,0.9-1.9,0.6-2.7-0.2c-0.7-0.8-1.6-1.6-2.5-2.3c-0.4-0.3-1-0.3-1.5-0.5c-0.2,0.4-0.4,0.8-0.5,1.2c0,0.1-0.1,0.2-0.2,0.4
			c-1,0-2.6-0.8-2.4-1c-2.3-0.7-4.5-1.4-6.9-2c-1.8-0.5-3.6-0.9-5.4-1.1c-2.8-0.4-6-10.8-7.8-14.3c-5.2-9.9-9.6-21.2-13.5-31.4
			c-3.4-8.9-4.7-15.2-7.8-24.2c-2.6-7.3-4.5-14.9-7-22.3c-0.4-1.2-10.9-0.1-12.3-0.1c-11,0.2-16.7-1-31.7-1.5
			c-1.8-0.4-4.4,0.2-8.8-0.5c-1.1,3.4-3.3,8.6-4.8,14.1c-1.8,6.6-1.9,5.2-4.8,16c-2.9,10.8-4.4,18.6-6.6,27.4
			c-1.8,7.3-4.1,14.6-6,21.8C1259.7,343.7,1248.7,353.3,1242.8,355.7z M1298.3,176.6c-0.1,0-5,12.7-3.3,7.2
			c-0.1,0.5-3.5,38.5-7,58.7c-0.2,1.4,11.4,1,14.1,0.7c5.9-0.8,10.7-1,16.6-1.8c1.9-0.3,12.1-1.8,11.6-3.2c-0.4-1.3-1.8-6.8-2.2-8.2
			c-1.5-5.1-2.5-9.5-4-14.6c-1.7-5.4-5-14-6.6-19.4c-2.2-7-3.7-9.9-4.5-12.1C1312.9,183.9,1298.4,177,1298.3,176.6z"/>
	</g>
</g>
<g id="Subtext">
	<g display="none">
		<rect x="776.5" y="727" display="inline" fill="none" width="97" height="146"/>
		<path display="inline" fill="#66FFCC" d="M804.5,802c0-7.5,1.7-13.2,5.2-17.1c3.5-3.9,8.6-5.8,15.3-5.8c6.5,0,11.5,1.9,15.1,5.8
			c3.6,3.8,5.4,9.6,5.4,17.2c0,7.4-1.8,13-5.3,17c-3.6,4-8.6,6-15.2,6c-6.6,0-11.7-2-15.2-6.1S804.5,809.2,804.5,802z"/>
	</g>
	<g>
		<g>
			<path fill="#9BFBD2" d="M952.7,521.8c0,3.7-1.2,6.6-3.7,8.6c-2.4,2-5.9,3-10.4,3h-3.7v13.4h-5.8V511h10.3c4.5,0,7.8,0.9,10,2.7
				C951.6,515.6,952.7,518.3,952.7,521.8z M934.9,528.5h3.1c3,0,5.2-0.5,6.6-1.6c1.4-1,2.1-2.7,2.1-4.9c0-2.1-0.6-3.6-1.9-4.6
				c-1.3-1-3.2-1.5-5.9-1.5h-4.1V528.5z"/>
			<path fill="#9BFBD2" d="M1014.5,546.7h-5.9v-16.1h-16.5v16.1h-5.8V511h5.8v14.6h16.5V511h5.9V546.7z"/>
			<path fill="#9BFBD2" d="M1082.1,528.8c0,5.8-1.5,10.3-4.4,13.5s-7,4.8-12.3,4.8c-5.4,0-9.5-1.6-12.4-4.8
				c-2.9-3.2-4.3-7.7-4.3-13.6c0-5.9,1.5-10.4,4.4-13.6c2.9-3.2,7.1-4.7,12.4-4.7c5.3,0,9.4,1.6,12.3,4.8
				C1080.6,518.5,1082.1,523,1082.1,528.8z M1054.8,528.8c0,4.4,0.9,7.7,2.7,10c1.8,2.3,4.4,3.4,7.9,3.4c3.5,0,6.1-1.1,7.8-3.4
				s2.6-5.6,2.6-10c0-4.4-0.9-7.7-2.6-10c-1.8-2.3-4.4-3.4-7.8-3.4c-3.5,0-6.1,1.1-7.9,3.4C1055.7,521.1,1054.8,524.4,1054.8,528.8z
				"/>
			<path fill="#9BFBD2" d="M1128.5,546.7h-5.8V516h-10.5v-5h26.8v5h-10.5V546.7z"/>
			<path fill="#9BFBD2" d="M1202.7,528.8c0,5.8-1.5,10.3-4.4,13.5s-7,4.8-12.3,4.8c-5.4,0-9.5-1.6-12.4-4.8
				c-2.9-3.2-4.3-7.7-4.3-13.6c0-5.9,1.5-10.4,4.4-13.6c2.9-3.2,7.1-4.7,12.4-4.7c5.3,0,9.4,1.6,12.3,4.8
				C1201.2,518.5,1202.7,523,1202.7,528.8z M1175.4,528.8c0,4.4,0.9,7.7,2.7,10c1.8,2.3,4.4,3.4,7.9,3.4c3.5,0,6.1-1.1,7.8-3.4
				s2.6-5.6,2.6-10c0-4.4-0.9-7.7-2.6-10c-1.8-2.3-4.4-3.4-7.8-3.4c-3.5,0-6.1,1.1-7.9,3.4C1176.3,521.1,1175.4,524.4,1175.4,528.8z
				"/>
			<path fill="#9BFBD2" d="M1251.4,527.4h13.1v17.9c-2.1,0.7-4.2,1.2-6.2,1.5s-4.1,0.4-6.4,0.4c-5.4,0-9.6-1.6-12.5-4.8
				c-2.9-3.2-4.4-7.7-4.4-13.5c0-5.7,1.7-10.2,5-13.5c3.3-3.2,7.9-4.9,13.6-4.9c3.7,0,7.3,0.7,10.6,2.1l-2.1,4.9
				c-2.9-1.3-5.8-2-8.7-2c-3.8,0-6.8,1.2-9,3.6c-2.2,2.4-3.3,5.7-3.3,9.8c0,4.4,1,7.7,3,9.9c2,2.3,4.9,3.4,8.6,3.4
				c1.9,0,3.9-0.2,6.1-0.7v-9.2h-7.4V527.4z"/>
			<path fill="#9BFBD2" d="M1305.5,532.5v14.3h-5.8V511h10.1c4.6,0,8,0.9,10.2,2.6c2.2,1.7,3.3,4.3,3.3,7.8c0,4.4-2.3,7.6-6.9,9.5
				l10.1,15.8h-6.6l-8.5-14.3H1305.5z M1305.5,527.6h4.1c2.7,0,4.7-0.5,5.9-1.5c1.2-1,1.8-2.5,1.8-4.5c0-2-0.7-3.5-2-4.3
				s-3.3-1.3-6-1.3h-3.9V527.6z"/>
			<path fill="#9BFBD2" d="M1380.2,546.7l-3.6-9.9H1363l-3.5,9.9h-6.2l13.4-35.8h6.3l13.4,35.8H1380.2z M1375.1,531.8l-3.3-9.7
				c-0.2-0.7-0.6-1.7-1-3.1c-0.4-1.4-0.7-2.4-0.9-3.1c-0.4,2-1.1,4.2-1.9,6.6l-3.2,9.3H1375.1z"/>
			<path fill="#9BFBD2" d="M1441.3,521.8c0,3.7-1.2,6.6-3.7,8.6c-2.4,2-5.9,3-10.4,3h-3.7v13.4h-5.8V511h10.3c4.5,0,7.8,0.9,10,2.7
				C1440.1,515.6,1441.3,518.3,1441.3,521.8z M1423.5,528.5h3.1c3,0,5.2-0.5,6.6-1.6c1.4-1,2.1-2.7,2.1-4.9c0-2.1-0.6-3.6-1.9-4.6
				c-1.3-1-3.2-1.5-5.9-1.5h-4.1V528.5z"/>
			<path fill="#9BFBD2" d="M1503,546.7h-5.9v-16.1h-16.5v16.1h-5.8V511h5.8v14.6h16.5V511h5.9V546.7z"/>
			<path fill="#9BFBD2" d="M1549,527.3l8.4-16.3h6.3l-11.9,21.9v13.8h-5.9v-13.6l-11.8-22h6.3L1549,527.3z"/>
		</g>
	</g>
	<g>
		<g>
			<path fill="#9BFBD2" d="M86.7,547.1v-35.7h5.8v35.7H86.7z"/>
			<path fill="#9BFBD2" d="M128.5,547.1v-35.7h5.8v30.7h15.1v5H128.5z"/>
			<path fill="#9BFBD2" d="M182,547.1v-35.7h5.8v30.7H203v5H182z"/>
			<path fill="#9BFBD2" d="M263.6,511.4v23.1c0,2.6-0.6,4.9-1.7,6.9c-1.1,2-2.8,3.5-4.9,4.6c-2.1,1.1-4.7,1.6-7.7,1.6
				c-4.4,0-7.9-1.2-10.3-3.5c-2.5-2.3-3.7-5.6-3.7-9.7v-23h5.9V534c0,2.9,0.7,5.1,2.1,6.5c1.4,1.4,3.5,2.1,6.3,2.1
				c5.5,0,8.3-2.9,8.3-8.7v-22.5H263.6z"/>
			<path fill="#9BFBD2" d="M319.8,537.4c0,3.2-1.1,5.7-3.4,7.5s-5.5,2.7-9.5,2.7c-4,0-7.3-0.6-9.9-1.9v-5.5c1.6,0.8,3.4,1.4,5.2,1.8
				s3.5,0.7,5.1,0.7c2.3,0,4-0.4,5.1-1.3s1.6-2.1,1.6-3.5c0-1.3-0.5-2.5-1.5-3.4c-1-0.9-3.1-2-6.3-3.3c-3.3-1.3-5.6-2.8-6.9-4.5
				c-1.3-1.7-2-3.7-2-6.1c0-3,1.1-5.3,3.2-7c2.1-1.7,5-2.6,8.5-2.6c3.4,0,6.8,0.7,10.2,2.2l-1.9,4.8c-3.2-1.3-6-2-8.5-2
				c-1.9,0-3.3,0.4-4.3,1.2c-1,0.8-1.5,1.9-1.5,3.3c0,0.9,0.2,1.7,0.6,2.4c0.4,0.7,1,1.3,1.9,1.9c0.9,0.6,2.5,1.4,4.8,2.3
				c2.6,1.1,4.5,2.1,5.8,3.1c1.2,0.9,2.1,2,2.7,3.2C319.5,534.4,319.8,535.8,319.8,537.4z"/>
			<path fill="#9BFBD2" d="M365.5,547.1h-5.8v-30.7h-10.5v-5H376v5h-10.5V547.1z"/>
			<path fill="#9BFBD2" d="M413.8,532.8v14.3H408v-35.7h10.1c4.6,0,8,0.9,10.2,2.6c2.2,1.7,3.3,4.3,3.3,7.8c0,4.4-2.3,7.6-6.9,9.5
				l10.1,15.8h-6.6l-8.5-14.3H413.8z M413.8,528h4.1c2.7,0,4.7-0.5,5.9-1.5c1.2-1,1.8-2.5,1.8-4.5c0-2-0.7-3.5-2-4.3s-3.3-1.3-6-1.3
				h-3.9V528z"/>
			<path fill="#9BFBD2" d="M488.6,547.1l-3.6-9.9h-13.6l-3.5,9.9h-6.2l13.4-35.8h6.3l13.4,35.8H488.6z M483.5,532.1l-3.3-9.7
				c-0.2-0.7-0.6-1.7-1-3.1c-0.4-1.4-0.7-2.4-0.9-3.1c-0.4,2-1.1,4.2-1.9,6.6l-3.2,9.3H483.5z"/>
			<path fill="#9BFBD2" d="M538.3,547.1h-5.8v-30.7H522v-5h26.8v5h-10.5V547.1z"/>
			<path fill="#9BFBD2" d="M580.8,547.1v-35.7h5.8v35.7H580.8z"/>
			<path fill="#9BFBD2" d="M654.2,529.2c0,5.8-1.5,10.3-4.4,13.5s-7,4.8-12.3,4.8c-5.4,0-9.5-1.6-12.4-4.8
				c-2.9-3.2-4.3-7.7-4.3-13.6c0-5.9,1.5-10.4,4.4-13.6c2.9-3.2,7.1-4.7,12.4-4.7c5.3,0,9.4,1.6,12.3,4.8
				C652.8,518.8,654.2,523.3,654.2,529.2z M627,529.2c0,4.4,0.9,7.7,2.7,10c1.8,2.3,4.4,3.4,7.9,3.4c3.5,0,6.1-1.1,7.8-3.4
				c1.8-2.2,2.6-5.6,2.6-10c0-4.4-0.9-7.7-2.6-10c-1.8-2.3-4.4-3.4-7.8-3.4c-3.5,0-6.1,1.1-7.9,3.4C627.8,521.5,627,524.8,627,529.2
				z"/>
			<path fill="#9BFBD2" d="M718.1,547.1h-7.2l-17.6-28.4h-0.2l0.1,1.6c0.2,3,0.3,5.8,0.3,8.3v18.6h-5.3v-35.7h7.1l17.5,28.3h0.1
				c0-0.4-0.1-1.7-0.2-4.1c-0.1-2.4-0.1-4.2-0.1-5.5v-18.7h5.3V547.1z"/>
		</g>
	</g>
</g>
<g id="Guide" display="none">
</g>
<g id="Layer_1">
	<g>
	</g>
	<g>
	</g>
	<g>
	</g>
	<g>
	</g>
	<g>
	</g>
	<g>
	</g>
	<g>
	</g>
	<g>
	</g>
	<g>
	</g>
	<g>
	</g>
	<g>
	</g>
	<g>
	</g>
	<g>
	</g>
	<g>
	</g>
	<g>
	</g>
</g>
</svg>
