<?xml version="1.0" encoding="utf-8"?>
<!-- Generator: Adobe Illustrator 18.0.0, SVG Export Plug-In . SVG Version: 6.00 Build 0)  -->
<!DOCTYPE svg PUBLIC "-//W3C//DTD SVG 1.1//EN" "http://www.w3.org/Graphics/SVG/1.1/DTD/svg11.dtd">
<svg version="1.1" xmlns="http://www.w3.org/2000/svg" xmlns:xlink="http://www.w3.org/1999/xlink" x="0px" y="0px"
	 viewBox="0 0 600 500" enable-background="new 0 0 600 500" xml:space="preserve">
<g id="Layer_1" display="none">
</g>
<g id="Block">
	<path fill="#9BFBD2" d="M540,500H0V60C23.4,36.6,36.6,23.4,60,0h540v440C576.6,463.4,563.4,476.6,540,500z"/>
	<path fill="#FFFFFF" d="M500,450H50V100c19.5-19.5,30.5-30.5,50-50h450v350C530.5,419.5,519.5,430.5,500,450z"/>
</g>
<g id="Luan_Tran__x28_B_x29_">
	<g>
		<g>
			<g>
				<g>
					<path fill="#9BFBD2" d="M137,235.8c-0.1-0.3-0.1,0.2,0.1,0.5c0.4,0.6-0.8-0.2-1.1-0.3c-0.5-0.3-0.5-0.1-0.8-0.3
						c-0.4-0.1-1.9-1-2.2-1.3c-0.2-0.2-0.8-1-1.1-1.1c-0.8-0.9-1.1-1.9-1.8-3.3c-0.6-1.2-1.5-1.6-2.5-3c-0.2-0.7-0.8-1.5-1.4-1.9
						c-1.3-1.2-1-1.1-0.8-1.3c0.5-0.4-1.6,0.1-0.7-0.3c0.6-0.3,0.2-0.2-0.6-0.3c-0.7-0.1,0.5-0.5,0.6-0.6c0.5-0.3,0.1-0.2,0.9-0.8
						c0.7-0.3,1.2-0.2,1.1-1.1c-0.3-1.9-0.6-3.8-0.8-5.7c-0.4-3.7-1.4-20-1.5-24.4c-0.1-4.1,0.1-22.3,0.1-27.4
						c0.1-6.3,0.7-33.5,1-40.8c0.2-4.6,1-18.5,1.3-20.7c0.1-0.8,0.4-1.6,0.6-2.3c0.1-0.2,0.1-0.5,0.3-0.6c1-0.6,1.1-1.8,1.6-2.6
						c0.2-0.4,0.7-0.6,1.1-0.8c0.1,0,0.4,0.3,0.7,0.6c0.1-0.1,0.3-0.2,0.5-0.3c0.1,0.1,0.2,0.3,0.3,0.4c0.1-0.2,0.2-0.3,0.2-0.3
						c0.4,0.5,0.9,0.9,1.4,1.4c0.5-0.3,1-0.1,1.4,0.4c0.4,0.4,1.9,0.4,2.3-0.1c0.3,0.4,0.6,0.8,0.9,1.2c0.9,1.7,1.3,3.6,1.5,5.5
						c1.4,9.4,2.1,18.9,2.2,28.4c0.2,10.3,0.5,20.6,0.6,30.9c0.1,7.7-0.1,15.4,0,23.2c0,8.6,0.6,26.7,0.6,27.4
						c0,0.6,0.8,1.2,1.4,1.2c4-0.3,7-0.6,11-0.8c3-0.2,14.4-0.7,17-0.6c2.3,0,11,1.4,13.1,1.8c0.6,0.1,6.2,1.8,6.8,2
						c1.8,1.2,1.2,0.9,2.5,1.4c0.3,0,1.5,0.7,1.8,0.7c1.3,0.1,1.4,1.6,2,1.7c0,0.1,0,0.3,0,0.4c-0.6,0.9-0.4,2.1-0.6,3.1
						c-0.1,0.5-0.2,0.8-0.6,1.1c-0.2,0.1-0.4,0.2-0.7,0.3c-0.7,0.3-1.2,0.9-1.6,1.7c-1.2,2.6-3.3,3.3-5.8,3.9
						c-3.4,0.9-6.6,0.6-10,0.6c-1.7,0-7.9,0.1-10.3,0.2c-2.4,0.1-7.1,0-9.5-0.1c-3.6-0.1-7,0.2-10.7-0.1c-1.8-0.1-4.3-0.6-6.1-0.8
						c-1.2,1-1.6,2.2-2.1,2.8c-0.4,0.5-0.6,1-1,1.6c-0.2,0.4,0-0.9-0.1-0.7c-0.1,0.1-0.2,1.1-0.5,1.5c-0.2,0.1-1.1,0-1.2-0.2
						C137.5,236.3,137.2,236.1,137,235.8z"/>
				</g>
			</g>
			<g>
				<g>
					<path fill="#9BFBD2" d="M203.9,96.4c0.3-0.1,0.8,2.2,1.1,2.1c0.1,0.1,0.2,0.2,0.4,0.5c0.1-0.1,0.3-2,0.4-3.3
						c0-0.4,0.6-0.5,0.7-0.1c0.8,1.5,2.2-0.7,2.6-0.3c0.4,0.4,2.2,1.7,2.8,1.3c0.3,0.5,3.5,5.2,3.4,7.3c0,12.2-1.9,28.9-1.8,41.1
						c0.1,11.5,0.6,22.1,2.2,34.1c2,11.2,2.4,11.9,5.6,19.8c1.6,4.1,3.3,10.4,10.2,13.9c7,4.3,15.6,4,21.2-1.7
						c2.6-2.6,6.2-5.8,8.3-15.7c2.6-12.6,3.9-32.3,4.1-39.4c1.2-16.4,0.2-18.2,0.2-28.3c0.3-2.6-0.2-15.1-0.1-17.5
						c0.1-3.1-0.4-6.2-1.1-9.3c-0.1-0.6,0.2-3.1,0.3-3.8c0-1.2,0.3-1.5,1.8-2c0.2-0.1,0.7-1.1,0.8-1.4c0.2-0.7,0.9-0.8,1.6-1
						c0.1,0,0.4,0,0.4,0c0.5,0.6,2.4,0.5,2.4,0.5c0.9,1,2.5,1.2,3.7,1.8c0.5,0.3,1.1,0.4,1.7,0.5c2.4,0.3,2.7,0.3,4.4,1.8
						c0.6,0.5,1.2,1,1.8,1.4c2.3,1.4,1.5,20,1.4,22.3c-0.3,5,0.4,26.2-0.5,34.1c-0.3,2.9-0.3,17-1.8,27.8
						c-1.6,11.3-2.1,13.3-5.7,24.5c-2.3,6.9-7.1,13.9-11.2,18.3c-4.5,4.7-10.8,6.4-11.4,6.8c-2.8,1.6-13.7,2.7-15.8,2.2
						c-1.5-0.4-6.1-0.5-9.8-1.6c-4.2-1.2-7.7-3.5-10.7-5.2c-5.6-3.2-12-17-13.8-20.9c-4.3-9.5-4.7-16.5-6.9-26.4
						c-1.5-6.6-3.7-40.1-2.8-50.1c0.5-5.5,1.1-11.1,1.9-16.6c0.5-3.1,1.5-6.1,2.3-9.1c0.3-1.1,0.7-2.3,1.1-3.4
						c0.1-0.4,1.5-7.7,1.9-1.8c0,0.6,0.7-6.7,1.5-7C203.7,92.5,203.7,95.7,203.9,96.4z"/>
				</g>
			</g>
			<g>
				<g>
					<path fill="#9BFBD2" d="M393.8,234.1c-0.7,0-2.9-2.4-3.2-2.7c-1-1.1-2.4-7.8-3-9c-0.7-1.4-1-3-1.3-4.6c-1-7.5-0.9-15-1-22.6
						c0-10.2,0-20.3,0-30.5c0-5.5,0-11.1,0-16.6c0-9.4-0.1-18.8-0.2-28.3c-0.1-4.3-0.4-8.6-0.4-12.9c0-2.2,0.3-4.4,0.6-6.6
						c0.1-0.7-1.1-1-0.6-1.7c0.1-0.1,1.1-3.3,1.2-3.4c0.7-1,2.4-2.2,3.7-1.5c0.7,0.4,1.8-0.9,2.8-1.1c0.8-0.2,0,0.9,0.8,1.1
						c0.6,0.2,2.4-0.2,2.7,0c0.9,0,2.3,1.8,2.5,2c0.5,0.5,1.4,1.3,2.1,1.3c0.4,0,1.3,1.7,1.6,1.3c0,0,0.2,0.9,0.2,1.1
						c0.5,1.9,2.8,3.8,3.1,6.6c3.9,4.6,11.9,19.2,13.4,22c2.7,5.1,7.5,12.1,10.1,17.2c3.5,6.7,6,11.9,9.6,18.6
						c4.1,7.6,7.1,15,11.3,22.5c0.4,0.7,0.8,1.3,1.2,1.9c0.1,0.2,2.7,7.2,2.8,7.2c0-0.7-0.9-18.3-1.1-25c-0.2-6.4-0.7-13.7-0.8-20.1
						c-0.2-6.3,0-12.2-0.2-18.5c-0.1-5.1-0.3-12.6-0.2-17.6c0.1-5-1.3-10.8-1-15.8c0-0.7,0.2-1.4,0.3-2.1c0.2-0.8,0.7-1.4,1.5-1.9
						c0.3-0.2,0.6-0.5,0.8-0.8c0.2-0.3,0.4-0.6,0.5-0.9c0.3-0.8,1.2-1,2-1.2c0.1,0,0.4-0.1,0.4,0c0.7,0.6,1.5,0.2,2.4,0.3
						c0,0.5,1.4,1.1,1.6,1.3c0.7-0.3,1.2,0,1.9,0.3c0.8,0.3,1.6,0.6,2.6,0.3c0.4-0.1,1.2,0.2,1.6,0.5c0.5,0.4,0.8,1,1,1.5
						c0.2,0.6,2.8,4,2.9,4.6c0.8,5.1,0.4,0.9,1.1,14.5c0.8,14.2-0.4,17.3,0,26.8c0.5,11,0.7,9.1,0.9,16.1c0.2,5,0.2,10,0.5,15
						c0.4,7.2,0.9,14.3,1.2,21.5c0.4,8.1,1.1,16.2,0.9,24.3c0,0.7,0.1,1.4,0.2,2.2c0.2,1.4,0.3,7.1,0.7,7.7c0.4,0.7,0.6,1.4,0.2,2.2
						c-0.3,0.6-0.3,1.3-0.4,1.9c-0.1,0.3-0.1,0.5-0.6,0.3c0,0-0.1-0.1-0.1-0.1c-0.3,0-2.2,1.2-2.2,1.5c-0.1,0.3-0.3,0.6-0.4,0.8
						c-0.1,0.2-0.4,0.4-0.5,0.7c-0.3,0.6-1,0.7-1.6,0.2c-0.5-0.4-0.9-0.9-1.4-1.3c-0.4-0.3-0.4-0.3-1.1-0.1c0.1,0.1,0.1,0.2,0.2,0.2
						c0,0.1,0.1,0.1,0.1,0.2c-1.3,0.3-1.8,0.1-1.6-0.4c-1.3-0.5-2.6-1-4-1.4c-0.9-0.3-1.9-0.5-2.8-0.7c-2.1-0.5-3.9-1.4-5.1-2.8
						c-1.4-1.6-2.7-3.2-3.8-5c-2.1-3.4-4.1-6.8-6.2-10.2c-5.6-9.4-7.5-17.1-13.1-26.5c-3-5.2-7.4-14-10.3-19.2
						c-4.3-7.5-8-11.7-11.7-19.4c-0.1-0.3-5.2-8.3-5.4-8.6c-0.1,0,0.2,6.9,0.2,7.2c0,3.8,0.4,7.3,0.3,11.2
						c-0.1,7.8-0.4,16.5,0.3,24.2c0.4,4.4,0.1,17.2,0.7,21.6c0.8,6.5,1.4,29.2,1.3,29.1c-0.5,0.1-1.9-5-2.3-4.9
						c-0.1-0.5,0.4,3.1-0.5,3.3c-0.4,0.1-0.4,1.8-0.9,1.6c-0.6-0.2-1.3-1.2-1.5-1.6c-0.3-0.4-1.6,1.1-2.4,1.3
						c-0.4,0.1-0.9,0.1-1.4,0C397.5,233.8,394.6,234,393.8,234.1z"/>
				</g>
			</g>
			<g>
				<g>
					<path fill="#9BFBD2" d="M292.5,231.5c-2.1,0.7-3.6-0.9-5.6,0.5c-1.2,0.8,1.5-3.6-0.4-1.8c-2.2,2.1,0,0-0.5-2.4
						c-0.5-2.4,1.1-12.9,1.5-14.2c0.8-3.3,5.9-17,7.3-21.5c1.2-3.7,6.4-20.7,7.9-25.7c1.2-4.2,6.5-21.2,7.6-25.9
						c2.1-8.3,2.5-10.7,5.3-18.9c0.9-2.6,6.2-21.2,8.2-23.5c0.7-0.8,1.3-1.5,2-2.3c0.6-0.7,1.7-0.8,2.3-0.3c0.7-0.2,1.3-0.3,1.8,0.3
						c0.2,0.3,0.9,0.4,1.3,0.5c0.6,0.2,1.2,0.5,1.9,0.6c0.4,0.1,0.8-0.1,1.2,0c0.5,0.1,1,0.2,1.4,0.4c1.8,1.1,5.7,11.1,7,14.5
						c1.5,3.8,3.4,10.6,4.9,15.3c2.3,6.3,2.3,7.6,4.6,14.6c1.9,7.1,4.5,14.6,6.3,21.7c1.4,5.5,3.3,10.8,4.8,16.3
						c2.2,7.9,3.5,12.6,5.8,20.5c1.1,3.9,3.2,11,4.5,14.9c1.6,4.5,3.3,9,5,13.4c0.8,2.1,0.3,4.1-0.3,6.1c0,0.1-0.1,0.2-0.2,0.3
						c-0.2-0.2-0.3-0.3-0.5-0.4c-0.1,0-0.1,0-0.1,0.1c-0.5,0.4-1,0.8-1.6,1.1c-0.2,0.2-0.5,0.3-0.5,0.5c0,0.9-1.1,1.4-1.4,2.2
						c-0.2,0.5-1.1,0.3-1.5-0.2c-0.4-0.5-0.8-0.9-1.3-1.3c-0.2-0.2-0.5-0.2-0.8-0.3c-0.1,0.2-0.2,0.4-0.3,0.7c0,0.1-0.1,0.1-0.1,0.2
						c-0.6,0-1.4-0.5-1.3-0.6c-1.2-0.4-2.4-0.9-3.6-1.3c-0.9-0.3-1.9-0.6-2.9-0.8c-1.5-0.3-2.9-6.1-3.7-8.1
						c-2.5-5.6-4.5-11.9-6.2-17.6c-1.5-5-2-8.5-3.4-13.5c-1.2-4.1-1.9-8.3-3-12.4c-0.2-0.7-5.9-0.4-6.7-0.4c-5.9-0.2-9-1-17.1-1.7
						c-1-0.3-2.4,0-4.7-0.5c-0.7,1.9-2.1,4.6-3.1,7.6c-1.2,3.6-1.2,2.8-3.2,8.7c-2,5.8-3,10.1-4.5,14.9c-1.2,3.9-2.7,7.9-4,11.8
						C302,225.4,295.7,230.3,292.5,231.5z M328.5,134.6c-0.1,0-3.1,6.9-2,3.8c-0.1,0.3-3.2,21.1-5.8,32.1c-0.2,0.7,6.1,0.9,7.6,0.7
						c3.2-0.3,5.8-0.3,9.1-0.6c1-0.1,6.6-0.6,6.4-1.4c-0.2-0.7-0.8-3.8-0.9-4.5c-0.7-2.9-1-5.3-1.7-8.1c-0.7-3-2.2-7.8-2.9-10.8
						c-0.9-3.9-1.7-5.6-2.1-6.8C336.2,139,328.6,134.8,328.5,134.6z"/>
				</g>
			</g>
		</g>
		<g>
			<g>
				<g>
					<path fill="#9BFBD2" d="M219.7,392.8c-0.9,0.1-1.1-6.1-1.1-7.4c0.1-4.7,0-8.4,0.2-13.1c0.2-3.9,0.2-20.1,0.4-24
						c0.2-3,0.7-15.6,0.7-24.9c0.1-8.7-0.8-17.6-0.7-26.4c0-3.8,0.1-7.5,0.3-11.3c0.1-2.4,0.6-4.8,0.8-7.2c0.1-0.9,0.4-1.6,1.4-2.1
						c0.2-0.1,0.3-0.4,0.4-0.7c0.3-0.7,0.6-1.5,1.6-1.8c0.9-0.3,0.9-0.3,1.2,0.3c0.5-0.1,1.4,0,1.3,0c0.4,0.2,0.7,0.3,1,0.5
						c0.2,0.2,0.4,0.4,0.6,0.6c0.7-0.3,1.3-0.3,1.8,0.4c0.1,0.1,0.4,0.1,0.6,0.1c0.2,0,0.5,0,0.7,0.1c0.9,0.2,1.4,1.8,3.1,1.4
						c6.7-1.8,13.3-2.1,20.1-2.2c5.9-0.1,18.6,2.3,29.2,6.4c9.4,4.5,10.3,4.4,13.2,14.2c1.6,7.1,0.2,13.5-2.3,19.3
						c-7.8,9.7-9.9,9.8-15.1,13.1c-10.4,6.6-21.1,10.3-31.7,12.7c0.3,0.3,16.5,12.3,24.2,20.3c6.4,6.6,16.4,16.3,22.3,23.2
						c2.5,2.9,8.4,10.5,8.2,11.5c-0.6-0.4,1.4,3.7,1,4.1c-0.2,0.2-0.9-0.2-1.2,0c-0.2,0.1-0.1,0.8-0.3,0.9c-0.2,0.1-1.5-0.3-1.9-0.2
						c-0.1,0.1,0,0.8-0.1,1.3c0,0.5-0.2,0.5-0.3,1c-0.2,0.2,0.5,1,0.3,1c-0.4,0-1-0.2-1.3-0.4c-0.5-0.4-1.6-0.6-2.1-1.1
						c-1.5-0.5,0,0-2-0.3c-2-0.3-1.7-0.7-2.7-0.9c-0.6-0.1-1.1-0.4-1.7-0.7c-0.3-0.1-0.6-0.3-0.9-0.4c-0.4-0.2-0.9-0.4-1.3-0.5
						c-0.4-0.1-0.8-0.1-1.2-0.2c-0.5-0.1-4.9-4.2-6.6-6.1c-3.7-4.2-7.9-8.4-11.6-12.7c-5.3-6.2-11.1-11.7-16.5-17.8
						c-4.2-4.6-15.8-15.4-16.1-15.7c-0.1,0.4-0.7,13.3-1.1,18.7c-0.4,6-0.6,19-0.6,19.9c-0.2,3.8-0.1,6.9-0.3,10.7
						c-0.1,0.9-0.7,1.9-1,2.8c-0.2,0.8-0.3,1-1.1,1.6c0,1.4-1,1.1-1.4,1.6c-0.7,0.8-0.9,1.9-1.4,3.2c-0.4-1.2-0.7-1.9-0.9-2.7
						c-0.6-1.6-0.6,0.4-0.8-0.2c-0.3-0.9-0.2-0.8-0.7-1.3c-0.8-1,0.2,1.1,0.6,2.2c0.4,1-0.7-0.9-1.8-1.1c-1-0.2-2.1-1.8-2.1-1.8
						s-2.2-1.5-2.6-2.8C219.9,395.2,219.7,393.3,219.7,392.8z M234.5,307.6c0,4-0.5,20.1,0.4,19.9c3.5-0.8,11.1-1,14.6-1.9
						c8.5-2.1,16.3-5.4,23.5-9.8c2.5-1.6,4.8-3.3,6.5-5.6c2.1-2.9,4-7.2,3.4-10.4c-1-5.1-2.6-5.5-7.3-8.8c-1.6-1.2-11-3.6-13.1-3.7
						c-6.4-0.3-8.6-0.5-15,0.3c-3.6,0.5-13.3,1.2-13.2,1.7C234.5,290.2,234.6,299.8,234.5,307.6z"/>
				</g>
			</g>
			<g>
				<g>
					<path fill="#9BFBD2" d="M168.4,403.5c-1.3-5.1-0.7-1.1-1.1-2c-0.2-0.4-0.7-0.9-0.9-1.1c-0.2-0.2-0.5-0.7-0.6-0.6
						c0,0.1-1-1.3-1.5-2.2c-0.7-1.3-1.6-2-2.2-3.4c-1.1-2.5-1.2-7.2-1.8-9.9c-1.4-6.3-1.7-9.7-2.1-16.2c-0.4-5.5-0.7-13-0.9-18.5
						c-0.2-4.9-0.2-21.5-0.2-25.6c0-8.9-1-17.9-1-26.8c0-1.1-0.1-2.3-0.1-3.4c0-1-0.1-1-1.1-1c-3.7,0.1-7.5,0.2-11.2,0.1
						c-5.6-0.2-11.1-0.6-16.7-0.9c-2.6-0.2-5.1-0.8-7.6-1.8c-0.2-0.1-0.4-0.3-0.6-0.5c-0.1-0.1-0.2-0.2-0.3-0.2c-1-0.4-2-0.7-3-1.1
						c-0.7-0.3-1.3-0.8-1.9-1.2c-0.3-0.2-0.3-0.5,0.1-0.7c0.4-0.2,0.9-0.4,1.3-0.5c-0.2-0.4-0.2-0.4-0.6-0.9c-0.3-0.3,0.6-1,1-1.2
						c1-0.7,2.4-0.7,3.6-0.8c3.5-0.4,7.4-0.6,10.9-1c4.5-0.5,9.4-1,13.9-1.5c6-0.6,11.4-1.1,17.3-1.8c5.9-0.6,12.1-1.3,18.1-1.9
						c4.3-0.4,8.5-0.9,12.9-1.3c1-0.1,5.4-0.2,6.6,0.1c0.1,0,0.5,0.4,0.7,0.5c-0.3,0.2-1.6,0.1-2,0.4c0.9,0.3,2.4,0.5,3.1,0.8
						c0.5,0.1,1,0.2,1.3,0.7c0.1,0.1-1.7,0.4,0.4,0.3s1.7,0.3,2.4,0.6c0.5,0.2,0.7,0.7,1.3,0.7c0.6,0,1.3,0,1.9,0
						c0.7,0,1.5,0.1,2.2,0.2c0.2,0,1.2,0.5,1.9,1.1c0.1,0.1-1.1,0.5-1.1,0.6c-0.1,0.5,0.1,0.9,0,1.5c0,0.6,0,1.2-0.8,1.3
						c-0.1,0-0.3,0.3-0.2,0.4c0.1,0.5-0.1,0.6-0.5,0.8c-0.7,0.4-1.4,0.9-2.1,1.3c-0.1,0.1-0.2,0.3-0.2,0.3c0.5,0.8-0.3,1-0.5,1.5
						c-0.1,0.2-0.2,0.4-0.3,0.6c-0.1,0.8-0.5,0.3-1.1,1c-3.4,0.3-6.7,0-10,0.1c-4.1,0.1-8.3,0.4-12.4,0.7c-4,0.2-8.1,0.5-12.1,0.8
						c-0.3,0-0.5,0-0.8,0.1c-1,0.1-1,0.1-0.9,1.1c0.5,3.8,0.3,7.8,0.7,11.7c0.4,4.9,0.7,10.3,0.9,15.2c0.3,9.6,0.3,18.1,0.5,27.7
						c0.2,5.9,0.5,14.8,0.5,20.7c0,7.2,0.1,12.3-0.2,19.5c-0.1,2.3-0.3,4.1-0.5,6.3c-0.1,1-0.7,1.7-1,2.7c-0.3,0.9,0.1,2.5-0.3,3.4
						C169.3,401.5,169.7,408.5,168.4,403.5z"/>
				</g>
			</g>
			<g>
				<g>
					<path fill="#9BFBD2" d="M410.9,403.9c-0.6,0-2.7-2.1-3-2.4c-0.9-1-2.2-7.1-2.8-8.2c-0.7-1.3-1-2.8-1.2-4.2
						c-1-6.8-0.9-13.7-0.9-20.5c0-9.2,0-18.5,0-27.7c0-5,0-10.1,0-15.1c0-8.6-0.1-17.1-0.2-25.7c-0.1-3.9-0.4-7.8-0.4-11.8
						c0-2,0.2-4,0.6-6c0.1-0.6-1-0.9-0.6-1.5c0.1-0.1,1-3,1.1-3.1c0.6-0.9,2.3-2,3.4-1.4c0.6,0.3,1.7-0.9,2.5-1c0.7-0.1,0,0.8,0.7,1
						c0.5,0.2,2.2-0.2,2.5,0c0.8,0,2.1,1.6,2.3,1.8c0.5,0.4,1.3,1.2,1.9,1.2c0.3,0,1.2,1.5,1.5,1.2c0,0,0.2,0.8,0.2,1
						c0.4,1.8,2.5,3.4,2.9,6c3.6,4.2,11,17.4,12.4,20c2.5,4.6,6.9,11,9.3,15.7c3.2,6.1,5.5,10.8,8.9,16.9
						c3.8,6.9,6.6,13.6,10.5,20.5c0.3,0.6,0.7,1.2,1.1,1.8c0.1,0.2,2.5,6.5,2.6,6.5c0-0.6-0.8-16.7-1-22.7
						c-0.2-5.9-0.6-12.4-0.8-18.3c-0.2-5.7,0-11.1-0.2-16.8c-0.1-4.6-0.3-11.4-0.2-16c0.1-4.6-1.2-9.8-1-14.4c0-0.6,0.2-1.3,0.3-1.9
						c0.2-0.7,0.6-1.3,1.4-1.7c0.3-0.2,0.5-0.5,0.7-0.7c0.2-0.3,0.4-0.6,0.5-0.9c0.3-0.7,1.1-0.9,1.9-1.1c0.1,0,0.4,0,0.4,0
						c0.6,0.5,1.4,0.2,2.2,0.3c0,0.4,1.3,1,1.4,1.2c0.6-0.3,1.1,0,1.7,0.3c0.7,0.3,1.5,0.5,2.4,0.3c0.4-0.1,1.1,0.2,1.5,0.4
						c0.4,0.4,0.7,0.9,0.9,1.3c0.2,0.6,2.6,3.6,2.7,4.2c0.7,4.7,0.3,0.9,1,13.2c0.7,12.9-0.4,15.7,0,24.4c0.4,10,0.6,8.2,0.8,14.6
						c0.1,4.5,0.2,9.1,0.5,13.6c0.3,6.5,0.8,13,1.1,19.6c0.4,7.4,1,14.7,0.8,22.1c0,0.7,0.1,1.3,0.2,2c0.2,1.3,0.3,6.5,0.6,7
						c0.4,0.6,0.5,1.3,0.2,2c-0.2,0.5-0.3,1.1-0.4,1.7c0,0.3-0.1,0.4-0.5,0.3c0,0-0.1,0-0.1,0c-0.3,0-2,1.1-2.1,1.3
						c-0.1,0.3-0.3,0.5-0.4,0.8c-0.1,0.2-0.4,0.4-0.5,0.6c-0.3,0.5-0.9,0.7-1.5,0.2c-0.4-0.4-0.8-0.8-1.3-1.2
						c-0.4-0.3-0.4-0.3-1-0.1c0.1,0.1,0.1,0.1,0.2,0.2c0,0.1,0.1,0.1,0.1,0.2c-1.2,0.3-1.7,0.1-1.5-0.4c-1.2-0.4-2.4-0.9-3.7-1.3
						c-0.8-0.3-1.7-0.4-2.6-0.6c-1.9-0.5-3.6-1.3-4.7-2.5c-1.3-1.4-2.5-2.9-3.5-4.5c-2-3.1-3.8-6.2-5.7-9.3
						c-5.2-8.5-7-15.6-12.1-24.1c-2.8-4.7-6.8-12.7-9.5-17.5c-3.9-6.8-7.4-10.6-10.8-17.6c-0.1-0.3-4.8-7.5-5-7.8
						c-0.1,0,0.2,6.3,0.2,6.5c0,3.5,0.4,6.7,0.3,10.2c-0.1,7.1-0.4,15,0.3,22c0.4,4,0.1,15.6,0.6,19.6c0.8,5.9,1.3,26.6,1.2,26.5
						c-0.5,0.1-1.7-4.6-2.1-4.4c-0.1-0.5,0.4,2.9-0.4,3c-0.4,0.1-0.4,1.6-0.8,1.5c-0.6-0.2-1.2-1.1-1.4-1.4c-0.3-0.3-1.5,1-2.2,1.1
						c-0.4,0.1-0.8,0.1-1.3,0C414.2,403.7,411.6,403.9,410.9,403.9z"/>
				</g>
			</g>
			<g>
				<g>
					<path fill="#9BFBD2" d="M317.7,401.2c-1.9,0.8-3.3-0.6-5.1,0.7c-1,0.8,1.2-3.4-0.5-1.6c-1.9,2,0,0-0.6-2.1
						c-0.6-2.2,0.3-11.7,0.6-13c0.6-3,4.5-15.7,5.5-19.9c0.9-3.4,4.7-19.1,5.8-23.7c0.9-3.9,4.8-19.5,5.6-23.8
						c1.5-7.7,1.7-9.8,3.8-17.4c0.7-2.4,4.5-19.5,6.2-21.7c0.6-0.7,1.1-1.5,1.7-2.2c0.5-0.6,1.5-0.8,2.1-0.4
						c0.6-0.2,1.1-0.4,1.7,0.2c0.2,0.3,0.8,0.3,1.3,0.4c0.6,0.2,1.2,0.4,1.8,0.5c0.3,0.1,0.7-0.1,1.1-0.1c0.5,0,1,0.1,1.3,0.3
						c1.8,0.9,5.9,9.8,7.3,12.8c1.6,3.4,3.7,9.4,5.4,13.6c2.5,5.6,2.6,6.8,5.1,13.1c2.2,6.4,5,13.1,7.1,19.4
						c1.6,4.9,3.6,9.7,5.3,14.6c2.5,7.1,4,11.2,6.5,18.3c1.2,3.5,3.6,9.9,5,13.3c1.7,4,3.5,8,5.4,11.9c0.9,1.9,0.5,3.7,0.1,5.6
						c0,0.1-0.1,0.2-0.2,0.3c-0.2-0.1-0.3-0.3-0.4-0.4c-0.1,0-0.1,0-0.1,0.1c-0.5,0.4-0.9,0.7-1.4,1.1c-0.2,0.1-0.5,0.3-0.5,0.5
						c0.1,0.8-0.9,1.3-1.1,2c-0.1,0.4-1,0.3-1.4-0.1c-0.4-0.4-0.8-0.8-1.3-1.1c-0.2-0.1-0.5-0.2-0.8-0.2c-0.1,0.2-0.2,0.4-0.3,0.6
						c0,0.1-0.1,0.1-0.1,0.2c-0.5,0-1.3-0.4-1.2-0.5c-1.1-0.3-2.3-0.7-3.4-1c-0.9-0.2-1.8-0.4-2.7-0.6c-1.4-0.2-3-5.4-3.9-7.1
						c-2.6-4.9-4.8-10.6-6.7-15.7c-1.7-4.5-2.3-7.6-3.9-12.1c-1.3-3.7-2.2-7.5-3.5-11.1c-0.2-0.6-5.4-0.1-6.2-0.1
						c-5.5,0.1-8.4-0.5-15.9-0.8c-0.9-0.2-2.2,0.1-4.4-0.2c-0.5,1.7-1.6,4.3-2.4,7c-0.9,3.3-1,2.6-2.4,8c-1.5,5.4-2.2,9.3-3.3,13.7
						c-0.9,3.6-2,7.3-3,10.9C326.2,395.3,320.6,400,317.7,401.2z M345.5,311.6c-0.1,0-2.5,6.4-1.7,3.6c-0.1,0.3-1.8,19.3-3.5,29.4
						c-0.1,0.7,5.7,0.5,7.1,0.3c3-0.4,5.4-0.5,8.3-0.9c0.9-0.1,6-0.9,5.8-1.6c-0.2-0.7-0.9-3.4-1.1-4.1c-0.8-2.6-1.2-4.7-2-7.3
						c-0.8-2.7-2.5-7-3.3-9.7c-1.1-3.5-1.9-5-2.3-6C352.8,315.3,345.6,311.8,345.5,311.6z"/>
				</g>
			</g>
		</g>
	</g>
</g>
</svg>
